<svg width="836" height="339" viewBox="0 0 836 339" fill="none" xmlns="http://www.w3.org/2000/svg">
<rect width="836" height="339" rx="24" fill="#F5F5F5"/>
<g filter="url(#filter0_d_101_153)">
<rect x="323" y="138" width="189" height="64" rx="8" fill="white"/>
<g clip-path="url(#clip0_101_153)">
<rect x="344.5" y="163.138" width="13" height="13.7236" rx="3" fill="url(#paint0_linear_101_153)"/>
<rect x="374" y="163.5" width="118" height="13" rx="3" fill="url(#paint1_linear_101_153)"/>
</g>
</g>
<defs>
<filter id="filter0_d_101_153" x="309" y="130" width="217" height="92" filterUnits="userSpaceOnUse" color-interpolation-filters="sRGB">
<feFlood flood-opacity="0" result="BackgroundImageFix"/>
<feColorMatrix in="SourceAlpha" type="matrix" values="0 0 0 0 0 0 0 0 0 0 0 0 0 0 0 0 0 0 127 0" result="hardAlpha"/>
<feOffset dy="6"/>
<feGaussianBlur stdDeviation="7"/>
<feComposite in2="hardAlpha" operator="out"/>
<feColorMatrix type="matrix" values="0 0 0 0 0.282353 0 0 0 0 0.282353 0 0 0 0 0.282353 0 0 0 0.14 0"/>
<feBlend mode="normal" in2="BackgroundImageFix" result="effect1_dropShadow_101_153"/>
<feBlend mode="normal" in="SourceGraphic" in2="effect1_dropShadow_101_153" result="shape"/>
</filter>
<linearGradient id="paint0_linear_101_153" x1="345.5" y1="164.5" x2="363" y2="174.5" gradientUnits="userSpaceOnUse">
<stop stop-color="#CACACA"/>
<stop offset="1" stop-color="#E6E6E6"/>
</linearGradient>
<linearGradient id="paint1_linear_101_153" x1="490.468" y1="175.2" x2="374.495" y2="160.809" gradientUnits="userSpaceOnUse">
<stop stop-color="#E5E5E5"/>
<stop offset="1" stop-color="#CBCBCB"/>
</linearGradient>
<clipPath id="clip0_101_153">
<path d="M331 151C331 148.239 333.239 146 336 146H499C501.761 146 504 148.239 504 151V189C504 191.761 501.761 194 499 194H336C333.239 194 331 191.761 331 189V151Z" fill="white"/>
</clipPath>
</defs>
</svg>
