<svg width="887" height="421" viewBox="0 0 887 421" fill="none" xmlns="http://www.w3.org/2000/svg">
<g clip-path="url(#clip0_102_382)">
<rect width="887" height="421" rx="24" fill="white"/>
<g clip-path="url(#clip1_102_382)">
<rect x="48" y="-2.5" width="791" height="426" rx="24" fill="white"/>
<rect x="738.5" y="375.5" width="1" height="100" transform="rotate(-90 738.5 375.5)" fill="#484848"/>
<path d="M430.969 384.316C429.539 384.316 428.305 384.055 427.266 383.531C426.227 383.008 425.422 382.277 424.852 381.34C424.289 380.402 424.008 379.312 424.008 378.07V367.09H427.031V377.812C427.031 378.594 427.184 379.277 427.488 379.863C427.801 380.441 428.25 380.895 428.836 381.223C429.422 381.543 430.133 381.703 430.969 381.703C431.805 381.703 432.516 381.543 433.102 381.223C433.688 380.895 434.133 380.441 434.438 379.863C434.742 379.277 434.895 378.594 434.895 377.812V367.09H437.906V378.07C437.906 379.305 437.625 380.395 437.062 381.34C436.508 382.277 435.711 383.008 434.672 383.531C433.633 384.055 432.398 384.316 430.969 384.316ZM453.266 384V369.633H448.18V367.09H461.363V369.633H456.277V384H453.266ZM471.637 384V367.09H474.648V384H471.637ZM485.848 384V367.09H488.859V381.457H496.547V384H485.848ZM506.926 384V367.09H509.938V384H506.926ZM525.273 384V369.633H520.188V367.09H533.371V369.633H528.285V384H525.273ZM548.379 384V377.332L542.449 367.09H545.754L549.832 374.426H549.938L554.016 367.09H557.32L551.391 377.332V384H548.379ZM587.723 384.316C586.113 384.316 584.715 383.961 583.527 383.25C582.348 382.539 581.434 381.527 580.785 380.215C580.145 378.902 579.824 377.344 579.824 375.539V375.527C579.824 373.723 580.145 372.168 580.785 370.863C581.434 369.551 582.348 368.543 583.527 367.84C584.715 367.129 586.113 366.773 587.723 366.773C589.02 366.773 590.18 367.023 591.203 367.523C592.234 368.023 593.074 368.715 593.723 369.598C594.371 370.48 594.77 371.496 594.918 372.645L594.93 372.762H591.965L591.906 372.562C591.75 371.914 591.48 371.355 591.098 370.887C590.723 370.41 590.25 370.043 589.68 369.785C589.109 369.52 588.457 369.387 587.723 369.387C586.746 369.387 585.895 369.637 585.168 370.137C584.449 370.637 583.891 371.348 583.492 372.27C583.102 373.184 582.906 374.27 582.906 375.527V375.539C582.906 376.797 583.102 377.887 583.492 378.809C583.891 379.73 584.453 380.445 585.18 380.953C585.906 381.453 586.758 381.703 587.734 381.703C588.453 381.703 589.094 381.578 589.656 381.328C590.227 381.07 590.707 380.703 591.098 380.227C591.488 379.742 591.77 379.16 591.941 378.48L591.965 378.375H594.93L594.918 378.492C594.777 379.641 594.383 380.652 593.734 381.527C593.086 382.402 592.246 383.086 591.215 383.578C590.191 384.07 589.027 384.316 587.723 384.316ZM605.426 384V367.09H608.438V381.457H616.125V384H605.426ZM625.309 384L631.344 367.09H633.887V370.125H632.996L628.473 384H625.309ZM628.367 379.629L629.164 377.297H636.91L637.719 379.629H628.367ZM637.613 384L633.09 370.125V367.09H634.742L640.777 384H637.613ZM656.523 384.316C655.227 384.316 654.094 384.121 653.125 383.73C652.156 383.34 651.391 382.781 650.828 382.055C650.273 381.328 649.961 380.465 649.891 379.465L649.879 379.277H652.773L652.797 379.418C652.875 379.902 653.082 380.32 653.418 380.672C653.754 381.023 654.195 381.297 654.742 381.492C655.289 381.68 655.918 381.773 656.629 381.773C657.332 381.773 657.941 381.676 658.457 381.48C658.98 381.277 659.383 380.996 659.664 380.637C659.953 380.27 660.098 379.844 660.098 379.359V379.348C660.098 378.723 659.859 378.223 659.383 377.848C658.914 377.473 658.133 377.172 657.039 376.945L655.223 376.57C653.551 376.219 652.305 375.648 651.484 374.859C650.664 374.07 650.254 373.047 650.254 371.789V371.777C650.262 370.777 650.531 369.906 651.062 369.164C651.602 368.414 652.344 367.828 653.289 367.406C654.234 366.984 655.312 366.773 656.523 366.773C657.758 366.773 658.832 366.977 659.746 367.383C660.668 367.789 661.391 368.355 661.914 369.082C662.445 369.809 662.738 370.648 662.793 371.602L662.805 371.789H659.922L659.898 371.648C659.828 371.164 659.645 370.75 659.348 370.406C659.059 370.055 658.672 369.785 658.188 369.598C657.703 369.41 657.141 369.316 656.5 369.316C655.852 369.316 655.285 369.414 654.801 369.609C654.324 369.797 653.953 370.062 653.688 370.406C653.422 370.75 653.289 371.152 653.289 371.613V371.625C653.289 372.219 653.527 372.703 654.004 373.078C654.48 373.445 655.23 373.738 656.254 373.957L658.082 374.332C659.254 374.574 660.211 374.902 660.953 375.316C661.695 375.73 662.242 376.25 662.594 376.875C662.953 377.492 663.133 378.238 663.133 379.113V379.125C663.133 380.18 662.867 381.098 662.336 381.879C661.805 382.66 661.047 383.262 660.062 383.684C659.078 384.105 657.898 384.316 656.523 384.316ZM679.523 384.316C678.227 384.316 677.094 384.121 676.125 383.73C675.156 383.34 674.391 382.781 673.828 382.055C673.273 381.328 672.961 380.465 672.891 379.465L672.879 379.277H675.773L675.797 379.418C675.875 379.902 676.082 380.32 676.418 380.672C676.754 381.023 677.195 381.297 677.742 381.492C678.289 381.68 678.918 381.773 679.629 381.773C680.332 381.773 680.941 381.676 681.457 381.48C681.98 381.277 682.383 380.996 682.664 380.637C682.953 380.27 683.098 379.844 683.098 379.359V379.348C683.098 378.723 682.859 378.223 682.383 377.848C681.914 377.473 681.133 377.172 680.039 376.945L678.223 376.57C676.551 376.219 675.305 375.648 674.484 374.859C673.664 374.07 673.254 373.047 673.254 371.789V371.777C673.262 370.777 673.531 369.906 674.062 369.164C674.602 368.414 675.344 367.828 676.289 367.406C677.234 366.984 678.312 366.773 679.523 366.773C680.758 366.773 681.832 366.977 682.746 367.383C683.668 367.789 684.391 368.355 684.914 369.082C685.445 369.809 685.738 370.648 685.793 371.602L685.805 371.789H682.922L682.898 371.648C682.828 371.164 682.645 370.75 682.348 370.406C682.059 370.055 681.672 369.785 681.188 369.598C680.703 369.41 680.141 369.316 679.5 369.316C678.852 369.316 678.285 369.414 677.801 369.609C677.324 369.797 676.953 370.062 676.688 370.406C676.422 370.75 676.289 371.152 676.289 371.613V371.625C676.289 372.219 676.527 372.703 677.004 373.078C677.48 373.445 678.23 373.738 679.254 373.957L681.082 374.332C682.254 374.574 683.211 374.902 683.953 375.316C684.695 375.73 685.242 376.25 685.594 376.875C685.953 377.492 686.133 378.238 686.133 379.113V379.125C686.133 380.18 685.867 381.098 685.336 381.879C684.805 382.66 684.047 383.262 683.062 383.684C682.078 384.105 680.898 384.316 679.523 384.316Z" fill="#484848"/>
<g clip-path="url(#clip2_102_382)">
<path d="M284.201 178.528C283.453 178.328 282.889 178.069 282.507 177.752C282.129 177.436 281.933 177.084 281.92 176.697C281.908 176.309 282.082 175.909 282.446 175.494L282.508 175.424L284.176 175.871L284.134 175.922C283.962 176.127 283.896 176.328 283.936 176.525C283.981 176.723 284.119 176.906 284.35 177.076C284.585 177.241 284.905 177.378 285.309 177.487C285.696 177.591 286.082 177.639 286.469 177.631C286.854 177.623 287.208 177.565 287.53 177.457C287.856 177.346 288.12 177.189 288.321 176.988L288.326 176.983C288.581 176.728 288.652 176.485 288.539 176.253C288.431 176.018 288.115 175.767 287.589 175.503L286.711 175.07C285.877 174.652 285.403 174.215 285.289 173.76C285.182 173.302 285.392 172.811 285.916 172.287L285.921 172.282C286.341 171.862 286.86 171.534 287.478 171.299C288.101 171.066 288.767 170.933 289.477 170.9C290.194 170.865 290.9 170.94 291.594 171.126C292.305 171.317 292.834 171.57 293.178 171.885C293.526 172.197 293.699 172.543 293.698 172.922C293.696 173.302 293.524 173.685 293.182 174.073L293.125 174.138L291.484 173.698L291.529 173.636C291.675 173.44 291.731 173.25 291.699 173.068C291.675 172.884 291.565 172.714 291.371 172.559C291.176 172.404 290.895 172.277 290.525 172.178C290.174 172.084 289.82 172.04 289.463 172.048C289.109 172.052 288.78 172.104 288.477 172.205C288.178 172.306 287.927 172.458 287.725 172.66L287.72 172.665C287.473 172.912 287.399 173.153 287.499 173.386C287.603 173.62 287.909 173.863 288.419 174.115L289.292 174.553C289.864 174.839 290.275 175.124 290.525 175.41C290.775 175.696 290.869 175.994 290.807 176.304C290.754 176.611 290.547 176.944 290.189 177.302L290.184 177.307C289.728 177.763 289.181 178.116 288.542 178.366C287.908 178.617 287.216 178.758 286.469 178.789C285.726 178.821 284.97 178.734 284.201 178.528ZM289.961 179.848L297.366 172.444L299.027 172.889L296.14 175.776L296.254 175.806C296.717 175.563 297.206 175.407 297.72 175.338C298.234 175.269 298.754 175.305 299.279 175.446C299.821 175.591 300.201 175.792 300.419 176.049C300.639 176.302 300.697 176.602 300.592 176.95C300.492 177.299 300.229 177.685 299.807 178.108L296.353 181.561L294.692 181.116L297.862 177.946C298.279 177.529 298.471 177.184 298.439 176.911C298.412 176.64 298.147 176.437 297.644 176.302C297.315 176.214 296.977 176.192 296.629 176.235C296.281 176.278 295.945 176.38 295.62 176.541C295.296 176.701 295.001 176.915 294.733 177.183L291.622 180.294L289.961 179.848ZM301.356 183.038C300.631 182.844 300.117 182.566 299.814 182.203C299.513 181.838 299.428 181.411 299.557 180.921C299.69 180.432 300.045 179.9 300.621 179.324L300.631 179.314C301.201 178.743 301.834 178.29 302.533 177.953C303.234 177.612 303.956 177.401 304.698 177.319C305.444 177.238 306.18 177.295 306.905 177.489C307.63 177.684 308.142 177.961 308.441 178.322C308.744 178.684 308.832 179.11 308.703 179.6C308.574 180.09 308.223 180.622 307.65 181.194L307.64 181.204C307.064 181.78 306.427 182.237 305.728 182.575C305.035 182.913 304.313 183.124 303.564 183.208C302.822 183.29 302.086 183.234 301.356 183.038ZM302.343 182.051C302.726 182.154 303.121 182.171 303.527 182.102C303.942 182.031 304.352 181.883 304.758 181.658C305.167 181.43 305.559 181.128 305.934 180.753L305.944 180.743C306.321 180.366 306.571 180.026 306.692 179.724C306.817 179.419 306.814 179.16 306.682 178.947C306.559 178.732 306.306 178.574 305.923 178.471C305.541 178.369 305.142 178.353 304.727 178.423C304.316 178.49 303.906 178.638 303.496 178.868C303.09 179.093 302.698 179.395 302.321 179.773L302.311 179.783C301.936 180.157 301.687 180.497 301.562 180.802C301.438 181.107 301.439 181.365 301.566 181.576C301.697 181.789 301.956 181.947 302.343 182.051ZM308.036 184.692L311.393 178.822L313.061 179.269L310.254 183.607L310.374 183.64L315.79 180L317.371 180.424L314.764 184.816L314.884 184.848L320.107 181.157L321.755 181.598L314.434 186.406L312.7 185.941L315.147 181.692L315.034 181.661L309.751 185.151L308.036 184.692Z" fill="#222222"/>
<path d="M278.024 178.96L315.014 188.872L314.214 189.672L277.224 179.761L278.024 178.96Z" fill="#222222"/>
<path d="M488.305 218.461L455.283 209.613C452.295 208.813 448.101 209.936 445.914 212.123L437.578 220.459C435.391 222.646 436.04 225.068 439.027 225.868L472.05 234.716C475.037 235.517 479.232 234.393 481.419 232.206L489.754 223.87C491.941 221.683 491.292 219.262 488.305 218.461Z" stroke="#222222" stroke-width="1.5"/>
<path d="M445.898 221.855C445.15 221.654 444.586 221.395 444.204 221.078C443.826 220.762 443.63 220.411 443.617 220.024C443.605 219.636 443.779 219.235 444.143 218.82L444.205 218.75L445.873 219.197L445.831 219.248C445.659 219.454 445.593 219.655 445.633 219.852C445.678 220.05 445.817 220.233 446.047 220.402C446.283 220.568 446.602 220.705 447.006 220.813C447.393 220.917 447.779 220.966 448.166 220.957C448.551 220.949 448.906 220.891 449.227 220.784C449.552 220.672 449.817 220.516 450.019 220.314L450.024 220.309C450.278 220.055 450.348 219.812 450.236 219.58C450.128 219.345 449.811 219.094 449.286 218.829L448.408 218.397C447.574 217.979 447.1 217.542 446.986 217.087C446.879 216.629 447.089 216.137 447.613 215.613L447.618 215.608C448.038 215.188 448.558 214.861 449.175 214.626C449.799 214.392 450.465 214.259 451.174 214.226C451.891 214.191 452.597 214.267 453.291 214.453C454.003 214.644 454.531 214.897 454.876 215.212C455.223 215.524 455.396 215.87 455.395 216.249C455.394 216.629 455.221 217.012 454.879 217.399L454.822 217.464L453.181 217.025L453.226 216.962C453.372 216.766 453.428 216.577 453.397 216.395C453.372 216.211 453.262 216.041 453.068 215.886C452.873 215.73 452.591 215.603 452.223 215.504C451.871 215.41 451.517 215.367 451.16 215.374C450.806 215.379 450.477 215.431 450.174 215.531C449.875 215.633 449.624 215.784 449.422 215.986L449.417 215.991C449.169 216.239 449.096 216.479 449.195 216.712C449.3 216.947 449.606 217.19 450.116 217.442L450.989 217.88C451.561 218.166 451.972 218.451 452.222 218.737C452.471 219.022 452.566 219.321 452.504 219.631C452.45 219.937 452.244 220.271 451.886 220.629L451.881 220.634C451.425 221.09 450.878 221.443 450.239 221.692C449.604 221.943 448.914 222.085 448.166 222.116C447.423 222.148 446.667 222.061 445.898 221.855ZM451.658 223.175L459.063 215.77L460.724 216.216L457.838 219.102L457.95 219.132C458.415 218.889 458.903 218.733 459.417 218.665C459.931 218.596 460.451 218.632 460.976 218.773C461.519 218.918 461.898 219.119 462.116 219.375C462.336 219.628 462.394 219.929 462.289 220.276C462.188 220.625 461.926 221.012 461.504 221.434L458.05 224.888L456.389 224.443L459.559 221.272C459.976 220.856 460.169 220.511 460.137 220.238C460.109 219.967 459.843 219.764 459.341 219.629C459.012 219.541 458.674 219.518 458.326 219.561C457.978 219.605 457.642 219.706 457.318 219.868C456.993 220.028 456.698 220.242 456.431 220.509L453.32 223.62L451.658 223.175ZM463.053 226.365C462.329 226.171 461.814 225.892 461.511 225.53C461.211 225.165 461.124 224.737 461.253 224.247C461.387 223.759 461.742 223.226 462.318 222.65L462.328 222.64C462.898 222.07 463.531 221.617 464.229 221.28C464.931 220.939 465.653 220.728 466.395 220.646C467.142 220.565 467.877 220.622 468.602 220.816C469.327 221.01 469.839 221.288 470.138 221.649C470.442 222.011 470.528 222.437 470.399 222.927C470.27 223.416 469.919 223.948 469.347 224.521L469.337 224.531C468.761 225.107 468.123 225.564 467.425 225.901C466.731 226.239 466.01 226.451 465.261 226.535C464.519 226.617 463.783 226.56 463.053 226.365ZM464.04 225.378C464.423 225.48 464.817 225.497 465.225 225.429C465.639 225.358 466.05 225.21 466.455 224.985C466.865 224.756 467.256 224.454 467.63 224.08L467.64 224.07C468.018 223.692 468.268 223.352 468.389 223.051C468.515 222.745 468.511 222.486 468.38 222.274C468.255 222.059 468.002 221.9 467.62 221.798C467.237 221.695 466.839 221.679 466.425 221.75C466.014 221.817 465.603 221.965 465.193 222.194C464.787 222.42 464.396 222.722 464.018 223.099L464.008 223.109C463.634 223.484 463.384 223.824 463.259 224.128C463.135 224.433 463.136 224.692 463.263 224.903C463.394 225.116 463.654 225.274 464.04 225.378ZM469.733 228.018L473.09 222.149L474.757 222.595L471.951 226.934L472.07 226.966L477.487 223.327L479.069 223.751L476.461 228.143L476.581 228.175L481.804 224.483L483.451 224.925L476.132 229.733L474.397 229.268L476.845 225.018L476.731 224.988L471.448 228.478L469.733 228.018Z" fill="#222222"/>
<path d="M439.721 222.287L476.711 232.198L475.911 232.999L438.921 223.087L439.721 222.287Z" fill="#222222"/>
<path d="M320.771 142.915C319.899 142.681 319.24 142.38 318.794 142.01C318.354 141.641 318.126 141.231 318.11 140.779C318.095 140.327 318.3 139.859 318.724 139.375L318.796 139.293L320.742 139.815L320.693 139.874C320.492 140.114 320.416 140.349 320.463 140.578C320.515 140.809 320.676 141.023 320.946 141.22C321.219 141.414 321.592 141.574 322.064 141.701C322.516 141.822 322.966 141.878 323.417 141.868C323.867 141.859 324.28 141.791 324.656 141.665C325.035 141.536 325.343 141.353 325.578 141.118L325.584 141.112C325.88 140.816 325.963 140.532 325.833 140.261C325.706 139.987 325.337 139.695 324.724 139.386L323.7 138.881C322.727 138.393 322.173 137.884 322.04 137.352C321.917 136.818 322.161 136.245 322.772 135.633L322.778 135.628C323.268 135.138 323.874 134.756 324.595 134.482C325.322 134.209 326.099 134.054 326.927 134.015C327.763 133.975 328.587 134.063 329.396 134.28C330.227 134.502 330.843 134.797 331.245 135.165C331.651 135.529 331.853 135.933 331.851 136.375C331.849 136.818 331.649 137.265 331.249 137.717L331.183 137.793L329.268 137.28L329.321 137.208C329.491 136.978 329.557 136.758 329.519 136.545C329.491 136.331 329.363 136.133 329.136 135.951C328.909 135.77 328.581 135.622 328.15 135.506C327.74 135.397 327.327 135.346 326.91 135.355C326.497 135.36 326.113 135.421 325.759 135.538C325.411 135.656 325.119 135.833 324.883 136.069L324.877 136.075C324.589 136.363 324.502 136.644 324.619 136.916C324.74 137.189 325.098 137.473 325.692 137.767L326.711 138.278C327.378 138.611 327.857 138.944 328.149 139.278C328.44 139.611 328.55 139.959 328.479 140.32C328.416 140.679 328.175 141.067 327.758 141.485L327.752 141.491C327.22 142.023 326.581 142.434 325.836 142.726C325.095 143.019 324.289 143.183 323.418 143.22C322.551 143.257 321.669 143.156 320.771 142.915ZM327.491 144.456L336.13 135.817L338.068 136.336L334.701 139.704L334.833 139.739C335.374 139.456 335.944 139.274 336.544 139.193C337.144 139.113 337.75 139.155 338.362 139.319C338.995 139.489 339.439 139.723 339.692 140.023C339.949 140.318 340.017 140.668 339.894 141.074C339.777 141.481 339.471 141.931 338.977 142.425L334.949 146.454L333.01 145.934L336.709 142.236C337.195 141.75 337.42 141.348 337.382 141.029C337.351 140.713 337.041 140.476 336.455 140.319C336.071 140.216 335.676 140.189 335.271 140.24C334.865 140.29 334.473 140.409 334.095 140.596C333.716 140.784 333.371 141.034 333.06 141.345L329.43 144.975L327.491 144.456ZM340.786 148.177C339.94 147.95 339.34 147.626 338.986 147.203C338.636 146.777 338.536 146.278 338.686 145.707C338.842 145.137 339.256 144.515 339.928 143.843L339.94 143.832C340.604 143.167 341.344 142.638 342.159 142.244C342.977 141.847 343.819 141.6 344.684 141.505C345.555 141.411 346.413 141.477 347.259 141.703C348.105 141.93 348.703 142.254 349.051 142.675C349.406 143.097 349.507 143.594 349.357 144.166C349.207 144.737 348.797 145.357 348.129 146.026L348.117 146.037C347.445 146.71 346.701 147.243 345.887 147.636C345.077 148.031 344.235 148.277 343.361 148.375C342.495 148.471 341.637 148.405 340.786 148.177ZM341.937 147.026C342.383 147.145 342.844 147.165 343.319 147.085C343.802 147.003 344.281 146.83 344.755 146.567C345.232 146.3 345.69 145.948 346.127 145.511L346.138 145.5C346.579 145.059 346.87 144.663 347.011 144.31C347.157 143.954 347.153 143.652 347 143.404C346.856 143.153 346.56 142.968 346.114 142.849C345.668 142.729 345.203 142.711 344.719 142.793C344.239 142.871 343.76 143.044 343.283 143.311C342.809 143.575 342.352 143.926 341.911 144.367L341.9 144.379C341.463 144.815 341.172 145.212 341.026 145.568C340.881 145.924 340.882 146.225 341.03 146.472C341.183 146.72 341.486 146.905 341.937 147.026ZM348.236 150.014L352.153 143.166L354.099 143.688L350.824 148.749L350.964 148.787L357.283 144.541L359.127 145.035L356.086 150.159L356.226 150.197L362.319 145.89L364.242 146.406L355.701 152.014L353.677 151.472L356.532 146.515L356.4 146.479L350.237 150.55L348.236 150.014ZM363.937 154.221L370.165 147.993L372.104 148.512L371.135 149.481L371.267 149.516C371.794 149.219 372.356 149.03 372.95 148.949C373.55 148.868 374.13 148.904 374.691 149.054C375.075 149.157 375.374 149.295 375.589 149.468C375.809 149.642 375.948 149.843 376.004 150.07C376.06 150.297 376.031 150.542 375.919 150.806L376.059 150.844C376.423 150.657 376.814 150.514 377.23 150.413C377.655 150.31 378.082 150.259 378.51 150.258C378.948 150.255 379.364 150.306 379.758 150.412C380.329 150.564 380.733 150.779 380.971 151.054C381.218 151.328 381.296 151.647 381.206 152.013C381.122 152.381 380.865 152.779 380.435 153.209L376.15 157.494L374.212 156.974L378.15 153.037C378.423 152.763 378.592 152.522 378.656 152.313C378.726 152.105 378.692 151.925 378.555 151.773C378.418 151.62 378.175 151.498 377.828 151.404C377.49 151.314 377.14 151.292 376.777 151.34C376.418 151.383 376.073 151.481 375.743 151.633C375.418 151.787 375.136 151.984 374.897 152.223L371.005 156.115L369.067 155.596L373.107 151.555C373.339 151.324 373.476 151.108 373.518 150.907C373.566 150.708 373.517 150.533 373.371 150.383C373.234 150.231 373.007 150.113 372.69 150.028C372.374 149.943 372.027 149.927 371.652 149.981C371.285 150.032 370.924 150.142 370.57 150.312C370.225 150.48 369.923 150.693 369.665 150.951L365.875 154.741L363.937 154.221ZM381.98 159.215C381.134 158.988 380.534 158.663 380.18 158.241C379.83 157.815 379.73 157.316 379.88 156.745C380.036 156.175 380.45 155.553 381.122 154.881L381.133 154.869C381.798 154.205 382.538 153.675 383.352 153.282C384.171 152.885 385.013 152.638 385.878 152.543C386.749 152.448 387.607 152.515 388.453 152.741C389.299 152.968 389.896 153.292 390.245 153.713C390.599 154.135 390.701 154.632 390.551 155.204C390.4 155.775 389.991 156.395 389.322 157.064L389.311 157.075C388.639 157.747 387.895 158.28 387.08 158.674C386.271 159.069 385.429 159.315 384.555 159.413C383.689 159.509 382.831 159.443 381.98 159.215ZM383.131 158.064C383.577 158.183 384.038 158.203 384.512 158.123C384.996 158.041 385.475 157.868 385.949 157.605C386.426 157.338 386.883 156.986 387.32 156.549L387.332 156.538C387.772 156.097 388.063 155.7 388.205 155.348C388.351 154.992 388.347 154.69 388.194 154.442C388.049 154.191 387.754 154.006 387.308 153.887C386.861 153.767 386.396 153.748 385.913 153.831C385.433 153.909 384.954 154.082 384.477 154.349C384.003 154.612 383.545 154.964 383.105 155.405L383.093 155.416C382.657 155.853 382.365 156.25 382.22 156.606C382.074 156.962 382.076 157.263 382.224 157.51C382.377 157.758 382.679 157.943 383.131 158.064ZM388.146 160.708L394.374 154.479L396.312 154.999L395.355 155.956L395.487 155.992C395.967 155.696 396.487 155.506 397.046 155.42C397.611 155.335 398.174 155.368 398.735 155.518C398.88 155.557 399.015 155.603 399.14 155.655C399.274 155.706 399.378 155.753 399.452 155.797L398.182 157.068C398.053 156.999 397.913 156.938 397.764 156.883C397.623 156.826 397.467 156.775 397.296 156.729C396.865 156.614 396.43 156.572 395.991 156.603C395.551 156.635 395.133 156.737 394.736 156.91C394.343 157.08 393.999 157.312 393.702 157.609L390.084 161.227L388.146 160.708ZM398.077 163.528C397.232 163.301 396.636 162.976 396.291 162.551C395.951 162.127 395.859 161.631 396.014 161.061C396.17 160.491 396.578 159.875 397.239 159.214L397.245 159.208C397.898 158.555 398.629 158.028 399.437 157.628C400.25 157.229 401.088 156.977 401.951 156.871C402.818 156.761 403.653 156.814 404.457 157.03C405.267 157.247 405.831 157.564 406.15 157.982C406.478 158.397 406.567 158.881 406.416 159.433C406.266 159.985 405.877 160.575 405.25 161.202L404.783 161.669L397.871 159.817L398.822 158.865L404.785 160.463L402.977 161.105L403.541 160.541C403.956 160.127 404.214 159.761 404.316 159.441C404.418 159.122 404.385 158.853 404.215 158.634C404.051 158.416 403.769 158.254 403.37 158.147C402.97 158.04 402.542 158.017 402.087 158.078C401.64 158.136 401.187 158.28 400.728 158.509C400.278 158.735 399.854 159.047 399.455 159.446L398.885 160.016C398.501 160.4 398.261 160.752 398.164 161.073C398.071 161.39 398.111 161.666 398.284 161.9C398.467 162.132 398.781 162.308 399.227 162.427C399.575 162.52 399.91 162.564 400.231 162.559C400.561 162.551 400.855 162.517 401.114 162.456C401.376 162.391 401.585 162.32 401.743 162.241L401.806 162.208L403.643 162.7L403.576 162.747C403.307 162.93 402.978 163.102 402.587 163.262C402.205 163.42 401.772 163.547 401.288 163.644C400.812 163.738 400.301 163.782 399.755 163.775C399.213 163.765 398.653 163.682 398.077 163.528Z" fill="#222222"/>
<mask id="mask0_102_382" style="mask-type:luminance" maskUnits="userSpaceOnUse" x="405" y="155" width="32" height="19">
<path d="M436.566 160.47L418.346 155.588L405.009 168.926L423.228 173.808L436.566 160.47Z" fill="white"/>
</mask>
<g mask="url(#mask0_102_382)">
<path d="M415.175 167.422L423.065 165.308L421.844 160.753" stroke="#222222" stroke-width="1.33333" stroke-linecap="round" stroke-linejoin="round"/>
</g>
<path d="M598.903 200.269L493.003 171.893C489.858 171.05 485.443 172.233 483.141 174.535L472.304 185.372C470.002 187.674 470.685 190.223 473.83 191.066L579.73 219.441C582.875 220.284 587.29 219.101 589.592 216.799L600.428 205.962C602.73 203.66 602.047 201.111 598.903 200.269Z" stroke="#222222" stroke-width="2"/>
<path d="M482.468 186.242C481.596 186.008 480.938 185.706 480.492 185.336C480.051 184.968 479.823 184.557 479.807 184.105C479.793 183.653 479.996 183.185 480.421 182.702L480.494 182.62L482.44 183.142L482.39 183.2C482.19 183.441 482.113 183.675 482.16 183.905C482.212 184.136 482.373 184.349 482.643 184.547C482.916 184.741 483.289 184.901 483.761 185.027C484.213 185.148 484.664 185.204 485.114 185.195C485.564 185.185 485.977 185.118 486.353 184.992C486.732 184.863 487.04 184.68 487.276 184.445L487.282 184.439C487.578 184.143 487.661 183.859 487.531 183.588C487.404 183.313 487.034 183.022 486.422 182.713L485.397 182.207C484.423 181.72 483.87 181.21 483.738 180.679C483.613 180.144 483.857 179.571 484.469 178.96L484.474 178.954C484.965 178.464 485.57 178.082 486.292 177.808C487.019 177.536 487.795 177.38 488.624 177.342C489.461 177.301 490.284 177.389 491.094 177.606C491.924 177.829 492.54 178.124 492.941 178.492C493.348 178.856 493.55 179.259 493.548 179.702C493.545 180.144 493.345 180.592 492.947 181.044L492.881 181.12L490.965 180.607L491.018 180.534C491.188 180.305 491.254 180.084 491.216 179.872C491.187 179.657 491.06 179.459 490.833 179.278C490.607 179.097 490.277 178.948 489.847 178.833C489.437 178.723 489.024 178.673 488.607 178.681C488.194 178.686 487.81 178.747 487.456 178.864C487.108 178.983 486.816 179.16 486.58 179.396L486.574 179.401C486.286 179.69 486.199 179.97 486.315 180.242C486.437 180.516 486.795 180.799 487.389 181.093L488.408 181.605C489.075 181.938 489.554 182.271 489.845 182.604C490.137 182.938 490.247 183.285 490.176 183.647C490.113 184.005 489.872 184.394 489.454 184.812L489.449 184.817C488.917 185.349 488.278 185.761 487.533 186.053C486.793 186.345 485.986 186.51 485.115 186.546C484.248 186.584 483.366 186.482 482.468 186.242ZM489.188 187.782L497.827 179.143L499.765 179.663L496.397 183.03L496.531 183.066C497.07 182.782 497.641 182.6 498.24 182.52C498.84 182.44 499.447 182.482 500.059 182.646C500.692 182.816 501.135 183.05 501.389 183.349C501.647 183.645 501.714 183.995 501.591 184.4C501.474 184.807 501.168 185.258 500.674 185.752L496.646 189.78L494.708 189.261L498.406 185.563C498.892 185.076 499.117 184.674 499.08 184.356C499.047 184.039 498.738 183.802 498.152 183.645C497.768 183.542 497.373 183.516 496.968 183.566C496.562 183.616 496.17 183.735 495.792 183.923C495.414 184.111 495.068 184.36 494.756 184.672L491.126 188.301L489.188 187.782ZM502.483 191.503C501.638 191.277 501.037 190.952 500.684 190.53C500.333 190.104 500.233 189.605 500.383 189.033C500.539 188.463 500.953 187.842 501.626 187.17L501.637 187.158C502.302 186.493 503.042 185.964 503.855 185.571C504.674 185.174 505.516 184.927 506.382 184.832C507.252 184.737 508.111 184.803 508.956 185.03C509.802 185.257 510.399 185.58 510.748 186.001C511.102 186.424 511.204 186.921 511.054 187.492C510.903 188.064 510.494 188.684 509.825 189.352L509.814 189.364C509.142 190.036 508.398 190.569 507.584 190.963C506.775 191.358 505.932 191.604 505.058 191.702C504.192 191.798 503.334 191.731 502.483 191.503ZM503.634 190.352C504.08 190.472 504.541 190.492 505.015 190.412C505.499 190.329 505.978 190.157 506.452 189.893C506.929 189.626 507.387 189.275 507.824 188.838L507.835 188.826C508.276 188.386 508.567 187.989 508.708 187.637C508.853 187.281 508.85 186.979 508.696 186.731C508.553 186.48 508.257 186.295 507.811 186.175C507.365 186.056 506.9 186.037 506.417 186.12C505.937 186.198 505.458 186.371 504.98 186.638C504.506 186.901 504.049 187.253 503.608 187.694L503.597 187.705C503.16 188.142 502.869 188.538 502.723 188.894C502.578 189.251 502.579 189.552 502.727 189.799C502.881 190.047 503.183 190.231 503.634 190.352ZM509.933 193.341L513.85 186.493L515.796 187.014L512.521 192.076L512.661 192.113L518.98 187.867L520.825 188.362L517.783 193.486L517.923 193.523L524.016 189.217L525.939 189.732L517.399 195.341L515.374 194.799L518.229 189.841L518.097 189.806L511.934 193.877L509.933 193.341ZM525.634 197.548L531.862 191.319L533.8 191.839L532.832 192.807L532.965 192.843C533.492 192.546 534.052 192.356 534.647 192.275C535.247 192.195 535.827 192.23 536.387 192.38C536.772 192.483 537.072 192.621 537.286 192.794C537.507 192.969 537.645 193.17 537.701 193.397C537.757 193.624 537.728 193.869 537.616 194.133L537.756 194.17C538.121 193.984 538.511 193.84 538.926 193.74C539.352 193.637 539.78 193.585 540.208 193.584C540.646 193.581 541.061 193.632 541.455 193.738C542.026 193.891 542.43 194.105 542.668 194.381C542.915 194.654 542.993 194.974 542.904 195.34C542.819 195.707 542.562 196.106 542.133 196.535L537.848 200.82L535.91 200.301L539.847 196.363C540.121 196.09 540.289 195.848 540.353 195.639C540.423 195.431 540.389 195.251 540.252 195.099C540.115 194.947 539.872 194.824 539.525 194.731C539.188 194.641 538.837 194.619 538.475 194.666C538.115 194.71 537.77 194.807 537.44 194.96C537.115 195.114 536.833 195.31 536.594 195.55L532.702 199.442L530.764 198.922L534.804 194.882C535.036 194.65 535.172 194.434 535.216 194.234C535.263 194.034 535.214 193.86 535.068 193.71C534.931 193.558 534.703 193.439 534.387 193.354C534.07 193.269 533.725 193.254 533.348 193.307C532.982 193.358 532.621 193.469 532.267 193.639C531.922 193.806 531.62 194.019 531.361 194.278L527.572 198.067L525.634 197.548ZM543.677 202.541C542.831 202.314 542.231 201.99 541.877 201.567C541.527 201.142 541.427 200.643 541.577 200.071C541.733 199.501 542.147 198.88 542.82 198.208L542.831 198.196C543.496 197.531 544.235 197.002 545.05 196.609C545.868 196.211 546.71 195.965 547.575 195.869C548.446 195.775 549.304 195.841 550.15 196.068C550.996 196.295 551.593 196.618 551.942 197.039C552.296 197.462 552.398 197.959 552.247 198.53C552.097 199.102 551.688 199.722 551.019 200.39L551.008 200.402C550.336 201.074 549.592 201.607 548.777 202C547.968 202.395 547.126 202.642 546.252 202.74C545.386 202.835 544.528 202.769 543.677 202.541ZM544.828 201.39C545.274 201.51 545.735 201.53 546.209 201.45C546.693 201.367 547.172 201.194 547.646 200.931C548.123 200.664 548.581 200.312 549.018 199.876L549.029 199.864C549.47 199.423 549.761 199.027 549.902 198.675C550.047 198.319 550.044 198.017 549.89 197.768C549.747 197.518 549.451 197.333 549.005 197.213C548.558 197.094 548.093 197.075 547.609 197.157C547.13 197.236 546.651 197.409 546.174 197.676C545.7 197.939 545.243 198.291 544.802 198.732L544.791 198.743C544.354 199.18 544.063 199.576 543.918 199.932C543.771 200.288 543.773 200.59 543.92 200.836C544.074 201.084 544.377 201.269 544.828 201.39ZM549.843 204.034L556.071 197.806L558.009 198.325L557.052 199.283L557.184 199.318C557.664 199.023 558.184 198.832 558.744 198.746C559.309 198.662 559.871 198.694 560.431 198.844C560.577 198.883 560.712 198.929 560.837 198.982C560.971 199.032 561.075 199.08 561.15 199.124L559.879 200.394C559.75 200.326 559.61 200.264 559.461 200.21C559.32 200.153 559.164 200.102 558.993 200.056C558.563 199.94 558.127 199.898 557.688 199.93C557.248 199.961 556.83 200.064 556.433 200.237C556.041 200.406 555.696 200.639 555.399 200.935L551.781 204.554L549.843 204.034ZM559.775 206.855C558.928 206.628 558.333 206.302 557.988 205.877C557.648 205.454 557.556 204.957 557.711 204.387C557.867 203.817 558.276 203.202 558.937 202.541L558.943 202.535C559.596 201.882 560.326 201.355 561.134 200.954C561.948 200.556 562.785 200.304 563.648 200.198C564.514 200.088 565.351 200.141 566.155 200.356C566.964 200.573 567.529 200.891 567.848 201.308C568.176 201.724 568.264 202.207 568.113 202.76C567.962 203.312 567.574 203.901 566.947 204.528L566.479 204.995L559.567 203.143L560.519 202.191L566.481 203.789L564.675 204.432L565.239 203.868C565.653 203.454 565.911 203.087 566.013 202.768C566.116 202.448 566.082 202.179 565.912 201.96C565.748 201.743 565.466 201.581 565.066 201.474C564.668 201.367 564.239 201.343 563.784 201.404C563.337 201.463 562.884 201.607 562.425 201.835C561.975 202.061 561.551 202.374 561.152 202.773L560.582 203.343C560.198 203.726 559.958 204.078 559.86 204.399C559.767 204.716 559.808 204.992 559.982 205.227C560.164 205.459 560.478 205.634 560.924 205.754C561.272 205.847 561.606 205.891 561.928 205.885C562.259 205.878 562.553 205.843 562.81 205.782C563.073 205.718 563.283 205.646 563.439 205.568L563.503 205.534L565.34 206.027L565.274 206.074C565.004 206.257 564.675 206.429 564.284 206.589C563.902 206.747 563.47 206.874 562.985 206.971C562.509 207.065 561.998 207.108 561.452 207.102C560.91 207.091 560.351 207.009 559.775 206.855Z" fill="#222222"/>
<mask id="mask1_102_382" style="mask-type:luminance" maskUnits="userSpaceOnUse" x="566" y="198" width="33" height="20">
<path d="M598.263 203.797L580.043 198.915L566.706 212.252L584.925 217.134L598.263 203.797Z" fill="white"/>
</mask>
<g mask="url(#mask1_102_382)">
<path d="M576.873 210.748L584.762 208.635L583.541 204.08" stroke="#222222" stroke-width="1.33333" stroke-linecap="round" stroke-linejoin="round"/>
</g>
<path d="M359.069 105.614C358.005 105.329 357.261 104.908 356.838 104.351C356.419 103.796 356.321 103.141 356.542 102.386C356.773 101.629 357.331 100.808 358.216 99.923L358.227 99.9117C359.116 99.0226 360.089 98.3129 361.147 97.782C362.213 97.2488 363.305 96.9104 364.422 96.7667C365.54 96.623 366.63 96.6937 367.694 96.9787C368.545 97.2068 369.19 97.536 369.628 97.9665C370.07 98.3932 370.29 98.8808 370.287 99.4293C370.289 99.9739 370.054 100.537 369.584 101.119L369.531 101.163L367.569 100.637L367.59 100.607C367.819 100.259 367.924 99.9304 367.904 99.6215C367.887 99.3089 367.754 99.0346 367.503 98.7988C367.255 98.5591 366.896 98.376 366.423 98.2495C365.79 98.0798 365.117 98.0559 364.403 98.1777C363.689 98.2995 362.977 98.5542 362.267 98.9419C361.565 99.3273 360.903 99.8314 360.28 100.454L360.269 100.466C359.646 101.089 359.231 101.662 359.024 102.184C358.823 102.708 358.832 103.156 359.052 103.528C359.272 103.901 359.701 104.172 360.34 104.343C360.817 104.471 361.306 104.525 361.806 104.505C362.312 104.486 362.802 104.401 363.277 104.249C363.76 104.094 364.199 103.879 364.592 103.604L364.642 103.574L366.604 104.1L366.558 104.145C365.912 104.666 365.172 105.074 364.336 105.371C363.5 105.667 362.629 105.84 361.723 105.891C360.82 105.939 359.936 105.846 359.069 105.614ZM366.14 107.248L374.778 98.6096L376.717 99.129L368.078 107.768L366.14 107.248ZM374.032 109.522C373.186 109.295 372.591 108.97 372.246 108.545C371.906 108.121 371.814 107.625 371.969 107.055C372.125 106.485 372.533 105.869 373.194 105.208L373.2 105.202C373.853 104.549 374.584 104.022 375.392 103.622C376.205 103.223 377.043 102.971 377.906 102.865C378.772 102.755 379.608 102.808 380.412 103.024C381.221 103.241 381.786 103.558 382.105 103.976C382.433 104.391 382.522 104.875 382.371 105.427C382.22 105.979 381.832 106.569 381.205 107.196L380.737 107.663L373.825 105.811L374.777 104.859L380.739 106.457L378.932 107.1L379.496 106.535C379.91 106.121 380.168 105.755 380.271 105.435C380.373 105.116 380.339 104.847 380.17 104.628C380.006 104.41 379.724 104.248 379.324 104.141C378.925 104.034 378.497 104.011 378.041 104.072C377.594 104.13 377.142 104.274 376.683 104.503C376.233 104.729 375.808 105.041 375.409 105.44L374.84 106.01C374.456 106.394 374.216 106.746 374.118 107.067C374.025 107.384 374.065 107.66 374.239 107.894C374.421 108.126 374.736 108.302 375.182 108.421C375.53 108.515 375.864 108.558 376.186 108.553C376.516 108.545 376.81 108.511 377.068 108.45C377.33 108.385 377.54 108.314 377.697 108.235L377.76 108.202L379.598 108.694L379.531 108.741C379.262 108.924 378.932 109.096 378.542 109.257C378.16 109.414 377.727 109.542 377.242 109.638C376.766 109.732 376.256 109.776 375.71 109.769C375.167 109.759 374.608 109.676 374.032 109.522ZM382.135 111.664C381.6 111.521 381.196 111.316 380.923 111.05C380.654 110.786 380.537 110.482 380.57 110.14C380.613 109.795 380.824 109.432 381.204 109.052L381.215 109.041C381.583 108.672 382.025 108.388 382.54 108.189C383.059 107.986 383.636 107.873 384.27 107.851C384.905 107.828 385.581 107.896 386.298 108.054L389.585 108.755L388.65 109.689L385.641 109.056C385.073 108.933 384.588 108.909 384.184 108.984C383.78 109.058 383.449 109.225 383.191 109.483L383.179 109.495C382.913 109.761 382.844 110.005 382.971 110.226C383.103 110.45 383.384 110.619 383.815 110.734C384.204 110.839 384.609 110.875 385.029 110.843C385.449 110.811 385.844 110.722 386.214 110.575C386.588 110.425 386.899 110.227 387.146 109.98L389.117 108.008C389.429 107.696 389.531 107.423 389.425 107.187C389.322 106.948 389.006 106.757 388.477 106.615C388.036 106.497 387.618 106.457 387.224 106.496C386.834 106.531 386.486 106.638 386.183 106.817L386.152 106.838L384.323 106.348L384.382 106.298C384.794 105.966 385.286 105.71 385.86 105.531C386.433 105.352 387.049 105.26 387.707 105.253C388.365 105.246 389.029 105.333 389.698 105.512C390.435 105.709 390.975 105.96 391.316 106.263C391.661 106.563 391.808 106.906 391.758 107.292C391.711 107.675 391.469 108.084 391.032 108.521L386.776 112.778L384.861 112.265L385.715 111.41L385.583 111.374C385.23 111.53 384.856 111.647 384.463 111.725C384.075 111.804 383.684 111.839 383.292 111.83C382.899 111.821 382.514 111.766 382.135 111.664ZM389.103 113.401L395.331 107.173L397.27 107.692L396.312 108.65L396.445 108.685C396.985 108.401 397.555 108.219 398.155 108.139C398.755 108.059 399.361 108.101 399.974 108.265C400.923 108.52 401.448 108.916 401.549 109.453C401.65 109.991 401.33 110.63 400.589 111.371L396.56 115.4L394.622 114.88L398.32 111.182C398.806 110.696 399.031 110.293 398.994 109.975C398.962 109.658 398.653 109.421 398.066 109.264C397.682 109.161 397.288 109.135 396.882 109.185C396.476 109.236 396.084 109.355 395.706 109.542C395.328 109.73 394.983 109.979 394.671 110.291L391.041 113.921L389.103 113.401ZM398.872 116.019L405.1 109.791L407.031 110.308L400.803 116.536L398.872 116.019ZM407.116 109.009C406.8 108.924 406.609 108.769 406.544 108.545C406.479 108.32 406.56 108.094 406.788 107.866C407.024 107.63 407.336 107.463 407.724 107.365C408.115 107.263 408.469 107.254 408.786 107.339C409.102 107.424 409.291 107.578 409.35 107.801C409.419 108.022 409.336 108.25 409.1 108.485C408.872 108.713 408.563 108.878 408.171 108.98C407.784 109.084 407.433 109.093 407.116 109.009ZM403.192 117.177L409.421 110.948L411.359 111.468L410.401 112.425L410.534 112.46C411.074 112.177 411.645 111.995 412.245 111.914C412.844 111.834 413.451 111.876 414.063 112.04C415.013 112.295 415.538 112.691 415.638 113.228C415.739 113.766 415.419 114.405 414.678 115.146L410.65 119.175L408.711 118.655L412.41 114.957C412.896 114.471 413.12 114.069 413.083 113.75C413.051 113.434 412.742 113.197 412.156 113.04C411.772 112.937 411.377 112.91 410.971 112.961C410.566 113.011 410.174 113.13 409.795 113.317C409.417 113.505 409.072 113.755 408.76 114.066L405.131 117.696L403.192 117.177ZM414.408 122.956C413.661 122.756 413.087 122.511 412.687 122.221C412.291 121.932 412.071 121.612 412.025 121.263C411.976 120.918 412.093 120.561 412.375 120.193L412.4 120.178L414.33 120.696L414.329 120.717C414.193 120.931 414.221 121.143 414.413 121.354C414.605 121.569 414.971 121.749 415.511 121.893C416.175 122.071 416.797 122.101 417.377 121.982C417.962 121.864 418.454 121.606 418.853 121.207L420.049 120.01L419.917 119.974C419.532 120.156 419.132 120.289 418.717 120.375C418.307 120.463 417.896 120.502 417.484 120.493C417.081 120.481 416.682 120.423 416.288 120.317C415.572 120.125 415.077 119.834 414.804 119.442C414.534 119.048 414.481 118.588 414.643 118.063C414.811 117.54 415.19 116.983 415.779 116.395L415.79 116.383C416.39 115.783 417.061 115.293 417.802 114.914C418.544 114.534 419.306 114.286 420.088 114.168C420.876 114.051 421.635 114.091 422.367 114.287C422.761 114.393 423.077 114.535 423.312 114.714C423.553 114.894 423.715 115.101 423.797 115.335C423.884 115.57 423.89 115.827 423.815 116.106L423.916 116.133L424.942 115.107L426.881 115.627L420.806 121.701C420.327 122.18 419.747 122.549 419.066 122.81C418.385 123.076 417.647 123.222 416.85 123.249C416.052 123.277 415.239 123.179 414.408 122.956ZM418.016 119.349C418.462 119.469 418.924 119.494 419.401 119.424C419.882 119.351 420.347 119.199 420.796 118.967C421.25 118.737 421.661 118.438 422.029 118.069L422.041 118.058C422.409 117.69 422.644 117.343 422.745 117.018C422.855 116.691 422.827 116.407 422.661 116.165C422.498 115.919 422.194 115.736 421.748 115.617C421.297 115.496 420.833 115.473 420.357 115.548C419.889 115.62 419.432 115.774 418.985 116.011C418.547 116.245 418.144 116.547 417.775 116.915L417.764 116.926C417.399 117.291 417.157 117.636 417.036 117.96C416.925 118.282 416.945 118.564 417.097 118.807C417.258 119.048 417.564 119.228 418.016 119.349ZM427.899 123.797L433.028 118.668L431.634 118.295L432.734 117.195L434.128 117.568L434.743 116.953C435.161 116.535 435.603 116.215 436.068 115.993C436.539 115.772 437.046 115.651 437.589 115.627C438.135 115.6 438.723 115.671 439.351 115.839C439.558 115.895 439.744 115.952 439.909 116.011C440.078 116.066 440.228 116.123 440.36 116.182L439.369 117.174C439.303 117.147 439.216 117.116 439.105 117.081C438.999 117.043 438.878 117.006 438.743 116.97C438.286 116.848 437.884 116.839 437.536 116.943C437.193 117.043 436.871 117.244 436.57 117.544L436.035 118.079L437.88 118.574L436.78 119.674L434.966 119.188L429.837 124.316L427.899 123.797ZM436.726 126.321C435.88 126.094 435.284 125.768 434.939 125.344C434.599 124.92 434.507 124.423 434.663 123.853C434.818 123.283 435.227 122.668 435.888 122.007L435.893 122.001C436.547 121.348 437.277 120.821 438.086 120.421C438.899 120.022 439.737 119.77 440.599 119.664C441.466 119.554 442.301 119.607 443.106 119.822C443.915 120.039 444.48 120.357 444.799 120.775C445.127 121.19 445.215 121.674 445.065 122.226C444.914 122.778 444.525 123.367 443.898 123.994L443.431 124.461L436.519 122.609L437.47 121.658L443.433 123.255L441.626 123.898L442.19 123.334C442.604 122.92 442.862 122.553 442.964 122.234C443.066 121.914 443.033 121.645 442.863 121.427C442.699 121.209 442.417 121.047 442.018 120.94C441.618 120.833 441.191 120.81 440.735 120.871C440.288 120.929 439.835 121.073 439.376 121.301C438.926 121.528 438.502 121.84 438.103 122.239L437.533 122.809C437.149 123.193 436.909 123.545 436.812 123.866C436.719 124.183 436.759 124.458 436.932 124.693C437.115 124.925 437.429 125.1 437.876 125.22C438.223 125.313 438.558 125.357 438.879 125.352C439.209 125.344 439.504 125.309 439.762 125.249C440.024 125.184 440.234 125.112 440.391 125.034L440.454 125.001L442.291 125.493L442.224 125.54C441.956 125.723 441.626 125.895 441.235 126.055C440.854 126.213 440.421 126.34 439.936 126.437C439.46 126.531 438.949 126.575 438.403 126.568C437.861 126.558 437.302 126.475 436.726 126.321ZM446.129 128.84C445.283 128.614 444.687 128.288 444.343 127.863C444.003 127.44 443.911 126.943 444.066 126.373C444.222 125.803 444.63 125.187 445.291 124.526L445.297 124.521C445.95 123.867 446.681 123.34 447.489 122.94C448.302 122.542 449.14 122.289 450.003 122.183C450.869 122.074 451.705 122.126 452.509 122.342C453.318 122.559 453.883 122.876 454.202 123.294C454.53 123.71 454.619 124.193 454.468 124.745C454.317 125.298 453.928 125.887 453.302 126.514L452.834 126.981L445.922 125.129L446.874 124.177L452.836 125.775L451.029 126.418L451.593 125.854C452.007 125.44 452.265 125.073 452.367 124.753C452.47 124.434 452.436 124.165 452.267 123.946C452.103 123.729 451.821 123.567 451.421 123.459C451.021 123.352 450.594 123.329 450.138 123.39C449.691 123.449 449.239 123.592 448.78 123.821C448.33 124.047 447.905 124.36 447.506 124.759L446.937 125.328C446.553 125.712 446.312 126.064 446.215 126.385C446.122 126.702 446.162 126.978 446.336 127.212C446.518 127.444 446.833 127.62 447.279 127.74C447.627 127.833 447.961 127.877 448.282 127.871C448.613 127.863 448.907 127.829 449.165 127.768C449.427 127.704 449.637 127.632 449.794 127.554L449.857 127.52L451.694 128.012L451.628 128.06C451.359 128.243 451.029 128.415 450.638 128.575C450.257 128.733 449.824 128.86 449.339 128.956C448.863 129.05 448.352 129.094 447.806 129.088C447.264 129.077 446.705 128.995 446.129 128.84Z" fill="#222222"/>
<path d="M623.889 159.401L530.514 134.381C527.37 133.539 522.955 134.722 520.653 137.024L509.816 147.86C507.514 150.162 508.197 152.711 511.342 153.554L604.716 178.573C607.86 179.416 612.276 178.233 614.578 175.931L625.414 165.094C627.716 162.792 627.033 160.243 623.889 159.401Z" stroke="#222222" stroke-width="2"/>
<path d="M520.766 148.94C519.702 148.655 518.958 148.235 518.534 147.678C518.117 147.123 518.018 146.468 518.24 145.713C518.47 144.956 519.028 144.135 519.913 143.25L519.925 143.238C520.814 142.349 521.786 141.639 522.844 141.109C523.91 140.576 525.002 140.237 526.119 140.093C527.237 139.95 528.327 140.02 529.391 140.305C530.243 140.533 530.887 140.863 531.325 141.293C531.767 141.72 531.986 142.207 531.984 142.756C531.986 143.301 531.751 143.864 531.281 144.446L531.228 144.489L529.266 143.964L529.287 143.933C529.517 143.586 529.621 143.257 529.601 142.948C529.585 142.635 529.45 142.361 529.2 142.125C528.953 141.886 528.593 141.703 528.12 141.576C527.487 141.406 526.814 141.382 526.1 141.504C525.386 141.626 524.674 141.881 523.964 142.269C523.262 142.654 522.601 143.158 521.978 143.781L521.966 143.793C521.343 144.416 520.928 144.988 520.722 145.511C520.52 146.035 520.529 146.483 520.749 146.855C520.969 147.227 521.398 147.499 522.037 147.67C522.514 147.798 523.003 147.852 523.504 147.832C524.009 147.813 524.499 147.727 524.974 147.575C525.458 147.421 525.896 147.206 526.29 146.931L526.339 146.901L528.301 147.426L528.255 147.472C527.609 147.992 526.869 148.401 526.034 148.697C525.197 148.994 524.326 149.167 523.419 149.218C522.517 149.265 521.632 149.173 520.766 148.94ZM527.836 150.575L536.475 141.936L538.413 142.455L529.774 151.094L527.836 150.575ZM535.729 152.849C534.884 152.622 534.287 152.296 533.942 151.871C533.603 151.448 533.511 150.951 533.667 150.381C533.822 149.811 534.23 149.196 534.891 148.535L534.897 148.529C535.55 147.876 536.281 147.349 537.089 146.949C537.902 146.55 538.741 146.298 539.603 146.192C540.47 146.082 541.305 146.135 542.109 146.35C542.918 146.567 543.483 146.885 543.802 147.302C544.13 147.718 544.219 148.202 544.068 148.754C543.918 149.306 543.529 149.895 542.902 150.522L542.435 150.989L535.522 149.137L536.473 148.185L542.437 149.783L540.629 150.426L541.193 149.862C541.607 149.448 541.865 149.081 541.968 148.762C542.07 148.442 542.037 148.173 541.867 147.955C541.702 147.737 541.421 147.575 541.021 147.468C540.622 147.361 540.194 147.338 539.738 147.398C539.291 147.457 538.838 147.601 538.38 147.829C537.93 148.056 537.505 148.368 537.106 148.767L536.536 149.337C536.153 149.72 535.913 150.073 535.816 150.394C535.723 150.711 535.762 150.986 535.936 151.221C536.118 151.453 536.433 151.628 536.88 151.748C537.227 151.841 537.561 151.885 537.883 151.88C538.213 151.872 538.507 151.837 538.766 151.777C539.027 151.712 539.237 151.64 539.395 151.562L539.457 151.528L541.295 152.021L541.228 152.068C540.959 152.251 540.629 152.423 540.239 152.583C539.857 152.741 539.424 152.868 538.939 152.965C538.464 153.059 537.952 153.102 537.406 153.096C536.865 153.086 536.305 153.003 535.729 152.849ZM543.832 154.991C543.298 154.848 542.893 154.643 542.619 154.377C542.351 154.112 542.234 153.809 542.267 153.466C542.31 153.121 542.521 152.759 542.901 152.379L542.912 152.367C543.281 151.999 543.722 151.715 544.237 151.516C544.756 151.313 545.333 151.2 545.968 151.177C546.602 151.155 547.278 151.223 547.995 151.381L551.282 152.081L550.348 153.016L547.338 152.383C546.771 152.26 546.284 152.235 545.881 152.31C545.477 152.385 545.146 152.552 544.888 152.81L544.876 152.821C544.61 153.087 544.541 153.331 544.668 153.553C544.8 153.776 545.081 153.946 545.512 154.061C545.901 154.165 546.306 154.202 546.726 154.17C547.145 154.138 547.541 154.048 547.911 153.902C548.285 153.752 548.596 153.553 548.843 153.306L550.815 151.335C551.126 151.023 551.228 150.749 551.122 150.514C551.019 150.274 550.703 150.084 550.174 149.942C549.733 149.824 549.315 149.784 548.92 149.823C548.53 149.858 548.184 149.965 547.879 150.143L547.85 150.164L546.02 149.674L546.079 149.625C546.491 149.292 546.984 149.036 547.557 148.858C548.131 148.679 548.746 148.586 549.404 148.58C550.062 148.573 550.726 148.659 551.396 148.839C552.133 149.036 552.672 149.287 553.013 149.59C553.358 149.89 553.505 150.232 553.455 150.619C553.408 151.001 553.166 151.411 552.729 151.848L548.472 156.104L546.558 155.591L547.413 154.737L547.281 154.701C546.927 154.857 546.553 154.974 546.16 155.051C545.772 155.13 545.381 155.165 544.989 155.156C544.596 155.148 544.211 155.092 543.832 154.991ZM550.8 156.728L557.028 150.5L558.966 151.019L558.009 151.976L558.142 152.012C558.682 151.728 559.252 151.546 559.852 151.466C560.452 151.386 561.058 151.428 561.671 151.592C562.62 151.846 563.145 152.242 563.246 152.78C563.347 153.317 563.027 153.956 562.286 154.697L558.257 158.726L556.319 158.207L560.017 154.509C560.504 154.022 560.728 153.62 560.691 153.302C560.659 152.985 560.35 152.748 559.763 152.591C559.38 152.488 558.984 152.462 558.579 152.512C558.173 152.562 557.782 152.681 557.403 152.869C557.025 153.056 556.679 153.306 556.368 153.617L552.738 157.247L550.8 156.728ZM560.569 159.345L566.797 153.117L568.728 153.635L562.5 159.863L560.569 159.345ZM568.813 152.335C568.497 152.25 568.306 152.096 568.241 151.871C568.176 151.647 568.257 151.42 568.485 151.192C568.721 150.957 569.033 150.79 569.42 150.692C569.813 150.589 570.166 150.581 570.483 150.666C570.8 150.75 570.988 150.904 571.048 151.128C571.116 151.348 571.033 151.576 570.798 151.812C570.57 152.04 570.259 152.205 569.868 152.307C569.481 152.411 569.13 152.42 568.813 152.335ZM564.889 160.503L571.117 154.275L573.056 154.794L572.099 155.752L572.231 155.787C572.771 155.503 573.341 155.321 573.941 155.241C574.541 155.161 575.147 155.203 575.76 155.367C576.71 155.621 577.235 156.017 577.335 156.555C577.436 157.093 577.116 157.732 576.375 158.473L572.346 162.501L570.408 161.982L574.106 158.284C574.593 157.797 574.817 157.395 574.78 157.077C574.748 156.76 574.439 156.523 573.853 156.366C573.469 156.263 573.074 156.237 572.668 156.287C572.263 156.337 571.871 156.456 571.493 156.644C571.114 156.832 570.77 157.081 570.458 157.393L566.828 161.023L564.889 160.503ZM576.106 166.283C575.359 166.083 574.784 165.837 574.384 165.547C573.989 165.258 573.768 164.939 573.723 164.59C573.673 164.244 573.79 163.888 574.072 163.52L574.096 163.505L576.027 164.022L576.025 164.043C575.89 164.258 575.918 164.47 576.109 164.68C576.302 164.896 576.668 165.075 577.208 165.22C577.873 165.398 578.494 165.428 579.074 165.308C579.659 165.19 580.151 164.932 580.55 164.533L581.746 163.337L581.614 163.301C581.23 163.482 580.829 163.616 580.414 163.702C580.004 163.79 579.592 163.829 579.181 163.82C578.778 163.808 578.379 163.749 577.985 163.644C577.269 163.452 576.774 163.16 576.501 162.769C576.23 162.374 576.178 161.914 576.34 161.389C576.508 160.866 576.887 160.31 577.476 159.721L577.487 159.71C578.087 159.109 578.758 158.62 579.499 158.24C580.241 157.861 581.002 157.612 581.786 157.495C582.572 157.378 583.332 157.418 584.064 157.614C584.458 157.719 584.774 157.862 585.009 158.04C585.251 158.221 585.412 158.428 585.494 158.662C585.581 158.897 585.587 159.154 585.512 159.432L585.613 159.459L586.639 158.434L588.577 158.953L582.503 165.028C582.024 165.506 581.445 165.876 580.763 166.137C580.083 166.402 579.344 166.549 578.546 166.576C577.749 166.603 576.936 166.506 576.106 166.283ZM579.713 162.676C580.159 162.796 580.621 162.821 581.099 162.751C581.579 162.678 582.045 162.525 582.493 162.294C582.947 162.064 583.357 161.764 583.726 161.396L583.737 161.385C584.106 161.016 584.341 160.67 584.442 160.345C584.552 160.018 584.524 159.733 584.358 159.492C584.196 159.246 583.892 159.063 583.445 158.944C582.993 158.822 582.53 158.799 582.053 158.874C581.587 158.947 581.129 159.101 580.682 159.338C580.244 159.572 579.84 159.873 579.472 160.242L579.46 160.253C579.096 160.618 578.854 160.962 578.733 161.286C578.622 161.608 578.643 161.891 578.794 162.134C578.955 162.374 579.261 162.555 579.713 162.676ZM589.597 167.124L594.725 161.995L593.331 161.622L594.431 160.522L595.825 160.895L596.44 160.28C596.858 159.862 597.3 159.542 597.766 159.32C598.236 159.099 598.742 158.977 599.285 158.954C599.832 158.927 600.42 158.998 601.048 159.166C601.255 159.222 601.441 159.279 601.606 159.337C601.775 159.392 601.926 159.449 602.057 159.509L601.065 160.5C601 160.473 600.912 160.442 600.802 160.408C600.696 160.37 600.575 160.333 600.44 160.297C599.984 160.174 599.581 160.165 599.233 160.269C598.89 160.37 598.567 160.57 598.267 160.87L597.731 161.406L599.577 161.901L598.477 163L596.663 162.514L591.535 167.643L589.597 167.124ZM598.423 169.647C597.577 169.421 596.981 169.095 596.636 168.67C596.296 168.247 596.204 167.75 596.359 167.18C596.515 166.61 596.924 165.994 597.585 165.333L597.591 165.328C598.244 164.674 598.975 164.148 599.782 163.747C600.596 163.349 601.433 163.096 602.296 162.99C603.162 162.88 603.999 162.934 604.803 163.149C605.612 163.366 606.177 163.683 606.496 164.101C606.824 164.517 606.912 165 606.761 165.552C606.61 166.104 606.222 166.694 605.595 167.321L605.128 167.788L598.216 165.936L599.167 164.984L605.13 166.582L603.323 167.225L603.887 166.661C604.301 166.247 604.559 165.88 604.661 165.56C604.764 165.241 604.73 164.972 604.56 164.753C604.396 164.536 604.114 164.373 603.714 164.266C603.316 164.16 602.887 164.136 602.432 164.197C601.985 164.256 601.532 164.399 601.073 164.628C600.623 164.854 600.199 165.167 599.8 165.566L599.23 166.135C598.847 166.519 598.606 166.871 598.509 167.192C598.415 167.509 598.456 167.785 598.63 168.019C598.812 168.251 599.126 168.427 599.573 168.547C599.921 168.64 600.255 168.684 600.576 168.678C600.907 168.671 601.201 168.636 601.459 168.575C601.721 168.51 601.931 168.439 602.087 168.361L602.151 168.327L603.988 168.819L603.922 168.867C603.652 169.05 603.323 169.222 602.932 169.382C602.55 169.54 602.118 169.667 601.633 169.763C601.157 169.857 600.646 169.901 600.1 169.895C599.558 169.884 598.999 169.802 598.423 169.647ZM607.826 172.167C606.98 171.94 606.385 171.615 606.04 171.19C605.7 170.766 605.607 170.27 605.763 169.7C605.919 169.129 606.326 168.514 606.987 167.853L606.993 167.847C607.646 167.194 608.378 166.667 609.185 166.267C609.999 165.868 610.837 165.616 611.7 165.51C612.566 165.4 613.401 165.453 614.206 165.669C615.016 165.886 615.579 166.203 615.899 166.621C616.227 167.036 616.315 167.52 616.165 168.072C616.014 168.624 615.625 169.214 614.998 169.84L614.531 170.308L607.619 168.456L608.571 167.504L614.533 169.102L612.726 169.745L613.29 169.18C613.705 168.766 613.962 168.399 614.065 168.08C614.167 167.761 614.133 167.492 613.964 167.273C613.8 167.055 613.517 166.893 613.118 166.786C612.718 166.679 612.291 166.656 611.835 166.717C611.388 166.775 610.936 166.919 610.476 167.148C610.026 167.374 609.603 167.686 609.204 168.085L608.634 168.655C608.25 169.039 608.009 169.391 607.912 169.712C607.819 170.029 607.859 170.305 608.032 170.539C608.216 170.771 608.53 170.947 608.976 171.066C609.323 171.159 609.658 171.203 609.979 171.198C610.309 171.19 610.603 171.156 610.862 171.095C611.124 171.03 611.335 170.959 611.491 170.88L611.555 170.847L613.391 171.339L613.324 171.386C613.056 171.569 612.726 171.741 612.335 171.901C611.954 172.059 611.52 172.186 611.037 172.283C610.56 172.377 610.05 172.421 609.504 172.414C608.961 172.404 608.402 172.321 607.826 172.167Z" fill="#222222"/>
<path d="M248.418 213.109L254.407 207.121L251.444 206.327L252.504 205.267L260.15 207.316L259.09 208.376L256.128 207.582L250.14 213.57L248.418 213.109ZM257.752 215.746C257.027 215.552 256.516 215.273 256.22 214.909C255.929 214.546 255.85 214.12 255.984 213.631C256.117 213.143 256.467 212.615 257.034 212.048L257.038 212.044C257.598 211.484 258.225 211.032 258.917 210.689C259.614 210.348 260.333 210.131 261.072 210.041C261.815 209.946 262.53 209.992 263.22 210.177C263.914 210.363 264.398 210.634 264.671 210.993C264.952 211.349 265.028 211.764 264.899 212.236C264.77 212.71 264.437 213.215 263.899 213.753L263.499 214.153L257.574 212.565L258.39 211.75L263.501 213.119L261.951 213.67L262.435 213.187C262.79 212.832 263.012 212.517 263.099 212.243C263.186 211.97 263.158 211.739 263.013 211.551C262.872 211.365 262.63 211.226 262.288 211.134C261.946 211.042 261.579 211.022 261.188 211.075C260.806 211.125 260.417 211.248 260.024 211.444C259.638 211.638 259.275 211.906 258.932 212.248L258.444 212.736C258.115 213.065 257.909 213.367 257.826 213.642C257.746 213.913 257.781 214.15 257.929 214.351C258.086 214.55 258.355 214.7 258.738 214.803C259.036 214.882 259.322 214.92 259.598 214.916C259.881 214.909 260.133 214.879 260.354 214.828C260.579 214.772 260.758 214.711 260.893 214.644L260.948 214.615L262.522 215.037L262.465 215.077C262.234 215.234 261.952 215.382 261.617 215.519C261.29 215.654 260.919 215.763 260.504 215.845C260.096 215.926 259.657 215.964 259.189 215.958C258.725 215.949 258.245 215.879 257.752 215.746ZM262.797 216.962L268.135 211.624L269.796 212.069L268.976 212.889L269.089 212.919C269.501 212.666 269.946 212.503 270.426 212.429C270.91 212.357 271.392 212.384 271.873 212.513C271.997 212.547 272.113 212.586 272.22 212.631C272.335 212.674 272.424 212.715 272.488 212.753L271.399 213.842C271.288 213.783 271.169 213.73 271.04 213.684C270.92 213.635 270.787 213.591 270.64 213.552C270.271 213.453 269.897 213.417 269.521 213.444C269.144 213.471 268.786 213.559 268.446 213.707C268.109 213.852 267.813 214.052 267.56 214.305L264.458 217.407L262.797 216.962ZM268.468 218.482L273.806 213.143L275.468 213.588L274.637 214.419L274.751 214.449C275.203 214.194 275.684 214.032 276.193 213.963C276.708 213.893 277.205 213.924 277.685 214.053C278.014 214.141 278.271 214.259 278.456 214.407C278.644 214.557 278.763 214.729 278.81 214.924C278.858 215.118 278.834 215.329 278.738 215.554L278.858 215.587C279.171 215.426 279.505 215.303 279.862 215.217C280.226 215.13 280.592 215.085 280.96 215.084C281.335 215.081 281.691 215.126 282.029 215.216C282.518 215.348 282.864 215.531 283.069 215.767C283.28 216.001 283.347 216.276 283.27 216.589C283.198 216.904 282.978 217.245 282.609 217.614L278.936 221.287L277.275 220.841L280.65 217.466C280.885 217.232 281.029 217.025 281.085 216.846C281.144 216.667 281.115 216.514 280.998 216.383C280.88 216.252 280.673 216.147 280.375 216.067C280.085 215.989 279.785 215.971 279.474 216.012C279.166 216.049 278.87 216.133 278.588 216.263C278.309 216.395 278.067 216.564 277.862 216.769L274.526 220.105L272.865 219.66L276.328 216.197C276.527 215.998 276.644 215.813 276.681 215.641C276.721 215.471 276.679 215.321 276.554 215.192C276.437 215.061 276.242 214.96 275.971 214.887C275.7 214.814 275.402 214.801 275.08 214.847C274.766 214.891 274.457 214.985 274.153 215.131C273.857 215.275 273.599 215.457 273.377 215.679L270.129 218.927L268.468 218.482ZM283.539 222.656C282.921 222.491 282.451 222.284 282.129 222.036C281.814 221.787 281.642 221.514 281.612 221.217C281.585 220.917 281.699 220.608 281.952 220.293L281.962 220.283L283.61 220.724L283.607 220.736C283.51 220.946 283.526 221.141 283.653 221.324C283.781 221.507 284.051 221.654 284.465 221.765C284.741 221.839 285.01 221.876 285.275 221.876C285.543 221.874 285.787 221.838 286.008 221.769C286.229 221.701 286.407 221.599 286.54 221.466L286.55 221.456C286.706 221.3 286.749 221.147 286.68 220.996C286.614 220.842 286.414 220.678 286.079 220.506L285.093 219.995C284.705 219.796 284.427 219.589 284.258 219.375C284.089 219.16 284.027 218.934 284.071 218.699C284.119 218.464 284.274 218.216 284.534 217.956L284.539 217.951C284.862 217.629 285.267 217.378 285.756 217.199C286.25 217.022 286.784 216.924 287.361 216.905C287.939 216.887 288.514 216.954 289.088 217.108C289.679 217.266 290.124 217.468 290.421 217.712C290.718 217.957 290.872 218.225 290.884 218.518C290.896 218.81 290.775 219.106 290.521 219.405L290.511 219.415L288.95 218.997L288.959 218.98C289.065 218.794 289.06 218.611 288.941 218.431C288.83 218.248 288.579 218.105 288.188 218C287.943 217.934 287.695 217.903 287.444 217.906C287.197 217.91 286.968 217.948 286.756 218.019C286.551 218.088 286.382 218.189 286.249 218.323L286.244 218.328C286.14 218.432 286.084 218.532 286.077 218.63C286.074 218.728 286.124 218.828 286.226 218.929C286.327 219.031 286.486 219.14 286.704 219.255L287.694 219.763C288.292 220.072 288.647 220.388 288.759 220.711C288.871 221.033 288.731 221.39 288.34 221.781L288.33 221.791C287.992 222.13 287.562 222.39 287.041 222.573C286.52 222.755 285.955 222.855 285.344 222.874C284.737 222.888 284.135 222.816 283.539 222.656ZM295.102 225.755C294.377 225.56 293.863 225.282 293.56 224.92C293.259 224.555 293.174 224.127 293.303 223.637C293.436 223.149 293.791 222.616 294.367 222.04L294.377 222.03C294.947 221.46 295.58 221.007 296.279 220.67C296.98 220.329 297.702 220.118 298.444 220.036C299.191 219.954 299.926 220.012 300.651 220.206C301.376 220.4 301.888 220.677 302.187 221.039C302.49 221.401 302.577 221.827 302.449 222.317C302.32 222.806 301.969 223.338 301.396 223.911L301.386 223.921C300.81 224.497 300.172 224.954 299.474 225.291C298.781 225.629 298.059 225.841 297.31 225.924C296.568 226.007 295.832 225.95 295.102 225.755ZM296.089 224.768C296.472 224.87 296.867 224.887 297.274 224.819C297.688 224.748 298.098 224.6 298.504 224.375C298.913 224.146 299.305 223.844 299.68 223.47L299.69 223.46C300.067 223.082 300.317 222.742 300.438 222.441C300.563 222.135 300.56 221.876 300.429 221.663C300.305 221.449 300.052 221.29 299.67 221.187C299.287 221.085 298.888 221.069 298.474 221.14C298.062 221.207 297.652 221.355 297.242 221.584C296.836 221.81 296.444 222.111 296.067 222.489L296.057 222.499C295.682 222.873 295.433 223.213 295.308 223.518C295.184 223.823 295.185 224.081 295.312 224.293C295.443 224.506 295.702 224.664 296.089 224.768ZM300.921 227.177L305.317 222.782L304.122 222.462L305.065 221.519L306.259 221.839L306.787 221.311C307.146 220.953 307.524 220.679 307.923 220.488C308.327 220.299 308.761 220.195 309.226 220.175C309.695 220.152 310.198 220.213 310.736 220.357C310.914 220.405 311.075 220.453 311.216 220.504C311.36 220.551 311.489 220.6 311.602 220.65L310.752 221.501C310.696 221.477 310.621 221.451 310.527 221.421C310.435 221.388 310.332 221.356 310.216 221.325C309.825 221.221 309.479 221.214 309.181 221.303C308.887 221.389 308.611 221.56 308.354 221.818L307.894 222.277L309.475 222.701L308.533 223.644L306.978 223.227L302.583 227.623L300.921 227.177ZM312.722 230.562C311.974 230.362 311.41 230.103 311.028 229.786C310.65 229.47 310.454 229.119 310.441 228.732C310.429 228.343 310.603 227.943 310.968 227.528L311.029 227.458L312.697 227.905L312.655 227.956C312.483 228.162 312.417 228.363 312.457 228.559C312.502 228.757 312.64 228.94 312.871 229.11C313.106 229.275 313.426 229.413 313.831 229.521C314.217 229.625 314.603 229.673 314.99 229.665C315.375 229.657 315.73 229.599 316.051 229.492C316.377 229.38 316.641 229.224 316.842 229.022L316.847 229.017C317.102 228.763 317.173 228.52 317.061 228.288C316.952 228.052 316.636 227.802 316.11 227.537L315.232 227.104C314.398 226.686 313.924 226.25 313.81 225.794C313.703 225.337 313.913 224.845 314.437 224.321L314.442 224.316C314.862 223.896 315.381 223.569 316 223.334C316.622 223.1 317.289 222.967 317.998 222.934C318.716 222.899 319.421 222.975 320.115 223.161C320.827 223.351 321.355 223.604 321.7 223.919C322.048 224.231 322.22 224.578 322.219 224.957C322.218 225.336 322.045 225.72 321.703 226.107L321.646 226.172L320.005 225.732L320.05 225.671C320.196 225.474 320.252 225.285 320.22 225.103C320.195 224.919 320.086 224.749 319.892 224.593C319.698 224.438 319.415 224.311 319.046 224.213C318.695 224.118 318.341 224.074 317.984 224.082C317.63 224.087 317.301 224.139 316.997 224.24C316.699 224.34 316.449 224.492 316.246 224.695L316.242 224.699C315.994 224.946 315.921 225.187 316.02 225.42C316.124 225.654 316.431 225.897 316.94 226.15L317.813 226.588C318.385 226.873 318.796 227.159 319.046 227.445C319.296 227.73 319.39 228.028 319.328 228.338C319.275 228.645 319.068 228.979 318.711 229.337L318.706 229.342C318.25 229.798 317.702 230.151 317.063 230.4C316.429 230.651 315.738 230.792 314.99 230.823C314.247 230.856 313.491 230.769 312.722 230.562ZM321.431 232.809C320.706 232.615 320.195 232.336 319.899 231.972C319.608 231.609 319.529 231.183 319.663 230.694C319.796 230.205 320.146 229.678 320.713 229.111L320.717 229.107C321.277 228.547 321.903 228.095 322.596 227.752C323.293 227.41 324.011 227.194 324.751 227.103C325.494 227.009 326.209 227.055 326.899 227.239C327.593 227.425 328.077 227.697 328.35 228.055C328.631 228.412 328.707 228.826 328.578 229.299C328.449 229.773 328.116 230.278 327.578 230.815L327.178 231.215L321.253 229.628L322.069 228.813L327.179 230.182L325.63 230.733L326.114 230.25C326.469 229.894 326.69 229.58 326.778 229.306C326.865 229.032 326.837 228.802 326.692 228.614C326.55 228.428 326.309 228.288 325.967 228.197C325.624 228.105 325.258 228.085 324.867 228.138C324.484 228.187 324.096 228.311 323.703 228.506C323.317 228.701 322.953 228.968 322.611 229.311L322.123 229.799C321.794 230.128 321.588 230.43 321.505 230.705C321.425 230.976 321.459 231.212 321.608 231.414C321.764 231.612 322.034 231.763 322.417 231.865C322.715 231.945 323.001 231.983 323.277 231.978C323.559 231.972 323.812 231.942 324.033 231.89C324.258 231.834 324.437 231.774 324.572 231.706L324.627 231.677L326.201 232.099L326.144 232.14C325.913 232.297 325.631 232.444 325.296 232.582C324.969 232.717 324.598 232.826 324.183 232.908C323.774 232.989 323.336 233.027 322.868 233.021C322.404 233.012 321.924 232.942 321.431 232.809ZM326.475 234.025L331.814 228.686L333.475 229.131L332.655 229.952L332.768 229.982C333.18 229.729 333.625 229.566 334.105 229.491C334.589 229.419 335.071 229.447 335.552 229.576C335.676 229.609 335.792 229.649 335.899 229.694C336.014 229.737 336.103 229.777 336.167 229.816L335.078 230.904C334.967 230.846 334.848 230.793 334.719 230.747C334.599 230.698 334.466 230.654 334.319 230.614C333.95 230.515 333.576 230.48 333.2 230.507C332.823 230.534 332.464 230.622 332.125 230.769C331.788 230.915 331.492 231.115 331.239 231.368L328.137 234.47L326.475 234.025ZM334.108 236.07L336.851 230.036L338.626 230.512L336.156 235.113L336.276 235.146L342.102 231.443L343.85 231.911L335.923 236.556L334.108 236.07ZM339.933 237.631L345.272 232.292L346.926 232.736L341.588 238.074L339.933 237.631ZM347 231.621C346.729 231.549 346.565 231.416 346.509 231.224C346.453 231.032 346.523 230.837 346.718 230.642C346.92 230.44 347.187 230.297 347.52 230.213C347.855 230.126 348.159 230.118 348.43 230.191C348.702 230.264 348.863 230.396 348.914 230.587C348.973 230.776 348.902 230.971 348.7 231.173C348.505 231.368 348.239 231.51 347.904 231.597C347.573 231.686 347.271 231.694 347 231.621ZM346.658 239.569C345.924 239.372 345.408 239.093 345.109 238.732C344.809 238.372 344.731 237.946 344.872 237.455C345.013 236.964 345.373 236.429 345.953 235.85L345.963 235.84C346.539 235.264 347.17 234.807 347.856 234.471C348.542 234.135 349.254 233.927 349.993 233.848C350.735 233.766 351.47 233.823 352.2 234.019C352.827 234.187 353.286 234.41 353.575 234.691C353.873 234.968 354.013 235.282 353.995 235.633C353.985 235.981 353.825 236.349 353.517 236.737L353.497 236.756L351.93 236.336L351.937 236.32C352.122 236.039 352.162 235.779 352.057 235.54C351.956 235.303 351.679 235.123 351.225 235.002C350.847 234.9 350.452 234.883 350.041 234.951C349.634 235.019 349.228 235.166 348.821 235.392C348.415 235.617 348.025 235.918 347.651 236.292L347.641 236.302C347.263 236.68 347.01 237.023 346.882 237.331C346.762 237.637 346.764 237.898 346.888 238.113C347.014 238.324 347.267 238.481 347.645 238.582C348.076 238.698 348.495 238.719 348.9 238.647C349.31 238.575 349.707 238.412 350.089 238.16L350.122 238.143L351.689 238.557L351.638 238.599C351.196 238.939 350.705 239.21 350.165 239.412C349.629 239.615 349.064 239.735 348.471 239.769C347.881 239.801 347.276 239.735 346.658 239.569ZM354.538 241.68C353.813 241.486 353.302 241.207 353.006 240.843C352.715 240.48 352.636 240.054 352.77 239.565C352.903 239.077 353.253 238.549 353.82 237.982L353.824 237.978C354.384 237.418 355.011 236.966 355.703 236.623C356.4 236.281 357.119 236.065 357.858 235.974C358.601 235.88 359.317 235.926 360.006 236.11C360.7 236.296 361.184 236.568 361.457 236.926C361.738 237.283 361.814 237.697 361.686 238.17C361.556 238.644 361.223 239.149 360.685 239.686L360.285 240.086L354.36 238.499L355.176 237.684L360.287 239.053L358.737 239.604L359.221 239.121C359.576 238.765 359.798 238.451 359.885 238.177C359.973 237.904 359.944 237.673 359.799 237.485C359.658 237.299 359.417 237.159 359.074 237.068C358.732 236.976 358.365 236.956 357.974 237.009C357.592 237.058 357.203 237.182 356.81 237.377C356.424 237.572 356.061 237.839 355.718 238.182L355.23 238.67C354.901 238.999 354.695 239.301 354.612 239.576C354.532 239.847 354.567 240.084 354.715 240.285C354.872 240.483 355.141 240.634 355.524 240.736C355.822 240.816 356.108 240.854 356.384 240.849C356.667 240.843 356.919 240.813 357.14 240.761C357.365 240.706 357.544 240.645 357.679 240.577L357.734 240.548L359.308 240.97L359.251 241.011C359.02 241.168 358.738 241.315 358.403 241.453C358.076 241.588 357.705 241.697 357.29 241.779C356.882 241.86 356.443 241.898 355.975 241.892C355.511 241.883 355.031 241.813 354.538 241.68Z" fill="#0066CC"/>
<path d="M243.013 213.971L356.746 244.446L355.946 245.246L242.213 214.772L243.013 213.971Z" fill="#0066CC"/>
<path d="M532.074 274.317L418.203 243.805C416.316 243.3 413.667 244.01 412.286 245.391L400.615 257.061C399.234 258.442 399.644 259.972 401.531 260.477L515.402 290.989C517.288 291.494 519.938 290.785 521.319 289.404L532.989 277.733C534.37 276.352 533.96 274.823 532.074 274.317Z" stroke="#0066CC" stroke-width="2"/>
<path d="M410.115 256.436L416.103 250.447L413.141 249.653L414.201 248.594L421.847 250.643L420.788 251.702L417.825 250.908L411.836 256.897L410.115 256.436ZM419.449 259.073C418.724 258.879 418.214 258.599 417.917 258.236C417.627 257.872 417.547 257.446 417.681 256.958C417.814 256.469 418.164 255.942 418.731 255.375L418.735 255.371C419.295 254.81 419.922 254.359 420.614 254.016C421.311 253.674 422.03 253.458 422.769 253.367C423.512 253.272 424.228 253.319 424.917 253.503C425.611 253.689 426.095 253.96 426.369 254.319C426.649 254.675 426.726 255.09 426.597 255.563C426.467 256.036 426.134 256.541 425.596 257.079L425.196 257.479L419.271 255.892L420.086 255.076L425.198 256.446L423.648 256.997L424.132 256.513C424.487 256.158 424.709 255.844 424.796 255.57C424.884 255.296 424.855 255.066 424.71 254.878C424.568 254.692 424.328 254.552 423.985 254.461C423.643 254.369 423.276 254.349 422.885 254.401C422.503 254.451 422.114 254.574 421.721 254.77C421.334 254.965 420.972 255.232 420.629 255.575L420.141 256.062C419.812 256.392 419.605 256.694 419.523 256.968C419.443 257.24 419.478 257.476 419.626 257.678C419.783 257.876 420.052 258.027 420.435 258.129C420.733 258.209 421.019 258.247 421.295 258.242C421.578 258.236 421.83 258.206 422.052 258.154C422.276 258.098 422.456 258.038 422.591 257.97L422.644 257.941L424.219 258.363L424.161 258.404C423.932 258.561 423.649 258.708 423.314 258.846C422.986 258.981 422.616 259.09 422.201 259.172C421.793 259.253 421.354 259.291 420.886 259.285C420.422 259.276 419.942 259.205 419.449 259.073ZM424.493 260.288L429.831 254.95L431.493 255.395L430.673 256.215L430.786 256.246C431.197 255.992 431.643 255.83 432.123 255.755C432.607 255.683 433.09 255.711 433.571 255.84C433.695 255.873 433.81 255.912 433.917 255.958C434.032 256 434.121 256.041 434.184 256.079L433.096 257.168C432.985 257.11 432.866 257.057 432.737 257.011C432.618 256.962 432.484 256.917 432.337 256.878C431.968 256.779 431.594 256.743 431.218 256.77C430.841 256.798 430.482 256.885 430.143 257.033C429.806 257.179 429.51 257.378 429.256 257.632L426.154 260.733L424.493 260.288ZM430.165 261.808L435.503 256.47L437.165 256.915L436.334 257.745L436.447 257.775C436.9 257.52 437.381 257.359 437.891 257.289C438.405 257.22 438.901 257.25 439.382 257.379C439.711 257.467 439.968 257.586 440.153 257.734C440.341 257.883 440.459 258.056 440.507 258.25C440.555 258.445 440.531 258.655 440.435 258.881L440.555 258.913C440.868 258.753 441.202 258.63 441.56 258.544C441.923 258.456 442.289 258.412 442.657 258.411C443.032 258.408 443.388 258.452 443.726 258.543C444.215 258.674 444.562 258.858 444.766 259.093C444.977 259.327 445.044 259.602 444.967 259.916C444.895 260.23 444.674 260.572 444.306 260.94L440.633 264.613L438.972 264.168L442.347 260.793C442.581 260.558 442.726 260.352 442.781 260.172C442.841 259.994 442.812 259.84 442.695 259.71C442.578 259.579 442.37 259.473 442.071 259.393C441.782 259.316 441.483 259.298 441.171 259.338C440.864 259.375 440.567 259.46 440.285 259.59C440.006 259.722 439.764 259.89 439.559 260.095L436.223 263.431L434.562 262.986L438.024 259.523C438.224 259.324 438.341 259.139 438.378 258.967C438.418 258.797 438.376 258.647 438.251 258.519C438.133 258.388 437.939 258.286 437.668 258.214C437.397 258.141 437.1 258.128 436.777 258.173C436.463 258.217 436.153 258.312 435.85 258.458C435.555 258.602 435.296 258.784 435.074 259.006L431.826 262.253L430.165 261.808ZM445.237 265.983C444.618 265.817 444.148 265.611 443.826 265.363C443.511 265.114 443.34 264.84 443.309 264.544C443.281 264.243 443.396 263.935 443.65 263.619L443.66 263.609L445.308 264.051L445.304 264.063C445.207 264.272 445.223 264.468 445.35 264.651C445.478 264.833 445.748 264.98 446.161 265.091C446.438 265.165 446.707 265.203 446.972 265.203C447.24 265.201 447.484 265.165 447.706 265.096C447.926 265.027 448.104 264.926 448.237 264.792L448.247 264.782C448.403 264.627 448.447 264.473 448.377 264.322C448.311 264.169 448.111 264.005 447.776 263.833L446.789 263.321C446.402 263.122 446.124 262.915 445.955 262.701C445.786 262.487 445.724 262.261 445.768 262.025C445.816 261.791 445.972 261.543 446.232 261.283L446.237 261.278C446.559 260.955 446.965 260.704 447.454 260.526C447.947 260.348 448.481 260.25 449.059 260.232C449.636 260.213 450.211 260.281 450.785 260.434C451.377 260.593 451.821 260.795 452.118 261.039C452.415 261.283 452.569 261.552 452.581 261.845C452.594 262.137 452.473 262.433 452.219 262.732L452.209 262.742L450.647 262.323L450.656 262.307C450.762 262.121 450.756 261.937 450.637 261.757C450.527 261.574 450.276 261.431 449.884 261.326C449.64 261.261 449.392 261.229 449.141 261.233C448.894 261.236 448.665 261.274 448.453 261.345C448.249 261.414 448.079 261.516 447.946 261.649L447.941 261.654C447.837 261.758 447.781 261.859 447.775 261.956C447.771 262.055 447.821 262.155 447.922 262.256C448.025 262.357 448.183 262.466 448.401 262.582L449.391 263.089C449.989 263.399 450.345 263.715 450.457 264.037C450.567 264.36 450.428 264.717 450.037 265.108L450.027 265.118C449.689 265.456 449.26 265.716 448.738 265.899C448.217 266.082 447.652 266.182 447.041 266.2C446.434 266.215 445.832 266.142 445.237 265.983ZM456.799 269.081C456.075 268.887 455.56 268.609 455.257 268.246C454.957 267.881 454.87 267.453 454.999 266.964C455.133 266.475 455.488 265.942 456.064 265.366L456.074 265.356C456.644 264.786 457.277 264.333 457.975 263.996C458.677 263.656 459.399 263.444 460.141 263.362C460.888 263.281 461.623 263.339 462.347 263.533C463.073 263.727 463.586 264.004 463.884 264.365C464.187 264.727 464.274 265.153 464.145 265.643C464.017 266.133 463.665 266.664 463.093 267.237L463.083 267.247C462.507 267.823 461.869 268.28 461.171 268.617C460.477 268.956 459.756 269.167 459.007 269.251C458.265 269.333 457.529 269.277 456.799 269.081ZM457.786 268.094C458.169 268.197 458.563 268.213 458.971 268.145C459.385 268.074 459.796 267.927 460.202 267.701C460.611 267.473 461.002 267.171 461.376 266.796L461.386 266.786C461.764 266.409 462.014 266.069 462.136 265.767C462.261 265.462 462.257 265.203 462.126 264.99C462.002 264.775 461.749 264.616 461.366 264.514C460.984 264.411 460.585 264.395 460.171 264.466C459.76 264.534 459.349 264.681 458.939 264.911C458.533 265.136 458.142 265.438 457.764 265.816L457.754 265.826C457.38 266.2 457.13 266.54 457.005 266.845C456.881 267.15 456.882 267.408 457.009 267.619C457.14 267.832 457.399 267.99 457.786 268.094ZM462.618 270.504L467.014 266.108L465.819 265.788L466.762 264.846L467.957 265.166L468.484 264.638C468.843 264.279 469.221 264.006 469.621 263.815C470.024 263.626 470.459 263.521 470.923 263.502C471.392 263.479 471.895 263.539 472.433 263.684C472.611 263.731 472.772 263.78 472.913 263.83C473.058 263.877 473.186 263.927 473.299 263.977L472.449 264.827C472.393 264.804 472.318 264.777 472.224 264.748C472.132 264.715 472.029 264.683 471.914 264.652C471.522 264.547 471.177 264.54 470.878 264.629C470.584 264.715 470.308 264.887 470.05 265.144L469.591 265.603L471.172 266.027L470.23 266.97L468.675 266.554L464.28 270.949L462.618 270.504ZM474.418 273.889C473.671 273.689 473.107 273.43 472.725 273.113C472.347 272.797 472.151 272.445 472.138 272.058C472.125 271.67 472.3 271.27 472.665 270.855L472.726 270.784L474.394 271.231L474.352 271.282C474.18 271.488 474.114 271.689 474.154 271.886C474.199 272.084 474.338 272.267 474.568 272.436C474.803 272.602 475.123 272.739 475.527 272.848C475.914 272.951 476.3 273 476.687 272.992C477.072 272.984 477.427 272.926 477.748 272.818C478.074 272.707 478.338 272.55 478.54 272.349L478.545 272.344C478.799 272.089 478.869 271.846 478.757 271.614C478.649 271.379 478.332 271.128 477.807 270.864L476.929 270.431C476.095 270.013 475.621 269.576 475.507 269.121C475.4 268.663 475.61 268.172 476.135 267.648L476.14 267.643C476.56 267.222 477.079 266.895 477.696 266.66C478.32 266.427 478.986 266.293 479.696 266.261C480.413 266.225 481.118 266.301 481.812 266.487C482.524 266.678 483.053 266.931 483.397 267.246C483.745 267.558 483.917 267.904 483.916 268.283C483.915 268.663 483.742 269.046 483.4 269.434L483.343 269.499L481.702 269.059L481.747 268.997C481.893 268.801 481.949 268.612 481.917 268.43C481.892 268.245 481.783 268.076 481.59 267.92C481.395 267.764 481.112 267.638 480.743 267.539C480.392 267.445 480.038 267.401 479.681 267.409C479.327 267.413 478.998 267.466 478.695 267.566C478.396 267.667 478.145 267.818 477.943 268.021L477.938 268.025C477.691 268.273 477.618 268.513 477.716 268.747C477.821 268.981 478.127 269.224 478.637 269.476L479.51 269.914C480.082 270.2 480.493 270.485 480.743 270.771C480.993 271.057 481.087 271.355 481.026 271.665C480.971 271.972 480.765 272.305 480.407 272.663L480.402 272.668C479.946 273.124 479.399 273.477 478.76 273.727C478.125 273.977 477.435 274.119 476.687 274.15C475.944 274.182 475.188 274.095 474.418 273.889ZM483.127 276.136C482.403 275.942 481.893 275.662 481.596 275.298C481.306 274.935 481.226 274.509 481.36 274.021C481.493 273.532 481.843 273.004 482.41 272.438L482.414 272.433C482.974 271.873 483.601 271.422 484.293 271.079C484.99 270.737 485.709 270.52 486.448 270.43C487.191 270.335 487.907 270.381 488.596 270.566C489.289 270.752 489.774 271.023 490.047 271.382C490.328 271.738 490.405 272.153 490.276 272.626C490.146 273.099 489.813 273.604 489.275 274.142L488.875 274.542L482.95 272.954L483.765 272.139L488.876 273.508L487.327 274.059L487.811 273.576C488.166 273.221 488.388 272.906 488.475 272.633C488.563 272.359 488.534 272.128 488.389 271.941C488.247 271.755 488.006 271.615 487.664 271.523C487.322 271.431 486.955 271.411 486.564 271.464C486.181 271.514 485.793 271.637 485.4 271.833C485.013 272.027 484.651 272.295 484.308 272.637L483.82 273.125C483.491 273.454 483.284 273.756 483.202 274.031C483.122 274.303 483.156 274.539 483.305 274.741C483.462 274.939 483.732 275.089 484.114 275.192C484.411 275.272 484.698 275.309 484.973 275.305C485.257 275.298 485.509 275.269 485.729 275.217C485.956 275.161 486.135 275.1 486.269 275.033L486.324 275.004L487.898 275.426L487.841 275.466C487.61 275.623 487.328 275.771 486.993 275.908C486.666 276.044 486.294 276.152 485.88 276.235C485.471 276.315 485.033 276.354 484.565 276.348C484.101 276.338 483.621 276.268 483.127 276.136ZM488.172 277.351L493.51 272.013L495.172 272.458L494.352 273.278L494.465 273.309C494.876 273.055 495.322 272.892 495.802 272.818C496.286 272.746 496.769 272.774 497.248 272.902C497.374 272.936 497.489 272.975 497.596 273.021C497.711 273.063 497.8 273.104 497.863 273.142L496.775 274.231C496.664 274.173 496.545 274.12 496.416 274.073C496.297 274.024 496.163 273.98 496.016 273.941C495.646 273.842 495.273 273.806 494.897 273.833C494.52 273.86 494.161 273.948 493.822 274.096C493.485 274.241 493.189 274.441 492.935 274.694L489.834 277.796L488.172 277.351ZM495.805 279.396L498.548 273.363L500.323 273.838L497.853 278.44L497.974 278.472L503.799 274.769L505.548 275.238L497.62 279.883L495.805 279.396ZM501.631 280.957L506.969 275.619L508.623 276.062L503.285 281.401L501.631 280.957ZM508.697 274.948C508.426 274.875 508.262 274.743 508.207 274.55C508.15 274.358 508.22 274.164 508.416 273.969C508.617 273.767 508.884 273.624 509.217 273.54C509.553 273.452 509.856 273.445 510.127 273.517C510.398 273.59 510.561 273.722 510.611 273.913C510.67 274.102 510.599 274.298 510.397 274.5C510.202 274.695 509.936 274.837 509.6 274.924C509.27 275.013 508.968 275.02 508.697 274.948ZM508.355 282.895C507.621 282.699 507.104 282.42 506.806 282.058C506.506 281.698 506.428 281.272 506.568 280.781C506.709 280.291 507.07 279.755 507.649 279.176L507.659 279.166C508.235 278.59 508.867 278.133 509.552 277.797C510.239 277.461 510.951 277.253 511.69 277.174C512.432 277.092 513.167 277.15 513.897 277.345C514.524 277.513 514.983 277.737 515.272 278.017C515.57 278.294 515.71 278.609 515.692 278.959C515.683 279.308 515.522 279.676 515.214 280.064L515.195 280.083L513.627 279.663L513.634 279.647C513.82 279.366 513.859 279.106 513.754 278.867C513.653 278.63 513.376 278.45 512.923 278.328C512.545 278.227 512.149 278.21 511.738 278.277C511.331 278.346 510.925 278.493 510.518 278.719C510.112 278.944 509.722 279.244 509.348 279.619L509.338 279.629C508.96 280.006 508.707 280.349 508.579 280.658C508.459 280.964 508.461 281.224 508.584 281.439C508.711 281.651 508.964 281.807 509.342 281.908C509.774 282.024 510.192 282.045 510.597 281.973C511.007 281.901 511.403 281.739 511.786 281.486L511.82 281.47L513.386 281.883L513.335 281.926C512.893 282.266 512.401 282.537 511.862 282.739C511.326 282.942 510.761 283.061 510.168 283.096C509.577 283.128 508.974 283.061 508.355 282.895ZM516.235 285.007C515.51 284.813 514.999 284.533 514.703 284.169C514.413 283.806 514.333 283.38 514.467 282.892C514.6 282.403 514.95 281.875 515.517 281.308L515.521 281.304C516.081 280.744 516.708 280.293 517.4 279.95C518.097 279.608 518.816 279.391 519.555 279.301C520.298 279.206 521.014 279.252 521.703 279.437C522.397 279.623 522.881 279.894 523.155 280.253C523.435 280.609 523.512 281.024 523.382 281.497C523.253 281.97 522.921 282.475 522.383 283.013L521.983 283.413L516.057 281.825L516.872 281.01L521.984 282.38L520.434 282.93L520.918 282.447C521.273 282.092 521.495 281.777 521.582 281.504C521.67 281.23 521.64 280.999 521.496 280.812C521.354 280.626 521.114 280.486 520.771 280.394C520.429 280.302 520.062 280.282 519.671 280.335C519.289 280.385 518.9 280.508 518.507 280.704C518.121 280.899 517.757 281.166 517.415 281.508L516.927 281.996C516.598 282.325 516.392 282.628 516.309 282.902C516.229 283.174 516.264 283.41 516.412 283.612C516.569 283.81 516.838 283.96 517.221 284.063C517.519 284.143 517.805 284.18 518.081 284.176C518.364 284.169 518.616 284.14 518.837 284.088C519.062 284.032 519.242 283.971 519.377 283.904L519.43 283.875L521.005 284.297L520.947 284.337C520.718 284.495 520.435 284.642 520.1 284.779C519.772 284.915 519.402 285.024 518.987 285.106C518.579 285.187 518.14 285.224 517.672 285.219C517.208 285.209 516.728 285.139 516.235 285.007Z" fill="#0066CC"/>
<path d="M404.71 257.298L518.443 287.773L517.643 288.573L403.91 258.098L404.71 257.298Z" fill="#0066CC"/>
</g>
</g>
</g>
<defs>
<clipPath id="clip0_102_382">
<rect width="887" height="421" rx="24" fill="white"/>
</clipPath>
<clipPath id="clip1_102_382">
<rect x="48" y="-2.5" width="791" height="426" rx="24" fill="white"/>
</clipPath>
<clipPath id="clip2_102_382">
<rect width="290.005" height="181.548" fill="white" transform="matrix(0.965926 0.258819 -0.707107 0.707107 367.374 89.6107)"/>
</clipPath>
</defs>
</svg>
