<svg width="836" height="310" viewBox="0 0 836 310" fill="none" xmlns="http://www.w3.org/2000/svg">
<rect width="836" height="310" rx="24" fill="white"/>
<path d="M369.305 175.281C368.43 175.281 367.669 175.146 367.023 174.875C366.383 174.604 365.878 174.227 365.508 173.742C365.138 173.258 364.93 172.693 364.883 172.047L364.875 171.938H366.828L366.836 172.016C366.867 172.333 366.992 172.609 367.211 172.844C367.435 173.078 367.732 173.263 368.102 173.398C368.471 173.529 368.893 173.594 369.367 173.594C369.82 173.594 370.221 173.523 370.57 173.383C370.919 173.242 371.193 173.049 371.391 172.805C371.589 172.555 371.688 172.268 371.688 171.945V171.938C371.688 171.531 371.529 171.201 371.211 170.945C370.893 170.685 370.37 170.477 369.641 170.32L368.43 170.07C367.273 169.826 366.432 169.435 365.906 168.898C365.385 168.357 365.125 167.667 365.125 166.828V166.82C365.125 166.148 365.302 165.56 365.656 165.055C366.016 164.549 366.508 164.156 367.133 163.875C367.763 163.589 368.484 163.445 369.297 163.445C370.13 163.445 370.852 163.586 371.461 163.867C372.07 164.143 372.549 164.521 372.898 165C373.247 165.479 373.443 166.021 373.484 166.625L373.492 166.727H371.57L371.555 166.633C371.508 166.336 371.385 166.078 371.188 165.859C370.995 165.635 370.737 165.458 370.414 165.328C370.091 165.198 369.714 165.133 369.281 165.133C368.87 165.133 368.503 165.198 368.18 165.328C367.857 165.453 367.602 165.63 367.414 165.859C367.232 166.089 367.141 166.365 367.141 166.688V166.695C367.141 167.091 367.294 167.419 367.602 167.68C367.914 167.94 368.422 168.143 369.125 168.289L370.336 168.547C371.128 168.714 371.771 168.935 372.266 169.211C372.76 169.487 373.122 169.831 373.352 170.242C373.586 170.648 373.703 171.138 373.703 171.711V171.719C373.703 172.448 373.523 173.078 373.164 173.609C372.81 174.141 372.302 174.552 371.641 174.844C370.984 175.135 370.206 175.281 369.305 175.281ZM375.844 175V163.156H377.789V167.773H377.922C378.125 167.31 378.432 166.948 378.844 166.688C379.255 166.427 379.768 166.297 380.383 166.297C381.018 166.297 381.555 166.422 381.992 166.672C382.43 166.917 382.76 167.276 382.984 167.75C383.214 168.224 383.328 168.799 383.328 169.477V175H381.383V169.93C381.383 169.263 381.242 168.763 380.961 168.43C380.685 168.096 380.253 167.93 379.664 167.93C379.279 167.93 378.945 168.016 378.664 168.188C378.383 168.359 378.167 168.602 378.016 168.914C377.865 169.227 377.789 169.596 377.789 170.023V175H375.844ZM389.312 175.172C388.464 175.172 387.732 174.995 387.117 174.641C386.503 174.281 386.029 173.771 385.695 173.109C385.367 172.448 385.203 171.656 385.203 170.734V170.719C385.203 169.807 385.37 169.021 385.703 168.359C386.036 167.693 386.508 167.182 387.117 166.828C387.732 166.474 388.464 166.297 389.312 166.297C390.161 166.297 390.891 166.474 391.5 166.828C392.115 167.182 392.589 167.69 392.922 168.352C393.255 169.013 393.422 169.802 393.422 170.719V170.734C393.422 171.656 393.255 172.448 392.922 173.109C392.594 173.771 392.122 174.281 391.508 174.641C390.898 174.995 390.167 175.172 389.312 175.172ZM389.312 173.594C389.76 173.594 390.141 173.482 390.453 173.258C390.771 173.029 391.013 172.703 391.18 172.281C391.346 171.854 391.43 171.341 391.43 170.742V170.727C391.43 170.122 391.346 169.609 391.18 169.188C391.013 168.76 390.771 168.435 390.453 168.211C390.141 167.982 389.76 167.867 389.312 167.867C388.865 167.867 388.482 167.982 388.164 168.211C387.846 168.435 387.604 168.76 387.438 169.188C387.271 169.609 387.188 170.122 387.188 170.727V170.742C387.188 171.341 387.271 171.854 387.438 172.281C387.604 172.708 387.844 173.034 388.156 173.258C388.474 173.482 388.859 173.594 389.312 173.594ZM396.664 175L394.344 166.461H396.297L397.711 172.883H397.852L399.492 166.461H401.344L402.992 172.883H403.133L404.547 166.461H406.477L404.156 175H402.125L400.461 168.812H400.328L398.672 175H396.664ZM412.422 175V166.461H414.367V167.789H414.5C414.682 167.315 414.977 166.948 415.383 166.688C415.794 166.427 416.281 166.297 416.844 166.297C417.229 166.297 417.576 166.359 417.883 166.484C418.195 166.609 418.464 166.786 418.688 167.016C418.911 167.245 419.083 167.518 419.203 167.836H419.344C419.484 167.529 419.68 167.26 419.93 167.031C420.185 166.797 420.482 166.617 420.82 166.492C421.164 166.362 421.534 166.297 421.93 166.297C422.503 166.297 422.992 166.411 423.398 166.641C423.81 166.865 424.125 167.188 424.344 167.609C424.568 168.031 424.68 168.536 424.68 169.125V175H422.734V169.602C422.734 169.227 422.677 168.917 422.562 168.672C422.453 168.427 422.284 168.242 422.055 168.117C421.826 167.992 421.536 167.93 421.188 167.93C420.849 167.93 420.555 168.008 420.305 168.164C420.055 168.315 419.859 168.521 419.719 168.781C419.583 169.042 419.516 169.336 419.516 169.664V175H417.57V169.461C417.57 169.143 417.508 168.87 417.383 168.641C417.263 168.411 417.086 168.237 416.852 168.117C416.622 167.992 416.349 167.93 416.031 167.93C415.714 167.93 415.427 168.013 415.172 168.18C414.922 168.341 414.724 168.565 414.578 168.852C414.438 169.133 414.367 169.451 414.367 169.805V175H412.422ZM430.656 175.172C429.807 175.172 429.076 174.995 428.461 174.641C427.846 174.281 427.372 173.771 427.039 173.109C426.711 172.448 426.547 171.656 426.547 170.734V170.719C426.547 169.807 426.714 169.021 427.047 168.359C427.38 167.693 427.852 167.182 428.461 166.828C429.076 166.474 429.807 166.297 430.656 166.297C431.505 166.297 432.234 166.474 432.844 166.828C433.458 167.182 433.932 167.69 434.266 168.352C434.599 169.013 434.766 169.802 434.766 170.719V170.734C434.766 171.656 434.599 172.448 434.266 173.109C433.938 173.771 433.466 174.281 432.852 174.641C432.242 174.995 431.51 175.172 430.656 175.172ZM430.656 173.594C431.104 173.594 431.484 173.482 431.797 173.258C432.115 173.029 432.357 172.703 432.523 172.281C432.69 171.854 432.773 171.341 432.773 170.742V170.727C432.773 170.122 432.69 169.609 432.523 169.188C432.357 168.76 432.115 168.435 431.797 168.211C431.484 167.982 431.104 167.867 430.656 167.867C430.208 167.867 429.826 167.982 429.508 168.211C429.19 168.435 428.948 168.76 428.781 169.188C428.615 169.609 428.531 170.122 428.531 170.727V170.742C428.531 171.341 428.615 171.854 428.781 172.281C428.948 172.708 429.188 173.034 429.5 173.258C429.818 173.482 430.203 173.594 430.656 173.594ZM436.719 175V166.461H438.664V167.773H438.797C438.943 167.315 439.203 166.958 439.578 166.703C439.958 166.448 440.43 166.32 440.992 166.32C441.138 166.32 441.281 166.331 441.422 166.352C441.568 166.367 441.688 166.388 441.781 166.414V168.156C441.625 168.12 441.466 168.094 441.305 168.078C441.148 168.057 440.984 168.047 440.812 168.047C440.38 168.047 440.003 168.128 439.68 168.289C439.357 168.451 439.107 168.682 438.93 168.984C438.753 169.281 438.664 169.633 438.664 170.039V175H436.719ZM446.812 175.172C445.964 175.172 445.234 174.992 444.625 174.633C444.021 174.273 443.555 173.763 443.227 173.102C442.898 172.44 442.734 171.656 442.734 170.75V170.742C442.734 169.846 442.896 169.065 443.219 168.398C443.547 167.732 444.01 167.216 444.609 166.852C445.208 166.482 445.911 166.297 446.719 166.297C447.531 166.297 448.229 166.477 448.812 166.836C449.401 167.19 449.854 167.688 450.172 168.328C450.49 168.969 450.648 169.719 450.648 170.578V171.219H443.711V169.914H449.695L448.773 171.133V170.359C448.773 169.792 448.688 169.32 448.516 168.945C448.344 168.57 448.104 168.289 447.797 168.102C447.495 167.914 447.143 167.82 446.742 167.82C446.341 167.82 445.984 167.919 445.672 168.117C445.365 168.31 445.12 168.596 444.938 168.977C444.76 169.352 444.672 169.812 444.672 170.359V171.141C444.672 171.667 444.76 172.117 444.938 172.492C445.115 172.862 445.365 173.148 445.688 173.352C446.016 173.549 446.404 173.648 446.852 173.648C447.201 173.648 447.5 173.599 447.75 173.5C448.005 173.396 448.211 173.273 448.367 173.133C448.523 172.987 448.633 172.849 448.695 172.719L448.719 172.664H450.562L450.547 172.734C450.479 173.01 450.354 173.292 450.172 173.578C449.995 173.859 449.753 174.122 449.445 174.367C449.143 174.607 448.773 174.802 448.336 174.953C447.898 175.099 447.391 175.172 446.812 175.172Z" fill="#0066CC"/>
</svg>
