<svg width="1024" height="426" viewBox="0 0 1024 426" fill="none" xmlns="http://www.w3.org/2000/svg">
<g clip-path="url(#clip0_24_293)">
<rect width="1024" height="426" rx="24" fill="white"/>
<rect x="923.5" y="378.5" width="1" height="100" transform="rotate(-90 923.5 378.5)" fill="#484848"/>
<path d="M615.969 387.316C614.539 387.316 613.305 387.055 612.266 386.531C611.227 386.008 610.422 385.277 609.852 384.34C609.289 383.402 609.008 382.312 609.008 381.07V370.09H612.031V380.812C612.031 381.594 612.184 382.277 612.488 382.863C612.801 383.441 613.25 383.895 613.836 384.223C614.422 384.543 615.133 384.703 615.969 384.703C616.805 384.703 617.516 384.543 618.102 384.223C618.688 383.895 619.133 383.441 619.438 382.863C619.742 382.277 619.895 381.594 619.895 380.812V370.09H622.906V381.07C622.906 382.305 622.625 383.395 622.062 384.34C621.508 385.277 620.711 386.008 619.672 386.531C618.633 387.055 617.398 387.316 615.969 387.316ZM638.266 387V372.633H633.18V370.09H646.363V372.633H641.277V387H638.266ZM656.637 387V370.09H659.648V387H656.637ZM670.848 387V370.09H673.859V384.457H681.547V387H670.848ZM691.926 387V370.09H694.938V387H691.926ZM710.273 387V372.633H705.188V370.09H718.371V372.633H713.285V387H710.273ZM733.379 387V380.332L727.449 370.09H730.754L734.832 377.426H734.938L739.016 370.09H742.32L736.391 380.332V387H733.379ZM772.723 387.316C771.113 387.316 769.715 386.961 768.527 386.25C767.348 385.539 766.434 384.527 765.785 383.215C765.145 381.902 764.824 380.344 764.824 378.539V378.527C764.824 376.723 765.145 375.168 765.785 373.863C766.434 372.551 767.348 371.543 768.527 370.84C769.715 370.129 771.113 369.773 772.723 369.773C774.02 369.773 775.18 370.023 776.203 370.523C777.234 371.023 778.074 371.715 778.723 372.598C779.371 373.48 779.77 374.496 779.918 375.645L779.93 375.762H776.965L776.906 375.562C776.75 374.914 776.48 374.355 776.098 373.887C775.723 373.41 775.25 373.043 774.68 372.785C774.109 372.52 773.457 372.387 772.723 372.387C771.746 372.387 770.895 372.637 770.168 373.137C769.449 373.637 768.891 374.348 768.492 375.27C768.102 376.184 767.906 377.27 767.906 378.527V378.539C767.906 379.797 768.102 380.887 768.492 381.809C768.891 382.73 769.453 383.445 770.18 383.953C770.906 384.453 771.758 384.703 772.734 384.703C773.453 384.703 774.094 384.578 774.656 384.328C775.227 384.07 775.707 383.703 776.098 383.227C776.488 382.742 776.77 382.16 776.941 381.48L776.965 381.375H779.93L779.918 381.492C779.777 382.641 779.383 383.652 778.734 384.527C778.086 385.402 777.246 386.086 776.215 386.578C775.191 387.07 774.027 387.316 772.723 387.316ZM790.426 387V370.09H793.438V384.457H801.125V387H790.426ZM810.309 387L816.344 370.09H818.887V373.125H817.996L813.473 387H810.309ZM813.367 382.629L814.164 380.297H821.91L822.719 382.629H813.367ZM822.613 387L818.09 373.125V370.09H819.742L825.777 387H822.613ZM841.523 387.316C840.227 387.316 839.094 387.121 838.125 386.73C837.156 386.34 836.391 385.781 835.828 385.055C835.273 384.328 834.961 383.465 834.891 382.465L834.879 382.277H837.773L837.797 382.418C837.875 382.902 838.082 383.32 838.418 383.672C838.754 384.023 839.195 384.297 839.742 384.492C840.289 384.68 840.918 384.773 841.629 384.773C842.332 384.773 842.941 384.676 843.457 384.48C843.98 384.277 844.383 383.996 844.664 383.637C844.953 383.27 845.098 382.844 845.098 382.359V382.348C845.098 381.723 844.859 381.223 844.383 380.848C843.914 380.473 843.133 380.172 842.039 379.945L840.223 379.57C838.551 379.219 837.305 378.648 836.484 377.859C835.664 377.07 835.254 376.047 835.254 374.789V374.777C835.262 373.777 835.531 372.906 836.062 372.164C836.602 371.414 837.344 370.828 838.289 370.406C839.234 369.984 840.312 369.773 841.523 369.773C842.758 369.773 843.832 369.977 844.746 370.383C845.668 370.789 846.391 371.355 846.914 372.082C847.445 372.809 847.738 373.648 847.793 374.602L847.805 374.789H844.922L844.898 374.648C844.828 374.164 844.645 373.75 844.348 373.406C844.059 373.055 843.672 372.785 843.188 372.598C842.703 372.41 842.141 372.316 841.5 372.316C840.852 372.316 840.285 372.414 839.801 372.609C839.324 372.797 838.953 373.062 838.688 373.406C838.422 373.75 838.289 374.152 838.289 374.613V374.625C838.289 375.219 838.527 375.703 839.004 376.078C839.48 376.445 840.23 376.738 841.254 376.957L843.082 377.332C844.254 377.574 845.211 377.902 845.953 378.316C846.695 378.73 847.242 379.25 847.594 379.875C847.953 380.492 848.133 381.238 848.133 382.113V382.125C848.133 383.18 847.867 384.098 847.336 384.879C846.805 385.66 846.047 386.262 845.062 386.684C844.078 387.105 842.898 387.316 841.523 387.316ZM864.523 387.316C863.227 387.316 862.094 387.121 861.125 386.73C860.156 386.34 859.391 385.781 858.828 385.055C858.273 384.328 857.961 383.465 857.891 382.465L857.879 382.277H860.773L860.797 382.418C860.875 382.902 861.082 383.32 861.418 383.672C861.754 384.023 862.195 384.297 862.742 384.492C863.289 384.68 863.918 384.773 864.629 384.773C865.332 384.773 865.941 384.676 866.457 384.48C866.98 384.277 867.383 383.996 867.664 383.637C867.953 383.27 868.098 382.844 868.098 382.359V382.348C868.098 381.723 867.859 381.223 867.383 380.848C866.914 380.473 866.133 380.172 865.039 379.945L863.223 379.57C861.551 379.219 860.305 378.648 859.484 377.859C858.664 377.07 858.254 376.047 858.254 374.789V374.777C858.262 373.777 858.531 372.906 859.062 372.164C859.602 371.414 860.344 370.828 861.289 370.406C862.234 369.984 863.312 369.773 864.523 369.773C865.758 369.773 866.832 369.977 867.746 370.383C868.668 370.789 869.391 371.355 869.914 372.082C870.445 372.809 870.738 373.648 870.793 374.602L870.805 374.789H867.922L867.898 374.648C867.828 374.164 867.645 373.75 867.348 373.406C867.059 373.055 866.672 372.785 866.188 372.598C865.703 372.41 865.141 372.316 864.5 372.316C863.852 372.316 863.285 372.414 862.801 372.609C862.324 372.797 861.953 373.062 861.688 373.406C861.422 373.75 861.289 374.152 861.289 374.613V374.625C861.289 375.219 861.527 375.703 862.004 376.078C862.48 376.445 863.23 376.738 864.254 376.957L866.082 377.332C867.254 377.574 868.211 377.902 868.953 378.316C869.695 378.73 870.242 379.25 870.594 379.875C870.953 380.492 871.133 381.238 871.133 382.113V382.125C871.133 383.18 870.867 384.098 870.336 384.879C869.805 385.66 869.047 386.262 868.062 386.684C867.078 387.105 865.898 387.316 864.523 387.316Z" fill="#484848"/>
<g clip-path="url(#clip1_24_293)">
<path d="M504.503 210.165L334.5 164.613C330.766 163.613 325.523 165.018 322.789 167.751L298.041 192.5C295.307 195.234 296.118 198.261 299.852 199.261L469.855 244.814C473.589 245.814 478.833 244.409 481.566 241.676L506.315 216.927C509.049 214.193 508.238 211.166 504.503 210.165Z" fill="#DDDDDD"/>
<path d="M504.503 210.165L334.5 164.613C330.766 163.613 325.523 165.018 322.789 167.751L298.041 192.5C295.307 195.234 296.118 198.261 299.852 199.261L469.855 244.814C473.589 245.814 478.833 244.409 481.566 241.676L506.315 216.927C509.049 214.193 508.238 211.166 504.503 210.165Z" stroke="#DDDDDD" stroke-width="2"/>
<path d="M366.526 200.092L374.498 192.121L378.58 193.215C379.662 193.504 380.428 193.905 380.878 194.418C381.334 194.932 381.468 195.538 381.281 196.235C381.1 196.934 380.592 197.699 379.76 198.532L379.749 198.542C378.899 199.393 377.972 200.065 376.969 200.557C375.97 201.046 374.929 201.346 373.848 201.458C372.775 201.568 371.696 201.477 370.609 201.186L366.526 200.092ZM369.672 199.415L371.551 199.918C372.27 200.111 372.993 200.167 373.718 200.086C374.444 200.004 375.145 199.791 375.823 199.445C376.506 199.1 377.146 198.629 377.742 198.033L377.753 198.022C378.335 197.44 378.696 196.906 378.837 196.421C378.987 195.933 378.916 195.513 378.625 195.16C378.334 194.806 377.834 194.534 377.125 194.344L375.246 193.841L369.672 199.415ZM377.793 203.111L383.831 197.073L385.703 197.574L379.665 203.612L377.793 203.111ZM385.785 196.314C385.479 196.232 385.294 196.082 385.231 195.864C385.168 195.647 385.247 195.428 385.467 195.207C385.696 194.979 385.998 194.817 386.374 194.721C386.754 194.622 387.097 194.614 387.404 194.696C387.711 194.778 387.893 194.927 387.951 195.144C388.018 195.358 387.937 195.579 387.708 195.807C387.488 196.028 387.188 196.188 386.808 196.287C386.433 196.387 386.092 196.397 385.785 196.314ZM384.976 205.19C384.277 205.002 383.745 204.768 383.381 204.489C383.025 204.207 382.83 203.897 382.796 203.562C382.766 203.222 382.894 202.874 383.181 202.516L383.192 202.505L385.056 203.005L385.052 203.018C384.944 203.254 384.961 203.477 385.105 203.683C385.249 203.89 385.555 204.056 386.023 204.181C386.335 204.264 386.64 204.307 386.939 204.308C387.242 204.305 387.519 204.264 387.768 204.187C388.019 204.109 388.219 203.995 388.37 203.843L388.381 203.833C388.558 203.656 388.607 203.482 388.528 203.312C388.454 203.138 388.227 202.953 387.848 202.758L386.733 202.179C386.295 201.954 385.98 201.721 385.789 201.478C385.597 201.235 385.528 200.98 385.577 200.714C385.632 200.448 385.807 200.168 386.102 199.873L386.107 199.868C386.471 199.503 386.93 199.22 387.483 199.018C388.041 198.817 388.646 198.706 389.299 198.685C389.952 198.664 390.603 198.74 391.252 198.914C391.921 199.093 392.423 199.321 392.759 199.598C393.094 199.875 393.269 200.178 393.283 200.509C393.297 200.839 393.161 201.174 392.873 201.513L392.861 201.524L391.096 201.051L391.105 201.032C391.226 200.821 391.22 200.614 391.085 200.411C390.96 200.204 390.676 200.042 390.233 199.923C389.956 199.849 389.676 199.813 389.393 199.816C389.113 199.821 388.854 199.864 388.614 199.944C388.383 200.023 388.191 200.137 388.041 200.288L388.035 200.294C387.917 200.412 387.855 200.525 387.847 200.635C387.844 200.746 387.899 200.86 388.015 200.974C388.129 201.089 388.309 201.212 388.555 201.343L389.675 201.916C390.352 202.266 390.754 202.623 390.88 202.989C391.006 203.354 390.848 203.758 390.406 204.2L390.395 204.211C390.011 204.594 389.525 204.889 388.936 205.095C388.347 205.301 387.707 205.415 387.017 205.435C386.331 205.452 385.65 205.37 384.976 205.19ZM392.642 207.216C392.124 207.077 391.733 206.878 391.468 206.621C391.207 206.364 391.093 206.07 391.126 205.737C391.167 205.403 391.372 205.052 391.74 204.683L391.751 204.672C392.108 204.315 392.537 204.04 393.036 203.847C393.539 203.65 394.098 203.541 394.713 203.518C395.328 203.497 395.983 203.563 396.678 203.716L399.865 204.395L398.959 205.301L396.042 204.688C395.492 204.568 395.02 204.545 394.629 204.617C394.238 204.689 393.917 204.851 393.666 205.102L393.655 205.112C393.397 205.37 393.33 205.607 393.453 205.822C393.581 206.038 393.854 206.202 394.272 206.314C394.649 206.415 395.041 206.45 395.448 206.419C395.855 206.389 396.239 206.302 396.598 206.16C396.96 206.014 397.261 205.822 397.501 205.582L399.412 203.671C399.714 203.369 399.814 203.104 399.71 202.876C399.611 202.643 399.304 202.459 398.791 202.321C398.363 202.207 397.958 202.168 397.576 202.206C397.198 202.24 396.862 202.343 396.567 202.517L396.537 202.537L394.764 202.062L394.821 202.014C395.221 201.691 395.698 201.443 396.254 201.27C396.81 201.096 397.407 201.007 398.045 201.001C398.683 200.994 399.326 201.078 399.975 201.252C400.69 201.443 401.213 201.685 401.543 201.98C401.878 202.271 402.021 202.603 401.972 202.977C401.926 203.348 401.692 203.745 401.268 204.168L397.142 208.295L395.285 207.798L396.114 206.969L395.986 206.935C395.643 207.086 395.281 207.199 394.9 207.274C394.524 207.351 394.145 207.385 393.765 207.376C393.384 207.368 393.01 207.314 392.642 207.216ZM403.886 210.229C403.499 210.125 403.185 209.989 402.944 209.822C402.707 209.651 402.542 209.455 402.451 209.234C402.368 209.011 402.359 208.771 402.426 208.513L402.297 208.479L401.353 209.423L399.474 208.92L407.849 200.545L409.728 201.048L406.43 204.346L406.558 204.381C406.921 204.203 407.305 204.067 407.71 203.975C408.115 203.883 408.522 203.839 408.935 203.841C409.35 203.84 409.747 203.89 410.123 203.991C410.818 204.177 411.29 204.465 411.539 204.854C411.796 205.241 411.83 205.705 411.639 206.247C411.451 206.785 411.037 207.374 410.396 208.016L410.385 208.026C409.752 208.66 409.06 209.173 408.311 209.565C407.566 209.959 406.813 210.214 406.051 210.332C405.297 210.448 404.576 210.414 403.886 210.229ZM404.458 208.911C404.886 209.025 405.33 209.047 405.792 208.974C406.257 208.898 406.718 208.736 407.175 208.49C407.633 208.243 408.064 207.918 408.469 207.513L408.479 207.502C408.884 207.097 409.15 206.726 409.274 206.391C409.403 206.051 409.391 205.764 409.239 205.527C409.091 205.286 408.803 205.109 408.375 204.994C407.953 204.881 407.506 204.862 407.035 204.936C406.565 205.011 406.099 205.171 405.637 205.416C405.181 205.662 404.749 205.989 404.344 206.394L404.333 206.405C403.932 206.806 403.667 207.176 403.538 207.516C403.418 207.852 403.432 208.141 403.581 208.382C403.738 208.62 404.03 208.796 404.458 208.911ZM409.329 211.561L417.704 203.186L419.583 203.689L411.208 212.064L409.329 211.561ZM416.98 213.765C416.16 213.545 415.583 213.229 415.248 212.818C414.919 212.407 414.83 211.926 414.98 211.373C415.131 210.82 415.527 210.223 416.167 209.583L416.173 209.577C416.806 208.943 417.515 208.433 418.299 208.045C419.087 207.659 419.899 207.414 420.735 207.312C421.575 207.205 422.386 207.256 423.165 207.465C423.95 207.675 424.496 207.983 424.807 208.388C425.124 208.791 425.21 209.26 425.064 209.795C424.918 210.331 424.541 210.902 423.933 211.509L423.48 211.963L416.779 210.167L417.702 209.244L423.482 210.793L421.731 211.417L422.278 210.869C422.679 210.468 422.93 210.112 423.029 209.803C423.128 209.493 423.094 209.232 422.93 209.021C422.771 208.809 422.498 208.652 422.111 208.548C421.723 208.444 421.308 208.422 420.867 208.481C420.434 208.538 419.995 208.677 419.55 208.899C419.113 209.118 418.702 209.421 418.316 209.808L417.763 210.361C417.391 210.733 417.158 211.074 417.064 211.385C416.974 211.692 417.013 211.959 417.181 212.187C417.358 212.411 417.663 212.582 418.096 212.698C418.433 212.788 418.756 212.831 419.068 212.825C419.388 212.818 419.674 212.784 419.923 212.726C420.178 212.663 420.381 212.594 420.533 212.518L420.595 212.485L422.376 212.962L422.311 213.008C422.05 213.185 421.73 213.352 421.352 213.507C420.982 213.66 420.563 213.784 420.092 213.877C419.631 213.969 419.136 214.011 418.606 214.004C418.08 213.994 417.539 213.915 416.98 213.765ZM425.559 216.036C424.876 215.853 424.404 215.568 424.147 215.181C423.893 214.791 423.861 214.325 424.053 213.783C424.243 213.241 424.656 212.653 425.289 212.02L425.3 212.009C425.941 211.368 426.63 210.852 427.365 210.461C428.109 210.067 428.858 209.813 429.612 209.697C430.374 209.579 431.102 209.613 431.797 209.799C432.175 209.9 432.482 210.039 432.721 210.215C432.962 210.387 433.128 210.585 433.216 210.809C433.31 211.035 433.318 211.276 433.242 211.531L433.377 211.567L436.675 208.269L438.547 208.771L430.172 217.146L428.3 216.644L429.245 215.699L429.11 215.663C428.741 215.84 428.355 215.975 427.949 216.067C427.553 216.157 427.152 216.201 426.746 216.2C426.342 216.194 425.947 216.14 425.559 216.036ZM427.308 215.033C427.736 215.148 428.18 215.169 428.642 215.097C429.113 215.022 429.576 214.861 430.033 214.615C430.499 214.366 430.932 214.041 431.334 213.639L431.345 213.629C431.75 213.224 432.013 212.852 432.132 212.516C432.257 212.18 432.243 211.892 432.089 211.65C431.941 211.409 431.653 211.231 431.225 211.117C430.803 211.004 430.356 210.984 429.886 211.059C429.424 211.132 428.963 211.293 428.502 211.543C428.045 211.789 427.614 212.115 427.209 212.521L427.198 212.531C426.793 212.936 426.528 213.306 426.403 213.642C426.278 213.977 426.29 214.266 426.439 214.506C426.59 214.743 426.881 214.919 427.308 215.033Z" fill="#484848"/>
<path d="M575.921 138.748L405.918 93.1954C402.184 92.1949 396.941 93.5998 394.207 96.3335L369.458 121.082C366.725 123.816 367.536 126.843 371.27 127.844L541.273 173.396C545.007 174.396 550.251 172.991 552.984 170.258L577.733 145.509C580.467 142.775 579.656 139.748 575.921 138.748Z" fill="white" stroke="#020013" stroke-width="2"/>
<path d="M433.965 127.86C433.12 127.633 432.481 127.341 432.048 126.982C431.621 126.625 431.4 126.227 431.386 125.789C431.371 125.351 431.569 124.897 431.98 124.428L432.05 124.349L433.937 124.855L433.889 124.912C433.695 125.144 433.621 125.372 433.666 125.595C433.717 125.818 433.872 126.026 434.134 126.217C434.399 126.405 434.76 126.56 435.218 126.683C435.656 126.8 436.093 126.854 436.53 126.845C436.966 126.836 437.367 126.77 437.731 126.649C438.099 126.523 438.397 126.346 438.625 126.117L438.63 126.113C438.918 125.825 438.998 125.55 438.872 125.287C438.749 125.021 438.391 124.738 437.797 124.439L436.804 123.948C435.86 123.477 435.324 122.983 435.196 122.467C435.075 121.949 435.311 121.394 435.905 120.801L435.91 120.795C436.386 120.32 436.972 119.95 437.672 119.685C438.377 119.42 439.13 119.269 439.932 119.232C440.743 119.193 441.542 119.278 442.327 119.488C443.132 119.704 443.729 119.99 444.119 120.347C444.512 120.7 444.708 121.091 444.706 121.52C444.704 121.949 444.51 122.383 444.123 122.821L444.058 122.895L442.202 122.398L442.253 122.327C442.418 122.105 442.482 121.891 442.446 121.685C442.418 121.476 442.294 121.284 442.074 121.109C441.854 120.933 441.536 120.79 441.118 120.678C440.72 120.571 440.32 120.522 439.916 120.531C439.516 120.536 439.144 120.595 438.801 120.708C438.462 120.823 438.179 120.995 437.951 121.223L437.946 121.228C437.666 121.508 437.582 121.78 437.695 122.044C437.813 122.309 438.159 122.584 438.735 122.869L439.723 123.365C440.369 123.688 440.834 124.011 441.117 124.334C441.4 124.657 441.506 124.994 441.437 125.344C441.376 125.692 441.143 126.069 440.738 126.474L440.732 126.479C440.217 126.995 439.598 127.394 438.875 127.676C438.157 127.961 437.376 128.12 436.53 128.155C435.691 128.191 434.835 128.093 433.965 127.86ZM443.814 130.401C442.994 130.181 442.417 129.865 442.083 129.454C441.754 129.043 441.664 128.562 441.814 128.009C441.965 127.456 442.361 126.859 443.002 126.219L443.008 126.213C443.641 125.58 444.349 125.069 445.133 124.681C445.921 124.295 446.734 124.05 447.569 123.948C448.41 123.841 449.22 123.892 449.999 124.101C450.784 124.312 451.331 124.62 451.641 125.024C451.959 125.427 452.044 125.896 451.899 126.431C451.752 126.967 451.375 127.538 450.768 128.145L450.315 128.599L443.614 126.803L444.537 125.88L450.317 127.429L448.564 128.053L449.112 127.505C449.513 127.104 449.763 126.748 449.863 126.439C449.962 126.129 449.929 125.868 449.765 125.657C449.606 125.446 449.332 125.288 448.945 125.184C448.558 125.081 448.143 125.058 447.701 125.117C447.268 125.174 446.829 125.313 446.384 125.535C445.948 125.755 445.537 126.057 445.15 126.444L444.597 126.997C444.225 127.369 443.992 127.71 443.898 128.021C443.808 128.328 443.847 128.595 444.015 128.823C444.192 129.047 444.497 129.218 444.93 129.334C445.267 129.424 445.591 129.467 445.902 129.461C446.222 129.454 446.508 129.42 446.758 129.362C447.012 129.299 447.215 129.23 447.368 129.154L447.429 129.121L449.21 129.598L449.145 129.644C448.885 129.821 448.565 129.988 448.186 130.143C447.817 130.296 447.397 130.42 446.927 130.513C446.465 130.605 445.97 130.647 445.441 130.641C444.915 130.631 444.373 130.551 443.814 130.401ZM452.938 132.846C452.108 132.623 451.524 132.308 451.185 131.9C450.848 131.491 450.758 131.01 450.918 130.455C451.077 129.9 451.484 129.295 452.14 128.64L452.151 128.628C452.803 127.976 453.517 127.46 454.293 127.08C455.069 126.7 455.875 126.465 456.71 126.375C457.549 126.283 458.381 126.347 459.206 126.568C459.915 126.758 460.434 127.011 460.761 127.328C461.098 127.643 461.256 127.998 461.236 128.394C461.225 128.788 461.044 129.205 460.696 129.643L460.674 129.665L458.9 129.189L458.909 129.171C459.118 128.853 459.163 128.56 459.044 128.29C458.93 128.021 458.616 127.818 458.103 127.68C457.676 127.566 457.229 127.547 456.764 127.623C456.304 127.7 455.844 127.867 455.384 128.122C454.925 128.377 454.484 128.716 454.06 129.14L454.049 129.151C453.622 129.578 453.336 129.966 453.192 130.315C453.055 130.662 453.057 130.956 453.197 131.199C453.341 131.438 453.626 131.615 454.054 131.73C454.542 131.861 455.015 131.885 455.474 131.802C455.938 131.721 456.386 131.537 456.819 131.252L456.856 131.234L458.627 131.701L458.57 131.749C458.07 132.134 457.515 132.44 456.904 132.669C456.298 132.899 455.659 133.033 454.988 133.072C454.321 133.109 453.637 133.033 452.938 132.846ZM461.88 135.242C461.06 135.022 460.479 134.708 460.135 134.298C459.796 133.885 459.699 133.401 459.845 132.847C459.995 132.295 460.397 131.692 461.049 131.04L461.06 131.03C461.705 130.385 462.421 129.872 463.211 129.49C464.004 129.106 464.821 128.866 465.66 128.774C466.504 128.682 467.336 128.747 468.156 128.966C468.976 129.186 469.555 129.5 469.893 129.908C470.237 130.317 470.335 130.799 470.189 131.354C470.044 131.907 469.647 132.508 468.998 133.157L468.988 133.167C468.336 133.819 467.615 134.336 466.825 134.717C466.04 135.1 465.224 135.339 464.376 135.435C463.537 135.527 462.705 135.463 461.88 135.242ZM462.996 134.126C463.429 134.242 463.875 134.261 464.335 134.184C464.804 134.104 465.269 133.936 465.728 133.681C466.191 133.422 466.634 133.081 467.058 132.657L467.068 132.647C467.496 132.219 467.778 131.835 467.915 131.494C468.057 131.148 468.053 130.856 467.904 130.615C467.764 130.372 467.478 130.192 467.046 130.076C466.613 129.961 466.162 129.943 465.693 130.022C465.228 130.099 464.764 130.266 464.3 130.525C463.842 130.78 463.399 131.121 462.971 131.549L462.96 131.559C462.537 131.983 462.254 132.367 462.113 132.712C461.972 133.057 461.973 133.35 462.117 133.589C462.265 133.83 462.558 134.009 462.996 134.126ZM467.858 136.689L473.896 130.651L475.775 131.155L474.847 132.083L474.975 132.117C475.499 131.842 476.052 131.666 476.633 131.588C477.215 131.51 477.802 131.551 478.396 131.71C479.317 131.957 479.826 132.341 479.923 132.862C480.022 133.383 479.711 134.003 478.992 134.721L475.087 138.626L473.208 138.123L476.793 134.538C477.265 134.066 477.483 133.676 477.446 133.368C477.416 133.06 477.116 132.831 476.547 132.679C476.175 132.579 475.792 132.554 475.399 132.602C475.006 132.651 474.626 132.766 474.259 132.948C473.892 133.13 473.558 133.372 473.256 133.674L469.737 137.193L467.858 136.689ZM480.179 140.117C479.495 139.934 479.024 139.649 478.767 139.262C478.513 138.872 478.481 138.406 478.672 137.864C478.863 137.322 479.275 136.734 479.909 136.101L479.919 136.09C480.561 135.449 481.249 134.933 481.984 134.542C482.73 134.148 483.478 133.894 484.232 133.778C484.994 133.66 485.723 133.694 486.416 133.88C486.794 133.981 487.102 134.12 487.34 134.296C487.583 134.468 487.748 134.666 487.837 134.891C487.929 135.116 487.937 135.357 487.861 135.612L487.998 135.648L491.295 132.35L493.166 132.852L484.791 141.227L482.92 140.725L483.865 139.781L483.729 139.744C483.361 139.921 482.974 140.056 482.569 140.148C482.173 140.238 481.772 140.282 481.365 140.281C480.963 140.275 480.566 140.221 480.179 140.117ZM481.929 139.115C482.356 139.229 482.801 139.251 483.262 139.178C483.732 139.103 484.196 138.942 484.653 138.696C485.119 138.447 485.552 138.122 485.954 137.72L485.964 137.71C486.369 137.305 486.633 136.933 486.753 136.597C486.877 136.262 486.862 135.973 486.709 135.731C486.561 135.49 486.272 135.312 485.845 135.198C485.422 135.085 484.976 135.066 484.506 135.14C484.044 135.213 483.584 135.374 483.123 135.624C482.666 135.87 482.234 136.197 481.829 136.602L481.818 136.612C481.413 137.018 481.148 137.388 481.023 137.724C480.899 138.059 480.91 138.347 481.058 138.587C481.211 138.825 481.501 139 481.929 139.115ZM489.31 142.564C488.792 142.425 488.401 142.226 488.135 141.969C487.875 141.712 487.761 141.418 487.794 141.085C487.835 140.751 488.04 140.4 488.408 140.031L488.419 140.02C488.776 139.663 489.205 139.388 489.704 139.195C490.207 138.998 490.766 138.889 491.381 138.866C491.996 138.845 492.651 138.911 493.346 139.064L496.533 139.743L495.627 140.649L492.709 140.035C492.159 139.916 491.688 139.893 491.297 139.964C490.906 140.037 490.585 140.199 490.334 140.45L490.323 140.46C490.065 140.718 489.998 140.955 490.121 141.17C490.249 141.386 490.522 141.55 490.939 141.662C491.317 141.763 491.709 141.798 492.116 141.767C492.523 141.737 492.907 141.65 493.266 141.508C493.629 141.362 493.929 141.17 494.168 140.93L496.08 139.019C496.381 138.717 496.482 138.452 496.378 138.224C496.278 137.991 495.972 137.807 495.459 137.669C495.031 137.554 494.626 137.516 494.244 137.553C493.866 137.588 493.53 137.691 493.235 137.865L493.205 137.885L491.432 137.41L491.489 137.362C491.888 137.039 492.366 136.791 492.921 136.618C493.478 136.444 494.075 136.355 494.712 136.348C495.351 136.342 495.994 136.426 496.643 136.6C497.357 136.791 497.88 137.033 498.211 137.328C498.546 137.618 498.688 137.951 498.64 138.325C498.594 138.696 498.36 139.093 497.936 139.516L493.809 143.643L491.953 143.146L492.782 142.317L492.653 142.282C492.311 142.434 491.949 142.547 491.568 142.622C491.191 142.699 490.813 142.733 490.432 142.724C490.052 142.716 489.678 142.662 489.31 142.564ZM496.066 144.248L502.104 138.21L503.982 138.713L503.055 139.641L503.183 139.675C503.648 139.389 504.152 139.204 504.694 139.121C505.243 139.039 505.788 139.07 506.331 139.216C506.472 139.254 506.603 139.299 506.724 139.35C506.854 139.398 506.955 139.444 507.027 139.487L505.796 140.719C505.67 140.653 505.534 140.593 505.39 140.54C505.254 140.485 505.103 140.435 504.937 140.391C504.52 140.279 504.097 140.238 503.671 140.269C503.245 140.3 502.84 140.398 502.455 140.566C502.074 140.73 501.74 140.956 501.452 141.243L497.945 144.751L496.066 144.248ZM501.363 148.357C501.247 148.326 501.128 148.291 501.006 148.254C500.889 148.218 500.776 148.181 500.668 148.143L501.723 147.088C501.791 147.115 501.876 147.142 501.976 147.169C502.073 147.199 502.169 147.228 502.265 147.254C502.652 147.357 503.024 147.377 503.381 147.314C503.739 147.256 504.104 147.104 504.478 146.858L504.852 146.609L507.945 139.775L509.997 140.325L506.824 146.254L506.94 145.487L507.589 145.661L506.461 146.157L513.982 141.392L515.959 141.922L506.829 147.3C506.093 147.738 505.425 148.061 504.828 148.269C504.229 148.478 503.654 148.585 503.099 148.591C502.55 148.598 501.971 148.52 501.363 148.357Z" fill="#111111"/>
<path d="M648.046 66.6227L478.043 21.0706C473.775 19.927 467.783 21.5327 464.659 24.6569L439.91 49.4056C436.786 52.5298 437.713 55.9895 441.981 57.133L611.984 102.685C616.251 103.829 622.244 102.223 625.368 99.0989L650.117 74.3501C653.241 71.2259 652.314 67.7662 648.046 66.6227Z" fill="#1F1F1F"/>
<path d="M516.457 55.8162L517.606 54.6671L520.504 55.4436C521.203 55.6309 521.877 55.6458 522.526 55.4882C523.178 55.3268 523.744 55.0067 524.223 54.5279L524.234 54.5169C524.716 54.0344 524.895 53.6106 524.769 53.2453C524.643 52.88 524.23 52.6037 523.531 52.4163L520.633 51.6399L521.793 50.4798L525.167 51.3836C525.906 51.5818 526.442 51.8654 526.775 52.2347C527.107 52.6039 527.228 53.0311 527.139 53.5161C527.053 53.9974 526.743 54.5051 526.209 55.0391L526.198 55.0501C525.668 55.5805 525.046 56.0046 524.333 56.3224C523.623 56.6366 522.879 56.8319 522.101 56.9082C521.327 56.9809 520.57 56.9182 519.83 56.72L516.457 55.8162ZM512.848 58.1904L520.82 50.2189L522.767 50.7406L514.795 58.7121L512.848 58.1904ZM522.855 60.8716L528.893 54.8336L530.772 55.337L529.844 56.2651L529.972 56.2995C530.437 56.0132 530.941 55.8283 531.483 55.7449C532.031 55.6628 532.577 55.6946 533.12 55.8402C533.261 55.8779 533.392 55.9224 533.513 55.9736C533.643 56.0223 533.744 56.068 533.816 56.1107L532.584 57.3426C532.459 57.2764 532.324 57.2169 532.179 57.164C532.043 57.1089 531.892 57.0591 531.726 57.0146C531.308 56.9027 530.886 56.862 530.46 56.8927C530.034 56.9232 529.629 57.0224 529.244 57.1902C528.863 57.3542 528.529 57.5799 528.242 57.8672L524.734 61.3751L522.855 60.8716ZM529.292 62.5964L535.33 56.5584L537.201 57.0598L531.163 63.0979L529.292 62.5964ZM537.284 55.8002C536.977 55.7179 536.792 55.568 536.729 55.3503C536.666 55.1327 536.745 54.9133 536.966 54.6924C537.195 54.464 537.497 54.3022 537.873 54.2068C538.252 54.1078 538.596 54.0994 538.903 54.1816C539.21 54.2638 539.392 54.4131 539.45 54.6294C539.517 54.8434 539.436 55.0646 539.207 55.2929C538.986 55.5139 538.686 55.6739 538.306 55.7729C537.932 55.8734 537.591 55.8824 537.284 55.8002ZM533.48 63.7186L539.518 57.6806L541.397 58.184L540.458 59.1232L540.586 59.1576C541.097 58.8696 541.641 58.6861 542.218 58.6072C542.799 58.5295 543.362 58.5635 543.905 58.7091C544.277 58.8088 544.568 58.9427 544.776 59.1106C544.99 59.2799 545.124 59.4745 545.178 59.6945C545.232 59.9145 545.205 60.1523 545.096 60.408L545.232 60.4444C545.585 60.2635 545.963 60.1244 546.367 60.027C546.779 59.9274 547.193 59.8771 547.608 59.8764C548.032 59.8733 548.435 59.923 548.818 60.0254C549.371 60.1737 549.763 60.3814 549.993 60.6486C550.233 60.9135 550.309 61.2234 550.222 61.5783C550.14 61.9346 549.891 62.3209 549.475 62.737L545.32 66.8913L543.441 66.3877L547.258 62.5705C547.523 62.3053 547.687 62.0713 547.75 61.8686C547.817 61.6672 547.784 61.4926 547.651 61.3449C547.518 61.1972 547.283 61.0782 546.946 60.9879C546.619 60.9003 546.28 60.8793 545.928 60.9252C545.58 60.9672 545.245 61.0621 544.926 61.2098C544.611 61.359 544.337 61.5495 544.105 61.7816L540.332 65.5546L538.453 65.0512L542.37 61.1344C542.594 60.9098 542.727 60.7003 542.769 60.5059C542.815 60.3128 542.767 60.1436 542.626 59.9982C542.493 59.8506 542.273 59.7356 541.966 59.6533C541.659 59.5711 541.323 59.5559 540.959 59.6077C540.603 59.6571 540.254 59.7643 539.91 59.9291C539.576 60.0916 539.283 60.298 539.033 60.5485L535.359 64.2221L533.48 63.7186ZM549.681 68.1856C549.162 68.0467 548.771 67.8486 548.506 67.5907C548.245 67.3342 548.131 67.0396 548.164 66.7076C548.205 66.373 548.409 66.0215 548.778 65.6532L548.789 65.6422C549.146 65.2849 549.574 65.0098 550.073 64.8167C550.576 64.6199 551.135 64.5105 551.751 64.4887C552.366 64.4667 553.021 64.5326 553.716 64.6859L556.903 65.3648L555.997 66.2709L553.08 65.6573C552.529 65.5378 552.058 65.5142 551.667 65.5869C551.276 65.6596 550.954 65.8208 550.704 66.0713L550.693 66.0823C550.435 66.3401 550.367 66.5765 550.49 66.7917C550.619 67.0083 550.891 67.1722 551.309 67.2842C551.686 67.3852 552.079 67.4203 552.486 67.3895C552.894 67.3585 553.276 67.272 553.635 67.1299C553.998 66.9842 554.299 66.7918 554.539 66.5525L556.45 64.6411C556.752 64.3391 556.851 64.0737 556.748 63.8454C556.649 63.6132 556.342 63.4285 555.828 63.2908C555.401 63.1764 554.997 63.1379 554.614 63.1754C554.235 63.2095 553.899 63.3131 553.605 63.4864L553.575 63.5064L551.801 63.0312L551.859 62.9836C552.258 62.661 552.736 62.413 553.292 62.2399C553.847 62.0665 554.444 61.9767 555.083 61.9703C555.72 61.9636 556.364 62.0474 557.013 62.2213C557.728 62.4128 558.25 62.6556 558.581 62.9496C558.916 63.2403 559.059 63.5727 559.009 63.947C558.964 64.3178 558.73 64.715 558.306 65.1385L554.18 69.2651L552.323 68.7677L553.152 67.939L553.023 67.9046C552.681 68.0558 552.319 68.1689 551.938 68.2442C551.561 68.3208 551.183 68.3548 550.802 68.3462C550.422 68.3375 550.048 68.284 549.681 68.1856ZM556.436 69.8697L562.474 63.8317L564.353 64.3351L563.425 65.2632L563.553 65.2976C564.018 65.0113 564.522 64.8263 565.065 64.7429C565.612 64.6608 566.157 64.6925 566.701 64.8382C566.842 64.876 566.973 64.9204 567.094 64.9716C567.224 65.0204 567.325 65.066 567.397 65.1087L566.165 66.3406C566.04 66.2745 565.905 66.2149 565.76 66.1622C565.624 66.1068 565.472 66.057 565.306 66.0125C564.889 65.9007 564.467 65.8599 564.041 65.8905C563.616 65.9213 563.21 66.0205 562.825 66.1881C562.444 66.3521 562.11 66.578 561.823 66.8653L558.315 70.3731L556.436 69.8697ZM561.732 73.9785C561.616 73.9475 561.497 73.9133 561.376 73.876C561.258 73.8399 561.146 73.8028 561.038 73.7644L562.093 72.7093C562.161 72.7368 562.245 72.7641 562.345 72.791C562.443 72.8218 562.539 72.8498 562.634 72.8754C563.022 72.9792 563.394 72.9997 563.751 72.9364C564.109 72.8782 564.474 72.7262 564.848 72.4808L565.222 72.2308L568.314 65.3965L570.367 65.9465L567.193 71.8763L567.31 71.1092L567.959 71.2831L566.83 71.7793L574.351 67.0141L576.329 67.5439L567.2 72.9221C566.463 73.3595 565.795 73.6827 565.197 73.8913C564.599 74.0999 564.024 74.2073 563.47 74.2129C562.92 74.2198 562.341 74.1416 561.732 73.9785Z" fill="white"/>
<path d="M433.793 280.876L263.79 235.324C259.522 234.18 253.53 235.786 250.406 238.91L225.657 263.659C222.533 266.783 223.46 270.243 227.727 271.386L397.73 316.939C401.998 318.082 407.99 316.476 411.115 313.352L435.863 288.603C438.987 285.479 438.06 282.02 433.793 280.876Z" fill="url(#paint0_linear_24_293)"/>
<path d="M300.889 273.058L312.724 266.123L314.339 266.555L312.859 268.035L312.278 267.88L302.927 273.604L300.889 273.058ZM304.897 271.52L306.502 270.556L311.497 271.894L310.903 273.129L304.897 271.52ZM308.775 275.171L312.406 267.914L313.886 266.434L314.912 266.709L310.812 275.717L308.775 275.171ZM315.453 277.115C314.622 276.893 314.038 276.577 313.7 276.169C313.362 275.761 313.273 275.279 313.432 274.724C313.591 274.17 313.999 273.564 314.655 272.909L314.666 272.897C315.318 272.245 316.032 271.729 316.807 271.349C317.583 270.969 318.389 270.734 319.225 270.645C320.063 270.552 320.896 270.616 321.721 270.837C322.43 271.027 322.949 271.28 323.276 271.598C323.612 271.912 323.771 272.267 323.751 272.663C323.74 273.057 323.559 273.474 323.21 273.912L323.188 273.934L321.415 273.459L321.424 273.44C321.633 273.123 321.678 272.829 321.558 272.559C321.445 272.29 321.131 272.087 320.618 271.95C320.19 271.835 319.744 271.816 319.279 271.892C318.818 271.969 318.359 272.136 317.899 272.391C317.44 272.646 316.999 272.985 316.575 273.409L316.564 273.42C316.137 273.847 315.851 274.235 315.706 274.584C315.57 274.931 315.572 275.226 315.712 275.468C315.855 275.708 316.141 275.885 316.568 275.999C317.056 276.13 317.53 276.154 317.989 276.071C318.453 275.99 318.901 275.807 319.334 275.521L319.371 275.503L321.142 275.97L321.084 276.019C320.585 276.403 320.03 276.71 319.419 276.938C318.812 277.168 318.174 277.303 317.503 277.342C316.835 277.378 316.152 277.302 315.453 277.115ZM324.372 279.505C323.542 279.283 322.958 278.967 322.62 278.559C322.282 278.151 322.192 277.669 322.352 277.114C322.511 276.56 322.919 275.954 323.574 275.299L323.586 275.287C324.238 274.635 324.951 274.119 325.727 273.739C326.503 273.359 327.309 273.124 328.144 273.035C328.983 272.942 329.815 273.006 330.64 273.227C331.35 273.417 331.869 273.67 332.196 273.988C332.532 274.302 332.69 274.657 332.67 275.053C332.66 275.447 332.479 275.864 332.13 276.302L332.108 276.324L330.335 275.849L330.343 275.83C330.553 275.513 330.598 275.219 330.478 274.949C330.364 274.68 330.051 274.477 329.538 274.34C329.11 274.225 328.664 274.206 328.198 274.282C327.738 274.359 327.278 274.526 326.819 274.781C326.36 275.036 325.918 275.375 325.495 275.799L325.484 275.81C325.056 276.237 324.771 276.625 324.626 276.974C324.49 277.321 324.492 277.616 324.631 277.858C324.775 278.098 325.061 278.275 325.488 278.389C325.976 278.52 326.45 278.544 326.909 278.461C327.372 278.38 327.821 278.197 328.253 277.911L328.29 277.893L330.062 278.36L330.004 278.409C329.505 278.793 328.949 279.1 328.339 279.328C327.732 279.558 327.093 279.693 326.423 279.732C325.755 279.768 325.072 279.692 324.372 279.505ZM333.285 281.893C332.465 281.673 331.888 281.357 331.553 280.946C331.224 280.535 331.134 280.054 331.284 279.501C331.436 278.948 331.831 278.351 332.472 277.711L332.478 277.705C333.111 277.071 333.82 276.561 334.603 276.173C335.391 275.787 336.204 275.542 337.039 275.44C337.879 275.333 338.69 275.384 339.47 275.593C340.254 275.803 340.801 276.111 341.111 276.516C341.429 276.919 341.514 277.388 341.369 277.923C341.223 278.459 340.846 279.03 340.239 279.637L339.785 280.091L333.084 278.295L334.007 277.372L339.787 278.921L338.035 279.545L338.582 278.997C338.983 278.596 339.234 278.24 339.333 277.931C339.432 277.621 339.399 277.36 339.235 277.149C339.076 276.937 338.802 276.78 338.415 276.676C338.028 276.572 337.614 276.55 337.171 276.609C336.738 276.666 336.299 276.805 335.854 277.027C335.418 277.247 335.007 277.549 334.62 277.936L334.067 278.489C333.695 278.861 333.463 279.202 333.369 279.513C333.278 279.82 333.317 280.087 333.485 280.315C333.663 280.539 333.967 280.71 334.4 280.826C334.737 280.916 335.061 280.959 335.372 280.953C335.692 280.946 335.978 280.912 336.228 280.854C336.483 280.791 336.685 280.722 336.837 280.646L336.899 280.613L338.68 281.09L338.616 281.136C338.355 281.313 338.035 281.48 337.656 281.635C337.287 281.788 336.867 281.912 336.396 282.005C335.935 282.097 335.441 282.139 334.911 282.132C334.385 282.123 333.843 282.043 333.285 281.893ZM338.99 283.268L345.028 277.23L346.907 277.733L345.979 278.661L346.108 278.695C346.631 278.42 347.184 278.244 347.766 278.167C348.347 278.089 348.935 278.129 349.529 278.289C350.449 278.535 350.958 278.919 351.056 279.44C351.154 279.961 350.843 280.581 350.125 281.299L346.219 285.205L344.341 284.701L347.926 281.116C348.397 280.645 348.615 280.255 348.579 279.946C348.548 279.639 348.248 279.41 347.68 279.257C347.308 279.158 346.924 279.132 346.531 279.181C346.139 279.229 345.758 279.345 345.392 279.526C345.025 279.709 344.69 279.95 344.388 280.252L340.869 283.771L338.99 283.268ZM351.656 286.696C350.71 286.443 350.156 286.133 349.991 285.767C349.828 285.401 350.036 284.929 350.614 284.351L353.984 280.981L352.701 280.638L353.767 279.571L355.05 279.915L356.531 278.434L358.439 278.946L356.959 280.426L358.694 280.892L357.628 281.958L355.892 281.493L352.849 284.536C352.55 284.835 352.417 285.077 352.448 285.263C352.488 285.446 352.702 285.59 353.089 285.693C353.225 285.73 353.337 285.758 353.427 285.777C353.525 285.794 353.632 285.814 353.75 285.836L352.69 286.896C352.541 286.88 352.375 286.854 352.193 286.82C352.016 286.786 351.837 286.745 351.656 286.696Z" fill="white"/>
</g>
<g clip-path="url(#clip2_24_293)">
<path d="M636.93 272.791L546.133 248.462C541.865 247.319 535.873 248.925 532.749 252.049L513.657 271.141C510.533 274.265 511.46 277.725 515.727 278.868L606.524 303.197C610.792 304.341 616.785 302.735 619.909 299.611L639.001 280.519C642.125 277.395 641.198 273.935 636.93 272.791Z" fill="#DDDDDD"/>
<path d="M540.677 271.208L548.649 263.237L552.731 264.331C553.813 264.621 554.579 265.022 555.029 265.535C555.485 266.049 555.619 266.655 555.432 267.352C555.251 268.05 554.743 268.816 553.911 269.648L553.9 269.659C553.05 270.509 552.123 271.181 551.12 271.673C550.121 272.162 549.08 272.463 547.999 272.575C546.926 272.684 545.847 272.593 544.76 272.302L540.677 271.208ZM543.823 270.531L545.702 271.035C546.421 271.228 547.144 271.283 547.869 271.202C548.595 271.121 549.296 270.908 549.974 270.561C550.657 270.216 551.297 269.746 551.893 269.15L551.904 269.138C552.486 268.556 552.847 268.023 552.988 267.538C553.138 267.05 553.067 266.629 552.776 266.276C552.485 265.923 551.985 265.651 551.276 265.461L549.397 264.957L543.823 270.531ZM551.944 274.227L557.982 268.189L559.854 268.691L553.816 274.729L551.944 274.227ZM559.936 267.431C559.63 267.348 559.445 267.198 559.382 266.981C559.319 266.763 559.398 266.544 559.618 266.323C559.847 266.095 560.149 265.933 560.525 265.837C560.905 265.738 561.248 265.73 561.555 265.812C561.862 265.894 562.044 266.044 562.102 266.26C562.169 266.474 562.088 266.695 561.859 266.924C561.639 267.144 561.339 267.304 560.959 267.403C560.584 267.504 560.243 267.513 559.936 267.431ZM559.127 276.306C558.428 276.119 557.896 275.885 557.532 275.605C557.176 275.323 556.981 275.014 556.947 274.678C556.917 274.338 557.045 273.99 557.332 273.633L557.343 273.622L559.207 274.121L559.203 274.134C559.095 274.371 559.112 274.593 559.256 274.799C559.4 275.006 559.706 275.172 560.174 275.297C560.486 275.381 560.791 275.423 561.09 275.424C561.393 275.421 561.67 275.381 561.919 275.303C562.17 275.225 562.37 275.111 562.521 274.96L562.532 274.949C562.709 274.772 562.758 274.598 562.679 274.428C562.605 274.254 562.378 274.069 561.999 273.875L560.884 273.295C560.446 273.07 560.131 272.837 559.94 272.594C559.748 272.352 559.679 272.096 559.728 271.83C559.783 271.565 559.958 271.284 560.253 270.99L560.258 270.984C560.622 270.62 561.081 270.337 561.634 270.134C562.192 269.933 562.797 269.823 563.45 269.801C564.103 269.78 564.754 269.857 565.403 270.03C566.072 270.21 566.574 270.438 566.91 270.714C567.245 270.991 567.42 271.295 567.434 271.625C567.448 271.956 567.312 272.29 567.024 272.629L567.012 272.64L565.247 272.167L565.256 272.148C565.377 271.938 565.371 271.731 565.236 271.527C565.111 271.32 564.827 271.158 564.384 271.04C564.107 270.965 563.827 270.93 563.544 270.933C563.264 270.938 563.005 270.98 562.765 271.06C562.534 271.139 562.342 271.254 562.192 271.404L562.186 271.41C562.068 271.528 562.006 271.641 561.998 271.751C561.995 271.863 562.05 271.976 562.166 272.09C562.28 272.205 562.46 272.329 562.706 272.459L563.826 273.033C564.503 273.383 564.905 273.74 565.031 274.105C565.157 274.471 564.999 274.874 564.557 275.316L564.546 275.327C564.162 275.711 563.676 276.005 563.087 276.211C562.498 276.418 561.858 276.531 561.168 276.552C560.482 276.569 559.801 276.487 559.127 276.306ZM566.793 278.332C566.275 278.194 565.884 277.995 565.619 277.737C565.358 277.481 565.244 277.187 565.277 276.854C565.318 276.52 565.523 276.168 565.891 275.8L565.902 275.788C566.259 275.431 566.688 275.156 567.187 274.963C567.69 274.767 568.249 274.657 568.864 274.635C569.479 274.613 570.134 274.679 570.829 274.832L574.016 275.511L573.11 276.417L570.193 275.804C569.643 275.684 569.171 275.661 568.78 275.733C568.389 275.806 568.068 275.967 567.817 276.218L567.806 276.229C567.548 276.487 567.481 276.723 567.604 276.938C567.732 277.155 568.005 277.318 568.423 277.43C568.8 277.531 569.192 277.567 569.599 277.536C570.006 277.505 570.39 277.419 570.749 277.276C571.111 277.13 571.412 276.938 571.652 276.699L573.563 274.787C573.865 274.485 573.965 274.22 573.861 273.992C573.762 273.759 573.455 273.575 572.942 273.437C572.514 273.323 572.109 273.284 571.727 273.322C571.349 273.356 571.013 273.459 570.718 273.633L570.688 273.653L568.915 273.178L568.972 273.13C569.372 272.807 569.849 272.559 570.405 272.387C570.961 272.213 571.558 272.123 572.196 272.117C572.834 272.11 573.477 272.194 574.126 272.368C574.841 272.559 575.364 272.802 575.694 273.096C576.029 273.387 576.172 273.719 576.123 274.093C576.077 274.464 575.843 274.861 575.419 275.285L571.293 279.412L569.436 278.914L570.265 278.085L570.137 278.051C569.794 278.202 569.432 278.315 569.051 278.39C568.675 278.467 568.296 278.501 567.916 278.492C567.535 278.484 567.161 278.431 566.793 278.332ZM578.037 281.345C577.65 281.241 577.336 281.105 577.095 280.938C576.858 280.767 576.693 280.572 576.602 280.351C576.518 280.128 576.51 279.887 576.577 279.629L576.448 279.595L575.504 280.54L573.625 280.036L581.999 271.661L583.879 272.165L580.581 275.463L580.709 275.497C581.072 275.319 581.456 275.184 581.861 275.091C582.266 274.999 582.674 274.955 583.085 274.958C583.501 274.957 583.898 275.007 584.275 275.108C584.969 275.294 585.441 275.582 585.69 275.97C585.947 276.357 585.981 276.821 585.789 277.363C585.602 277.901 585.188 278.491 584.547 279.132L584.536 279.143C583.903 279.776 583.211 280.289 582.462 280.681C581.717 281.075 580.964 281.331 580.202 281.448C579.448 281.564 578.727 281.53 578.037 281.345ZM578.609 280.027C579.037 280.142 579.481 280.163 579.943 280.09C580.408 280.014 580.87 279.853 581.326 279.607C581.783 279.36 582.214 279.034 582.62 278.629L582.63 278.618C583.035 278.213 583.301 277.842 583.426 277.507C583.554 277.168 583.542 276.88 583.39 276.643C583.242 276.403 582.954 276.225 582.526 276.11C582.103 275.997 581.657 275.978 581.187 276.053C580.716 276.128 580.25 276.288 579.788 276.533C579.332 276.779 578.9 277.105 578.495 277.51L578.484 277.521C578.083 277.922 577.818 278.293 577.689 278.632C577.569 278.968 577.583 279.257 577.732 279.498C577.889 279.736 578.182 279.913 578.609 280.027ZM583.48 282.677L591.855 274.302L593.734 274.806L585.359 283.181L583.48 282.677ZM591.131 284.881C590.311 284.662 589.734 284.346 589.399 283.934C589.07 283.523 588.981 283.042 589.131 282.49C589.282 281.937 589.678 281.34 590.319 280.699L590.324 280.693C590.958 280.06 591.666 279.549 592.45 279.161C593.238 278.775 594.05 278.53 594.886 278.428C595.726 278.321 596.536 278.373 597.316 278.582C598.101 278.792 598.648 279.1 598.957 279.505C599.275 279.907 599.361 280.377 599.215 280.911C599.069 281.447 598.692 282.018 598.085 282.626L597.631 283.079L590.93 281.283L591.853 280.361L597.634 281.91L595.881 282.533L596.428 281.986C596.829 281.585 597.08 281.229 597.179 280.919C597.278 280.609 597.246 280.349 597.081 280.137C596.922 279.926 596.649 279.768 596.262 279.665C595.874 279.561 595.46 279.538 595.018 279.598C594.585 279.654 594.146 279.793 593.7 280.016C593.264 280.235 592.853 280.537 592.467 280.924L591.914 281.477C591.542 281.849 591.309 282.19 591.215 282.501C591.124 282.809 591.164 283.075 591.331 283.303C591.509 283.528 591.814 283.698 592.246 283.814C592.583 283.904 592.907 283.947 593.219 283.942C593.539 283.934 593.825 283.901 594.074 283.842C594.329 283.779 594.532 283.71 594.684 283.634L594.746 283.601L596.527 284.079L596.462 284.124C596.201 284.302 595.881 284.469 595.503 284.624C595.133 284.777 594.713 284.9 594.243 284.994C593.782 285.085 593.287 285.127 592.757 285.121C592.232 285.111 591.689 285.031 591.131 284.881ZM599.71 287.152C599.026 286.969 598.555 286.684 598.298 286.297C598.044 285.907 598.012 285.441 598.203 284.899C598.394 284.358 598.807 283.77 599.44 283.136L599.451 283.125C600.092 282.484 600.78 281.968 601.516 281.577C602.261 281.183 603.009 280.929 603.763 280.813C604.525 280.695 605.254 280.729 605.948 280.915C606.325 281.016 606.633 281.155 606.871 281.331C607.114 281.504 607.279 281.701 607.367 281.926C607.461 282.152 607.469 282.392 607.393 282.647L607.528 282.683L610.826 279.385L612.698 279.887L604.323 288.262L602.451 287.76L603.396 286.816L603.26 286.779C602.892 286.956 602.505 287.091 602.1 287.183C601.704 287.273 601.303 287.317 600.896 287.316C600.494 287.31 600.098 287.256 599.71 287.152ZM601.459 286.15C601.887 286.264 602.331 286.286 602.793 286.213C603.263 286.138 603.727 285.977 604.184 285.731C604.65 285.482 605.083 285.157 605.485 284.756L605.495 284.745C605.901 284.34 606.164 283.968 606.283 283.632C606.408 283.297 606.394 283.008 606.24 282.766C606.092 282.525 605.804 282.348 605.376 282.233C604.953 282.12 604.507 282.101 604.037 282.176C603.575 282.248 603.114 282.409 602.653 282.659C602.197 282.905 601.765 283.232 601.36 283.637L601.349 283.648C600.944 284.053 600.679 284.423 600.554 284.759C600.43 285.094 600.441 285.382 600.59 285.623C600.742 285.86 601.032 286.035 601.459 286.15Z" fill="#484848"/>
<path d="M795.322 114.4L704.525 90.0706C700.257 88.927 694.265 90.5327 691.141 93.6569L672.049 112.749C668.925 115.873 669.852 119.333 674.119 120.476L764.916 144.805C769.184 145.949 775.177 144.343 778.301 141.219L797.393 122.127C800.517 119.003 799.59 115.543 795.322 114.4Z" fill="#1F1F1F"/>
<path d="M706.164 111.376L707.313 110.227L710.211 111.004C710.91 111.191 711.584 111.206 712.233 111.048C712.886 110.887 713.451 110.567 713.93 110.088L713.941 110.077C714.424 109.594 714.602 109.171 714.476 108.805C714.35 108.44 713.938 108.164 713.238 107.976L710.341 107.2L711.501 106.04L714.874 106.944C715.613 107.142 716.149 107.425 716.482 107.795C716.814 108.164 716.936 108.591 716.846 109.076C716.76 109.557 716.45 110.065 715.916 110.599L715.905 110.61C715.375 111.14 714.753 111.565 714.04 111.882C713.33 112.197 712.586 112.392 711.808 112.468C711.034 112.541 710.277 112.478 709.537 112.28L706.164 111.376ZM702.556 113.75L710.527 105.779L712.474 106.301L704.503 114.272L702.556 113.75ZM712.562 116.432L718.6 110.394L720.479 110.897L719.551 111.825L719.679 111.859C720.144 111.573 720.648 111.388 721.191 111.305C721.738 111.223 722.284 111.255 722.827 111.4C722.968 111.438 723.099 111.482 723.22 111.534C723.35 111.582 723.451 111.628 723.523 111.671L722.291 112.903C722.166 112.836 722.031 112.777 721.886 112.724C721.75 112.669 721.599 112.619 721.433 112.575C721.015 112.463 720.594 112.422 720.167 112.453C719.741 112.483 719.336 112.582 718.951 112.75C718.57 112.914 718.236 113.14 717.949 113.427L714.441 116.935L712.562 116.432ZM718.999 118.156L725.037 112.118L726.909 112.62L720.871 118.658L718.999 118.156ZM726.991 111.36C726.684 111.278 726.499 111.128 726.436 110.91C726.373 110.693 726.452 110.473 726.673 110.252C726.902 110.024 727.204 109.862 727.58 109.767C727.96 109.668 728.303 109.659 728.61 109.742C728.917 109.824 729.099 109.973 729.157 110.189C729.224 110.403 729.143 110.625 728.915 110.853C728.694 111.074 728.393 111.234 728.014 111.333C727.639 111.433 727.298 111.442 726.991 111.36ZM723.187 119.279L729.225 113.241L731.104 113.744L730.165 114.683L730.293 114.718C730.805 114.43 731.349 114.246 731.925 114.167C732.507 114.089 733.069 114.123 733.612 114.269C733.985 114.369 734.275 114.503 734.484 114.671C734.697 114.84 734.831 115.034 734.885 115.254C734.939 115.474 734.912 115.712 734.803 115.968L734.939 116.004C735.292 115.823 735.671 115.684 736.074 115.587C736.486 115.487 736.9 115.437 737.315 115.436C737.739 115.433 738.143 115.483 738.525 115.585C739.079 115.734 739.47 115.941 739.701 116.209C739.94 116.473 740.016 116.783 739.929 117.138C739.847 117.495 739.598 117.881 739.182 118.297L735.027 122.451L733.148 121.948L736.966 118.13C737.231 117.865 737.394 117.631 737.457 117.429C737.524 117.227 737.492 117.053 737.359 116.905C737.226 116.757 736.991 116.638 736.654 116.548C736.327 116.46 735.987 116.439 735.635 116.485C735.287 116.527 734.953 116.622 734.633 116.77C734.318 116.919 734.044 117.109 733.812 117.342L730.039 121.115L728.16 120.611L732.077 116.694C732.302 116.47 732.435 116.26 732.476 116.066C732.522 115.873 732.475 115.704 732.333 115.558C732.2 115.411 731.98 115.296 731.673 115.213C731.366 115.131 731.031 115.116 730.666 115.168C730.311 115.217 729.961 115.324 729.618 115.489C729.283 115.652 728.99 115.858 728.74 116.108L725.066 119.782L723.187 119.279ZM739.388 123.746C738.87 123.607 738.478 123.408 738.213 123.151C737.953 122.894 737.839 122.6 737.871 122.268C737.912 121.933 738.117 121.582 738.485 121.213L738.496 121.202C738.853 120.845 739.282 120.57 739.781 120.377C740.284 120.18 740.843 120.071 741.458 120.049C742.073 120.027 742.728 120.092 743.423 120.246L746.61 120.925L745.704 121.831L742.787 121.217C742.237 121.098 741.766 121.074 741.374 121.147C740.983 121.219 740.662 121.381 740.411 121.631L740.4 121.642C740.142 121.9 740.075 122.137 740.198 122.352C740.326 122.568 740.599 122.732 741.016 122.844C741.394 122.945 741.786 122.98 742.193 122.949C742.601 122.918 742.984 122.832 743.343 122.69C743.705 122.544 744.006 122.352 744.246 122.112L746.157 120.201C746.459 119.899 746.558 119.634 746.455 119.405C746.356 119.173 746.049 118.988 745.536 118.851C745.108 118.736 744.704 118.698 744.321 118.735C743.943 118.77 743.606 118.873 743.312 119.046L743.282 119.066L741.509 118.591L741.566 118.544C741.965 118.221 742.443 117.973 742.999 117.8C743.555 117.627 744.152 117.537 744.79 117.53C745.428 117.524 746.071 117.607 746.72 117.781C747.435 117.973 747.957 118.216 748.288 118.51C748.623 118.8 748.766 119.133 748.717 119.507C748.671 119.878 748.437 120.275 748.013 120.698L743.887 124.825L742.03 124.328L742.859 123.499L742.731 123.465C742.388 123.616 742.026 123.729 741.645 123.804C741.268 123.881 740.89 123.915 740.509 123.906C740.129 123.897 739.755 123.844 739.388 123.746ZM746.143 125.43L752.181 119.392L754.06 119.895L753.132 120.823L753.26 120.857C753.725 120.571 754.229 120.386 754.772 120.303C755.319 120.221 755.865 120.253 756.408 120.398C756.549 120.436 756.68 120.48 756.801 120.532C756.931 120.58 757.032 120.626 757.104 120.669L755.872 121.901C755.747 121.834 755.612 121.775 755.467 121.722C755.331 121.667 755.18 121.617 755.014 121.573C754.596 121.461 754.175 121.42 753.748 121.451C753.322 121.481 752.917 121.58 752.532 121.748C752.151 121.912 751.817 122.138 751.53 122.425L748.022 125.933L746.143 125.43ZM751.44 129.539C751.324 129.508 751.205 129.473 751.083 129.436C750.966 129.4 750.853 129.363 750.745 129.324L751.8 128.269C751.868 128.297 751.952 128.324 752.053 128.351C752.15 128.382 752.246 128.41 752.342 128.435C752.729 128.539 753.101 128.56 753.458 128.496C753.816 128.438 754.181 128.286 754.555 128.041L754.929 127.791L758.022 120.957L760.075 121.507L756.9 127.436L757.017 126.669L757.666 126.843L756.538 127.339L764.059 122.574L766.036 123.104L756.907 128.482C756.17 128.919 755.502 129.243 754.905 129.451C754.307 129.66 753.731 129.767 753.177 129.773C752.627 129.78 752.049 129.702 751.44 129.539Z" fill="white"/>
<path d="M741.936 167.786L651.138 143.457C647.137 142.385 641.52 143.89 638.591 146.819L620.206 165.204C617.277 168.133 618.146 171.376 622.147 172.448L712.944 196.777C716.945 197.85 722.563 196.344 725.492 193.415L743.877 175.031C746.806 172.102 745.937 168.858 741.936 167.786Z" stroke="#020013"/>
<path d="M647.232 165.494C646.492 165.295 645.933 165.04 645.554 164.726C645.181 164.413 644.988 164.065 644.975 163.681C644.962 163.298 645.135 162.901 645.495 162.491L645.557 162.422L647.207 162.864L647.165 162.914C646.995 163.118 646.93 163.317 646.97 163.511C647.014 163.707 647.151 163.889 647.38 164.056C647.612 164.221 647.928 164.356 648.328 164.464C648.711 164.566 649.094 164.614 649.476 164.606C649.858 164.598 650.208 164.54 650.527 164.434C650.849 164.324 651.11 164.169 651.309 163.969L651.314 163.964C651.566 163.713 651.636 163.472 651.525 163.243C651.418 163.01 651.104 162.762 650.585 162.5L649.716 162.071C648.89 161.658 648.421 161.226 648.308 160.775C648.203 160.322 648.41 159.836 648.929 159.317L648.934 159.312C649.35 158.896 649.863 158.572 650.475 158.34C651.092 158.109 651.751 157.977 652.453 157.944C653.163 157.91 653.861 157.985 654.548 158.169C655.252 158.357 655.775 158.608 656.116 158.92C656.46 159.229 656.632 159.571 656.63 159.946C656.629 160.322 656.459 160.701 656.12 161.084L656.064 161.149L654.439 160.714L654.484 160.652C654.628 160.458 654.684 160.271 654.652 160.091C654.628 159.908 654.52 159.74 654.327 159.587C654.135 159.433 653.856 159.307 653.491 159.209C653.143 159.116 652.792 159.073 652.439 159.081C652.089 159.085 651.763 159.137 651.463 159.236C651.167 159.336 650.919 159.487 650.72 159.686L650.715 159.691C650.47 159.936 650.397 160.174 650.495 160.405C650.598 160.637 650.902 160.877 651.406 161.127L652.27 161.56C652.836 161.843 653.242 162.125 653.49 162.408C653.737 162.691 653.83 162.986 653.77 163.292C653.716 163.597 653.513 163.926 653.158 164.281L653.153 164.286C652.702 164.737 652.16 165.086 651.528 165.333C650.9 165.582 650.216 165.721 649.477 165.752C648.742 165.783 647.993 165.698 647.232 165.494ZM655.85 167.717C655.133 167.525 654.628 167.248 654.335 166.888C654.047 166.529 653.968 166.108 654.1 165.624C654.232 165.141 654.579 164.618 655.139 164.058L655.144 164.053C655.698 163.499 656.318 163.052 657.004 162.712C657.693 162.374 658.404 162.16 659.136 162.07C659.871 161.977 660.58 162.022 661.262 162.205C661.949 162.389 662.427 162.658 662.698 163.012C662.976 163.365 663.052 163.775 662.924 164.244C662.796 164.712 662.466 165.212 661.934 165.744L661.538 166.14L655.675 164.569L656.482 163.762L661.54 165.117L660.006 165.662L660.485 165.184C660.836 164.832 661.055 164.521 661.142 164.25C661.229 163.979 661.2 163.751 661.057 163.566C660.917 163.381 660.678 163.243 660.339 163.153C660 163.062 659.637 163.042 659.251 163.094C658.872 163.144 658.488 163.265 658.098 163.459C657.717 163.651 657.357 163.916 657.018 164.255L656.535 164.738C656.21 165.064 656.006 165.362 655.923 165.635C655.844 165.903 655.878 166.137 656.026 166.336C656.18 166.533 656.447 166.682 656.826 166.783C657.121 166.862 657.404 166.9 657.677 166.895C657.957 166.888 658.207 166.859 658.426 166.808C658.648 166.753 658.826 166.692 658.959 166.626L659.013 166.597L660.571 167.015L660.514 167.055C660.286 167.21 660.007 167.356 659.675 167.492C659.352 167.626 658.984 167.734 658.573 167.815C658.17 167.895 657.736 167.933 657.273 167.927C656.813 167.918 656.339 167.848 655.85 167.717ZM663.833 169.856C663.107 169.661 662.596 169.385 662.299 169.029C662.004 168.672 661.926 168.25 662.065 167.764C662.205 167.279 662.561 166.749 663.135 166.176L663.145 166.166C663.715 165.596 664.34 165.144 665.019 164.811C665.698 164.478 666.403 164.273 667.134 164.195C667.868 164.114 668.596 164.17 669.318 164.363C669.938 164.53 670.392 164.751 670.679 165.028C670.973 165.303 671.112 165.614 671.094 165.961C671.084 166.306 670.926 166.67 670.621 167.054L670.601 167.073L669.05 166.657L669.058 166.641C669.241 166.363 669.28 166.106 669.176 165.87C669.076 165.635 668.802 165.457 668.353 165.337C667.979 165.236 667.588 165.22 667.181 165.286C666.778 165.354 666.376 165.499 665.974 165.723C665.572 165.946 665.186 166.243 664.815 166.614L664.806 166.623C664.432 166.997 664.181 167.337 664.055 167.642C663.936 167.945 663.938 168.203 664.06 168.415C664.185 168.625 664.435 168.779 664.81 168.88C665.237 168.994 665.651 169.015 666.052 168.943C666.458 168.872 666.85 168.712 667.229 168.462L667.261 168.446L668.811 168.855L668.761 168.897C668.324 169.233 667.838 169.501 667.304 169.701C666.773 169.902 666.214 170.02 665.627 170.055C665.043 170.087 664.445 170.02 663.833 169.856ZM671.658 171.952C670.94 171.76 670.432 171.485 670.131 171.127C669.834 170.765 669.749 170.342 669.877 169.857C670.009 169.374 670.36 168.847 670.93 168.277L670.94 168.267C671.504 167.703 672.131 167.254 672.822 166.92C673.516 166.583 674.231 166.374 674.965 166.293C675.703 166.213 676.431 166.269 677.149 166.462C677.866 166.654 678.373 166.929 678.669 167.286C678.969 167.644 679.056 168.066 678.928 168.55C678.801 169.035 678.453 169.561 677.886 170.128L677.876 170.138C677.306 170.708 676.675 171.16 675.984 171.494C675.298 171.829 674.584 172.038 673.842 172.122C673.108 172.202 672.38 172.146 671.658 171.952ZM672.634 170.976C673.013 171.078 673.403 171.095 673.806 171.027C674.216 170.957 674.622 170.81 675.024 170.587C675.429 170.361 675.817 170.062 676.188 169.691L676.197 169.682C676.571 169.308 676.818 168.972 676.938 168.673C677.062 168.371 677.059 168.115 676.929 167.904C676.806 167.692 676.556 167.535 676.177 167.433C675.799 167.332 675.404 167.316 674.994 167.386C674.587 167.452 674.181 167.599 673.776 167.826C673.374 168.049 672.986 168.347 672.612 168.721L672.602 168.731C672.232 169.101 671.985 169.438 671.861 169.74C671.738 170.042 671.739 170.297 671.865 170.507C671.995 170.717 672.251 170.874 672.634 170.976ZM676.888 173.219L682.171 167.936L683.815 168.377L683.003 169.189L683.116 169.219C683.574 168.978 684.058 168.824 684.567 168.756C685.075 168.688 685.59 168.723 686.109 168.863C686.915 169.078 687.36 169.414 687.446 169.87C687.531 170.326 687.259 170.868 686.631 171.497L683.214 174.914L681.57 174.474L684.707 171.337C685.119 170.924 685.31 170.583 685.278 170.313C685.251 170.044 684.989 169.843 684.491 169.71C684.166 169.623 683.831 169.6 683.487 169.643C683.143 169.686 682.81 169.787 682.489 169.946C682.168 170.105 681.875 170.317 681.611 170.581L678.532 173.66L676.888 173.219ZM687.67 176.219C687.071 176.058 686.659 175.809 686.433 175.47C686.211 175.129 686.184 174.721 686.351 174.247C686.518 173.773 686.878 173.259 687.433 172.705L687.442 172.695C688.003 172.134 688.605 171.683 689.249 171.34C689.9 170.996 690.556 170.773 691.215 170.672C691.882 170.569 692.519 170.599 693.127 170.761C693.457 170.85 693.726 170.971 693.935 171.125C694.147 171.276 694.292 171.449 694.369 171.646C694.45 171.843 694.458 172.054 694.391 172.277L694.51 172.309L697.396 169.423L699.033 169.862L691.705 177.19L690.068 176.751L690.894 175.924L690.775 175.892C690.453 176.047 690.115 176.165 689.761 176.245C689.414 176.325 689.063 176.363 688.707 176.362C688.354 176.357 688.009 176.309 687.67 176.219ZM689.2 175.342C689.574 175.442 689.963 175.46 690.367 175.397C690.778 175.331 691.184 175.191 691.584 174.975C691.991 174.757 692.37 174.473 692.722 174.122L692.731 174.112C693.086 173.758 693.316 173.433 693.42 173.138C693.53 172.845 693.517 172.592 693.383 172.381C693.253 172.17 693.001 172.015 692.627 171.914C692.257 171.815 691.866 171.799 691.455 171.864C691.051 171.927 690.647 172.068 690.244 172.287C689.845 172.503 689.467 172.788 689.113 173.142L689.103 173.152C688.749 173.507 688.517 173.831 688.408 174.124C688.298 174.418 688.309 174.67 688.439 174.88C688.572 175.087 688.825 175.241 689.2 175.342ZM695.659 178.359C695.206 178.238 694.863 178.064 694.631 177.839C694.403 177.614 694.304 177.357 694.332 177.066C694.368 176.773 694.547 176.466 694.869 176.144L694.879 176.134C695.192 175.821 695.566 175.581 696.003 175.412C696.443 175.239 696.932 175.144 697.471 175.125C698.009 175.105 698.582 175.163 699.19 175.297L701.979 175.891L701.186 176.684L698.633 176.147C698.152 176.043 697.74 176.022 697.397 176.086C697.055 176.149 696.774 176.29 696.555 176.509L696.545 176.519C696.319 176.745 696.261 176.951 696.368 177.14C696.48 177.329 696.719 177.473 697.084 177.571C697.414 177.659 697.758 177.69 698.114 177.663C698.47 177.636 698.806 177.56 699.12 177.436C699.437 177.308 699.7 177.14 699.91 176.93L701.582 175.258C701.846 174.994 701.933 174.762 701.843 174.562C701.756 174.358 701.488 174.197 701.039 174.076C700.665 173.976 700.31 173.943 699.976 173.976C699.645 174.005 699.35 174.096 699.093 174.248L699.067 174.265L697.515 173.849L697.565 173.808C697.915 173.525 698.332 173.308 698.819 173.157C699.305 173.005 699.828 172.927 700.386 172.921C700.944 172.915 701.507 172.989 702.075 173.141C702.7 173.308 703.158 173.521 703.447 173.778C703.74 174.032 703.865 174.323 703.822 174.651C703.782 174.975 703.577 175.323 703.206 175.693L699.596 179.304L697.971 178.869L698.696 178.144L698.584 178.113C698.284 178.246 697.968 178.345 697.634 178.411C697.305 178.478 696.974 178.507 696.641 178.5C696.308 178.492 695.981 178.445 695.659 178.359ZM701.57 179.833L706.853 174.55L708.497 174.99L707.685 175.802L707.798 175.832C708.204 175.582 708.645 175.42 709.12 175.347C709.599 175.275 710.077 175.303 710.552 175.43C710.675 175.463 710.79 175.502 710.896 175.547C711.01 175.59 711.098 175.63 711.161 175.667L710.083 176.745C709.974 176.687 709.855 176.635 709.729 176.589C709.61 176.54 709.477 176.497 709.332 176.458C708.967 176.36 708.598 176.325 708.225 176.351C707.852 176.378 707.497 176.465 707.161 176.612C706.827 176.755 706.535 176.953 706.284 177.204L703.214 180.273L701.57 179.833ZM706.205 183.428C706.103 183.401 705.999 183.371 705.893 183.338C705.79 183.307 705.691 183.275 705.596 183.241L706.52 182.318C706.58 182.342 706.653 182.366 706.741 182.389C706.826 182.416 706.911 182.44 706.994 182.463C707.333 182.553 707.659 182.572 707.971 182.516C708.284 182.466 708.604 182.333 708.93 182.118L709.258 181.899L711.964 175.919L713.76 176.4L710.982 181.589L711.085 180.918L711.653 181.07L710.665 181.504L717.246 177.334L718.976 177.798L710.989 182.504C710.343 182.887 709.759 183.169 709.236 183.352C708.713 183.535 708.209 183.628 707.725 183.633C707.244 183.639 706.737 183.571 706.205 183.428Z" fill="#020013"/>
<path d="M689.963 219.758L599.166 195.429C594.898 194.286 588.906 195.892 585.782 199.016L566.69 218.108C563.566 221.232 564.493 224.692 568.761 225.835L659.558 250.164C663.825 251.308 669.818 249.702 672.942 246.578L692.034 227.486C695.158 224.362 694.231 220.902 689.963 219.758Z" fill="url(#paint1_linear_24_293)"/>
<path d="M599.491 219.724L611.326 212.788L612.941 213.221L611.461 214.701L610.88 214.545L601.528 220.27L599.491 219.724ZM603.498 218.185L605.103 217.221L610.099 218.56L609.505 219.795L603.498 218.185ZM607.377 221.837L611.008 214.579L612.488 213.099L613.514 213.374L609.414 222.383L607.377 221.837ZM614.054 223.781C613.224 223.558 612.64 223.243 612.302 222.835C611.964 222.426 611.874 221.945 612.034 221.39C612.193 220.835 612.601 220.23 613.256 219.574L613.268 219.563C613.92 218.911 614.633 218.395 615.409 218.015C616.185 217.634 616.991 217.399 617.826 217.31C618.665 217.218 619.497 217.282 620.322 217.503C621.032 217.693 621.551 217.946 621.878 218.263C622.214 218.577 622.372 218.933 622.352 219.329C622.342 219.722 622.161 220.139 621.812 220.577L621.79 220.599L620.017 220.124L620.025 220.106C620.235 219.788 620.28 219.494 620.16 219.225C620.046 218.956 619.733 218.753 619.22 218.615C618.792 218.501 618.346 218.481 617.88 218.557C617.42 218.635 616.96 218.801 616.501 219.057C616.041 219.312 615.6 219.651 615.177 220.074L615.165 220.086C614.738 220.513 614.453 220.901 614.308 221.249C614.172 221.596 614.174 221.891 614.313 222.134C614.457 222.373 614.742 222.55 615.17 222.665C615.658 222.795 616.132 222.819 616.591 222.737C617.054 222.656 617.503 222.472 617.935 222.186L617.972 222.168L619.744 222.636L619.686 222.684C619.187 223.069 618.631 223.375 618.02 223.603C617.414 223.833 616.775 223.968 616.105 224.007C615.437 224.043 614.754 223.968 614.054 223.781ZM622.974 226.171C622.144 225.948 621.56 225.633 621.221 225.225C620.884 224.816 620.794 224.335 620.954 223.78C621.113 223.225 621.521 222.62 622.176 221.964L622.187 221.953C622.839 221.301 623.553 220.785 624.329 220.405C625.105 220.024 625.911 219.789 626.746 219.7C627.585 219.608 628.417 219.672 629.242 219.893C629.951 220.083 630.47 220.336 630.797 220.653C631.134 220.967 631.292 221.323 631.272 221.719C631.261 222.112 631.08 222.529 630.732 222.967L630.71 222.989L628.936 222.514L628.945 222.496C629.154 222.178 629.199 221.884 629.08 221.615C628.966 221.346 628.653 221.143 628.139 221.005C627.712 220.891 627.265 220.871 626.8 220.947C626.34 221.025 625.88 221.191 625.421 221.447C624.961 221.702 624.52 222.041 624.097 222.465L624.085 222.476C623.658 222.903 623.372 223.291 623.228 223.639C623.091 223.987 623.093 224.281 623.233 224.524C623.377 224.763 623.662 224.94 624.09 225.055C624.578 225.185 625.051 225.209 625.51 225.127C625.974 225.046 626.423 224.862 626.855 224.576L626.892 224.558L628.664 225.026L628.606 225.074C628.106 225.459 627.551 225.765 626.94 225.993C626.334 226.224 625.695 226.358 625.025 226.397C624.357 226.433 623.673 226.358 622.974 226.171ZM631.886 228.559C631.066 228.339 630.489 228.023 630.154 227.611C629.825 227.2 629.736 226.719 629.886 226.167C630.037 225.614 630.433 225.017 631.074 224.376L631.079 224.371C631.713 223.737 632.421 223.227 633.205 222.838C633.993 222.452 634.805 222.208 635.641 222.105C636.481 221.999 637.291 222.05 638.071 222.259C638.856 222.469 639.403 222.777 639.712 223.182C640.031 223.584 640.116 224.054 639.97 224.589C639.824 225.124 639.447 225.696 638.84 226.303L638.387 226.756L631.686 224.961L632.608 224.038L638.389 225.587L636.636 226.21L637.184 225.663C637.585 225.262 637.835 224.906 637.934 224.596C638.034 224.287 638.001 224.026 637.836 223.814C637.677 223.603 637.404 223.446 637.017 223.342C636.63 223.238 636.215 223.216 635.773 223.275C635.34 223.332 634.901 223.471 634.456 223.693C634.019 223.912 633.609 224.214 633.222 224.601L632.669 225.154C632.297 225.526 632.064 225.867 631.97 226.178C631.879 226.486 631.919 226.753 632.086 226.98C632.264 227.205 632.569 227.375 633.002 227.491C633.339 227.581 633.662 227.624 633.974 227.619C634.294 227.611 634.58 227.578 634.83 227.519C635.084 227.456 635.287 227.387 635.439 227.311L635.501 227.279L637.282 227.756L637.217 227.801C636.957 227.979 636.637 228.146 636.258 228.301C635.888 228.454 635.469 228.577 634.998 228.671C634.537 228.762 634.042 228.804 633.513 228.798C632.987 228.788 632.445 228.708 631.886 228.559ZM637.592 229.933L643.63 223.895L645.509 224.399L644.581 225.326L644.71 225.361C645.233 225.086 645.786 224.91 646.367 224.832C646.949 224.754 647.537 224.795 648.13 224.954C649.051 225.201 649.56 225.585 649.658 226.106C649.755 226.627 649.445 227.247 648.727 227.965L644.821 231.87L642.942 231.367L646.527 227.782C646.999 227.31 647.217 226.92 647.181 226.612C647.15 226.304 646.85 226.075 646.281 225.923C645.909 225.823 645.526 225.798 645.133 225.846C644.74 225.894 644.36 226.01 643.993 226.192C643.626 226.374 643.292 226.616 642.99 226.917L639.471 230.437L637.592 229.933ZM650.257 233.362C649.311 233.108 648.757 232.798 648.593 232.433C648.43 232.067 648.637 231.595 649.216 231.016L652.585 227.647L651.302 227.303L652.369 226.237L653.652 226.58L655.132 225.1L657.041 225.611L655.561 227.092L657.296 227.557L656.23 228.623L654.494 228.158L651.451 231.202C651.153 231.5 651.019 231.742 651.05 231.928C651.09 232.112 651.303 232.255 651.691 232.359C651.827 232.395 651.939 232.424 652.028 232.442C652.126 232.459 652.234 232.479 652.352 232.501L651.292 233.562C651.142 233.545 650.977 233.52 650.794 233.485C650.618 233.451 650.438 233.41 650.257 233.362Z" fill="white"/>
</g>
</g>
<defs>
<linearGradient id="paint0_linear_24_293" x1="288.872" y1="265.356" x2="342.454" y2="318.938" gradientUnits="userSpaceOnUse">
<stop stop-color="#E6431F"/>
<stop offset="1" stop-color="#DB250B"/>
</linearGradient>
<linearGradient id="paint1_linear_24_293" x1="603.219" y1="216.24" x2="637.88" y2="250.902" gradientUnits="userSpaceOnUse">
<stop stop-color="#E6431F"/>
<stop offset="1" stop-color="#DB240B"/>
</linearGradient>
<clipPath id="clip0_24_293">
<rect width="1024" height="426" rx="24" fill="white"/>
</clipPath>
<clipPath id="clip1_24_293">
<rect width="192" height="354" fill="white" transform="matrix(0.965926 0.258819 -0.707107 0.707107 470.316 19)"/>
</clipPath>
<clipPath id="clip2_24_293">
<rect width="110" height="267" fill="white" transform="matrix(0.965926 0.258819 -0.707107 0.707107 696.798 88)"/>
</clipPath>
</defs>
</svg>
