<svg width="740" height="275" viewBox="0 0 740 275" fill="none" xmlns="http://www.w3.org/2000/svg">
<g clip-path="url(#clip0_101_153)">
<rect width="740" height="275" rx="24" fill="white"/>
<rect x="275" y="113" width="190" height="49" rx="7" fill="#DDDDDD"/>
<rect x="275" y="113" width="190" height="49" rx="7" stroke="#DDDDDD" stroke-width="2"/>
<path d="M337.117 143V131.727H341.344C342.464 131.727 343.417 131.945 344.203 132.383C344.995 132.82 345.599 133.456 346.016 134.289C346.438 135.122 346.648 136.128 346.648 137.305V137.32C346.648 138.523 346.44 139.549 346.023 140.398C345.607 141.242 345.003 141.888 344.211 142.336C343.424 142.779 342.469 143 341.344 143H337.117ZM339.133 141.305H341.078C341.823 141.305 342.458 141.151 342.984 140.844C343.51 140.536 343.909 140.089 344.18 139.5C344.456 138.911 344.594 138.195 344.594 137.352V137.336C344.594 136.513 344.453 135.81 344.172 135.227C343.896 134.638 343.495 134.19 342.969 133.883C342.443 133.576 341.812 133.422 341.078 133.422H339.133V141.305ZM348.781 143V134.461H350.719V143H348.781ZM349.758 133.031C349.44 133.031 349.167 132.919 348.938 132.695C348.708 132.471 348.594 132.203 348.594 131.891C348.594 131.568 348.708 131.297 348.938 131.078C349.167 130.854 349.44 130.742 349.758 130.742C350.076 130.742 350.346 130.854 350.57 131.078C350.799 131.297 350.914 131.568 350.914 131.891C350.914 132.203 350.799 132.471 350.57 132.695C350.346 132.919 350.076 133.031 349.758 133.031ZM356.344 143.172C355.62 143.172 354.995 143.07 354.469 142.867C353.948 142.659 353.536 142.372 353.234 142.008C352.932 141.638 352.753 141.211 352.695 140.727V140.711H354.625L354.633 140.727C354.737 141.023 354.932 141.266 355.219 141.453C355.505 141.641 355.891 141.734 356.375 141.734C356.698 141.734 356.982 141.69 357.227 141.602C357.471 141.508 357.664 141.38 357.805 141.219C357.945 141.057 358.016 140.87 358.016 140.656V140.641C358.016 140.391 357.914 140.182 357.711 140.016C357.508 139.844 357.172 139.706 356.703 139.602L355.32 139.289C354.779 139.169 354.331 139.003 353.977 138.789C353.622 138.576 353.357 138.312 353.18 138C353.008 137.688 352.922 137.323 352.922 136.906V136.898C352.922 136.383 353.065 135.93 353.352 135.539C353.643 135.148 354.047 134.844 354.562 134.625C355.078 134.406 355.672 134.297 356.344 134.297C357.036 134.297 357.633 134.401 358.133 134.609C358.633 134.818 359.023 135.104 359.305 135.469C359.586 135.833 359.747 136.247 359.789 136.711V136.727H357.961L357.953 136.703C357.88 136.432 357.706 136.203 357.43 136.016C357.159 135.823 356.794 135.727 356.336 135.727C356.049 135.727 355.792 135.771 355.562 135.859C355.339 135.948 355.161 136.073 355.031 136.234C354.906 136.391 354.844 136.576 354.844 136.789V136.797C354.844 136.964 354.885 137.109 354.969 137.234C355.057 137.359 355.195 137.469 355.383 137.562C355.57 137.656 355.818 137.74 356.125 137.812L357.508 138.117C358.346 138.305 358.966 138.583 359.367 138.953C359.768 139.323 359.969 139.82 359.969 140.445V140.461C359.969 141.003 359.812 141.477 359.5 141.883C359.188 142.289 358.758 142.607 358.211 142.836C357.664 143.06 357.042 143.172 356.344 143.172ZM364.258 143.141C363.721 143.141 363.24 143.036 362.812 142.828C362.391 142.62 362.057 142.326 361.812 141.945C361.573 141.56 361.453 141.107 361.453 140.586V140.57C361.453 140.065 361.578 139.63 361.828 139.266C362.078 138.896 362.445 138.607 362.93 138.398C363.414 138.19 364.003 138.068 364.695 138.031L367.852 137.836V139.117L364.969 139.305C364.422 139.336 364.018 139.451 363.758 139.648C363.497 139.846 363.367 140.122 363.367 140.477V140.492C363.367 140.857 363.505 141.141 363.781 141.344C364.062 141.547 364.419 141.648 364.852 141.648C365.242 141.648 365.591 141.57 365.898 141.414C366.206 141.258 366.448 141.047 366.625 140.781C366.802 140.51 366.891 140.206 366.891 139.867V137.164C366.891 136.737 366.755 136.411 366.484 136.188C366.214 135.958 365.812 135.844 365.281 135.844C364.839 135.844 364.477 135.922 364.195 136.078C363.914 136.229 363.724 136.445 363.625 136.727L363.617 136.758H361.781L361.789 136.688C361.852 136.208 362.039 135.789 362.352 135.43C362.664 135.07 363.078 134.792 363.594 134.594C364.109 134.396 364.703 134.297 365.375 134.297C366.115 134.297 366.74 134.411 367.25 134.641C367.76 134.865 368.148 135.193 368.414 135.625C368.68 136.052 368.812 136.565 368.812 137.164V143H366.891V141.828H366.758C366.602 142.099 366.398 142.333 366.148 142.531C365.904 142.729 365.622 142.88 365.305 142.984C364.987 143.089 364.638 143.141 364.258 143.141ZM375.898 143.141C375.497 143.141 375.13 143.083 374.797 142.969C374.464 142.849 374.169 142.68 373.914 142.461C373.664 142.237 373.461 141.971 373.305 141.664H373.172V143H371.227V131.156H373.172V135.82H373.305C373.456 135.513 373.659 135.247 373.914 135.023C374.169 134.799 374.466 134.628 374.805 134.508C375.143 134.383 375.508 134.32 375.898 134.32C376.617 134.32 377.237 134.5 377.758 134.859C378.284 135.214 378.69 135.721 378.977 136.383C379.263 137.039 379.406 137.82 379.406 138.727V138.742C379.406 139.638 379.26 140.417 378.969 141.078C378.682 141.74 378.276 142.25 377.75 142.609C377.229 142.964 376.612 143.141 375.898 143.141ZM375.289 141.5C375.732 141.5 376.112 141.391 376.43 141.172C376.747 140.948 376.992 140.63 377.164 140.219C377.336 139.807 377.422 139.315 377.422 138.742V138.727C377.422 138.154 377.336 137.661 377.164 137.25C376.992 136.833 376.747 136.516 376.43 136.297C376.112 136.073 375.732 135.961 375.289 135.961C374.852 135.961 374.471 136.073 374.148 136.297C373.826 136.521 373.576 136.839 373.398 137.25C373.227 137.661 373.141 138.154 373.141 138.727V138.742C373.141 139.31 373.227 139.802 373.398 140.219C373.576 140.63 373.823 140.948 374.141 141.172C374.464 141.391 374.846 141.5 375.289 141.5ZM381.43 143V131.156H383.375V143H381.43ZM389.477 143.172C388.628 143.172 387.898 142.992 387.289 142.633C386.685 142.273 386.219 141.763 385.891 141.102C385.562 140.44 385.398 139.656 385.398 138.75V138.742C385.398 137.846 385.56 137.065 385.883 136.398C386.211 135.732 386.674 135.216 387.273 134.852C387.872 134.482 388.576 134.297 389.383 134.297C390.195 134.297 390.893 134.477 391.477 134.836C392.065 135.19 392.518 135.688 392.836 136.328C393.154 136.969 393.312 137.719 393.312 138.578V139.219H386.375V137.914H392.359L391.438 139.133V138.359C391.438 137.792 391.352 137.32 391.18 136.945C391.008 136.57 390.768 136.289 390.461 136.102C390.159 135.914 389.807 135.82 389.406 135.82C389.005 135.82 388.648 135.919 388.336 136.117C388.029 136.31 387.784 136.596 387.602 136.977C387.424 137.352 387.336 137.812 387.336 138.359V139.141C387.336 139.667 387.424 140.117 387.602 140.492C387.779 140.862 388.029 141.148 388.352 141.352C388.68 141.549 389.068 141.648 389.516 141.648C389.865 141.648 390.164 141.599 390.414 141.5C390.669 141.396 390.875 141.273 391.031 141.133C391.188 140.987 391.297 140.849 391.359 140.719L391.383 140.664H393.227L393.211 140.734C393.143 141.01 393.018 141.292 392.836 141.578C392.659 141.859 392.417 142.122 392.109 142.367C391.807 142.607 391.438 142.802 391 142.953C390.562 143.099 390.055 143.172 389.477 143.172ZM398.336 143.141C397.628 143.141 397.01 142.964 396.484 142.609C395.958 142.25 395.552 141.74 395.266 141.078C394.979 140.417 394.836 139.638 394.836 138.742V138.727C394.836 137.82 394.977 137.039 395.258 136.383C395.544 135.721 395.948 135.214 396.469 134.859C396.995 134.5 397.617 134.32 398.336 134.32C398.727 134.32 399.091 134.383 399.43 134.508C399.768 134.628 400.065 134.799 400.32 135.023C400.581 135.247 400.784 135.513 400.93 135.82H401.07V131.156H403.008V143H401.07V141.664H400.93C400.773 141.971 400.568 142.237 400.312 142.461C400.062 142.68 399.771 142.849 399.438 142.969C399.104 143.083 398.737 143.141 398.336 143.141ZM398.945 141.5C399.388 141.5 399.768 141.391 400.086 141.172C400.409 140.948 400.656 140.63 400.828 140.219C401.005 139.802 401.094 139.31 401.094 138.742V138.727C401.094 138.154 401.005 137.661 400.828 137.25C400.656 136.839 400.409 136.521 400.086 136.297C399.768 136.073 399.388 135.961 398.945 135.961C398.508 135.961 398.128 136.073 397.805 136.297C397.487 136.516 397.242 136.833 397.07 137.25C396.898 137.661 396.812 138.154 396.812 138.727V138.742C396.812 139.315 396.898 139.807 397.07 140.219C397.242 140.63 397.487 140.948 397.805 141.172C398.122 141.391 398.503 141.5 398.945 141.5Z" fill="#484848"/>
</g>
<defs>
<clipPath id="clip0_101_153">
<rect width="740" height="275" rx="24" fill="white"/>
</clipPath>
</defs>
</svg>
