<svg width="740" height="275" viewBox="0 0 740 275" fill="none" xmlns="http://www.w3.org/2000/svg">
<g clip-path="url(#clip0_101_153)">
<rect width="740" height="275" rx="24" fill="white"/>
<rect x="275" y="113" width="190" height="49" rx="7" stroke="#020013" stroke-width="2"/>
<path d="M333.203 143.281C332.328 143.281 331.568 143.146 330.922 142.875C330.281 142.604 329.776 142.227 329.406 141.742C329.036 141.258 328.828 140.693 328.781 140.047L328.773 139.938H330.727L330.734 140.016C330.766 140.333 330.891 140.609 331.109 140.844C331.333 141.078 331.63 141.263 332 141.398C332.37 141.529 332.792 141.594 333.266 141.594C333.719 141.594 334.12 141.523 334.469 141.383C334.818 141.242 335.091 141.049 335.289 140.805C335.487 140.555 335.586 140.268 335.586 139.945V139.938C335.586 139.531 335.427 139.201 335.109 138.945C334.792 138.685 334.268 138.477 333.539 138.32L332.328 138.07C331.172 137.826 330.331 137.435 329.805 136.898C329.284 136.357 329.023 135.667 329.023 134.828V134.82C329.023 134.148 329.201 133.56 329.555 133.055C329.914 132.549 330.406 132.156 331.031 131.875C331.661 131.589 332.383 131.445 333.195 131.445C334.029 131.445 334.75 131.586 335.359 131.867C335.969 132.143 336.448 132.521 336.797 133C337.146 133.479 337.341 134.021 337.383 134.625L337.391 134.727H335.469L335.453 134.633C335.406 134.336 335.284 134.078 335.086 133.859C334.893 133.635 334.635 133.458 334.312 133.328C333.99 133.198 333.612 133.133 333.18 133.133C332.768 133.133 332.401 133.198 332.078 133.328C331.755 133.453 331.5 133.63 331.312 133.859C331.13 134.089 331.039 134.365 331.039 134.688V134.695C331.039 135.091 331.193 135.419 331.5 135.68C331.812 135.94 332.32 136.143 333.023 136.289L334.234 136.547C335.026 136.714 335.669 136.935 336.164 137.211C336.659 137.487 337.021 137.831 337.25 138.242C337.484 138.648 337.602 139.138 337.602 139.711V139.719C337.602 140.448 337.422 141.078 337.062 141.609C336.708 142.141 336.201 142.552 335.539 142.844C334.883 143.135 334.104 143.281 333.203 143.281ZM343.32 143.172C342.471 143.172 341.742 142.992 341.133 142.633C340.529 142.273 340.062 141.763 339.734 141.102C339.406 140.44 339.242 139.656 339.242 138.75V138.742C339.242 137.846 339.404 137.065 339.727 136.398C340.055 135.732 340.518 135.216 341.117 134.852C341.716 134.482 342.419 134.297 343.227 134.297C344.039 134.297 344.737 134.477 345.32 134.836C345.909 135.19 346.362 135.688 346.68 136.328C346.997 136.969 347.156 137.719 347.156 138.578V139.219H340.219V137.914H346.203L345.281 139.133V138.359C345.281 137.792 345.195 137.32 345.023 136.945C344.852 136.57 344.612 136.289 344.305 136.102C344.003 135.914 343.651 135.82 343.25 135.82C342.849 135.82 342.492 135.919 342.18 136.117C341.872 136.31 341.628 136.596 341.445 136.977C341.268 137.352 341.18 137.812 341.18 138.359V139.141C341.18 139.667 341.268 140.117 341.445 140.492C341.622 140.862 341.872 141.148 342.195 141.352C342.523 141.549 342.911 141.648 343.359 141.648C343.708 141.648 344.008 141.599 344.258 141.5C344.513 141.396 344.719 141.273 344.875 141.133C345.031 140.987 345.141 140.849 345.203 140.719L345.227 140.664H347.07L347.055 140.734C346.987 141.01 346.862 141.292 346.68 141.578C346.503 141.859 346.26 142.122 345.953 142.367C345.651 142.607 345.281 142.802 344.844 142.953C344.406 143.099 343.898 143.172 343.32 143.172ZM352.766 143.172C351.906 143.172 351.172 142.995 350.562 142.641C349.953 142.286 349.487 141.776 349.164 141.109C348.841 140.443 348.68 139.646 348.68 138.719V138.703C348.68 137.781 348.841 136.992 349.164 136.336C349.487 135.68 349.953 135.177 350.562 134.828C351.172 134.474 351.904 134.297 352.758 134.297C353.492 134.297 354.122 134.424 354.648 134.68C355.18 134.93 355.599 135.279 355.906 135.727C356.219 136.169 356.411 136.688 356.484 137.281V137.312H354.648L354.641 137.289C354.552 136.872 354.349 136.531 354.031 136.266C353.719 136 353.297 135.867 352.766 135.867C352.323 135.867 351.943 135.979 351.625 136.203C351.312 136.427 351.073 136.75 350.906 137.172C350.74 137.594 350.656 138.104 350.656 138.703V138.719C350.656 139.323 350.74 139.841 350.906 140.273C351.078 140.701 351.32 141.029 351.633 141.258C351.945 141.482 352.323 141.594 352.766 141.594C353.271 141.594 353.677 141.479 353.984 141.25C354.297 141.021 354.513 140.682 354.633 140.234L354.648 140.203L356.477 140.195L356.469 140.266C356.375 140.844 356.172 141.352 355.859 141.789C355.552 142.227 355.141 142.568 354.625 142.812C354.109 143.052 353.49 143.172 352.766 143.172ZM362.023 143.172C361.174 143.172 360.443 142.995 359.828 142.641C359.214 142.281 358.74 141.771 358.406 141.109C358.078 140.448 357.914 139.656 357.914 138.734V138.719C357.914 137.807 358.081 137.021 358.414 136.359C358.747 135.693 359.219 135.182 359.828 134.828C360.443 134.474 361.174 134.297 362.023 134.297C362.872 134.297 363.602 134.474 364.211 134.828C364.826 135.182 365.299 135.69 365.633 136.352C365.966 137.013 366.133 137.802 366.133 138.719V138.734C366.133 139.656 365.966 140.448 365.633 141.109C365.305 141.771 364.833 142.281 364.219 142.641C363.609 142.995 362.878 143.172 362.023 143.172ZM362.023 141.594C362.471 141.594 362.852 141.482 363.164 141.258C363.482 141.029 363.724 140.703 363.891 140.281C364.057 139.854 364.141 139.341 364.141 138.742V138.727C364.141 138.122 364.057 137.609 363.891 137.188C363.724 136.76 363.482 136.435 363.164 136.211C362.852 135.982 362.471 135.867 362.023 135.867C361.576 135.867 361.193 135.982 360.875 136.211C360.557 136.435 360.315 136.76 360.148 137.188C359.982 137.609 359.898 138.122 359.898 138.727V138.742C359.898 139.341 359.982 139.854 360.148 140.281C360.315 140.708 360.555 141.034 360.867 141.258C361.185 141.482 361.57 141.594 362.023 141.594ZM368.086 143V134.461H370.031V135.773H370.164C370.367 135.31 370.674 134.948 371.086 134.688C371.497 134.427 372.01 134.297 372.625 134.297C373.578 134.297 374.307 134.573 374.812 135.125C375.318 135.677 375.57 136.461 375.57 137.477V143H373.625V137.93C373.625 137.263 373.484 136.763 373.203 136.43C372.927 136.096 372.495 135.93 371.906 135.93C371.521 135.93 371.188 136.016 370.906 136.188C370.625 136.359 370.409 136.602 370.258 136.914C370.107 137.227 370.031 137.596 370.031 138.023V143H368.086ZM380.945 143.141C380.237 143.141 379.62 142.964 379.094 142.609C378.568 142.25 378.161 141.74 377.875 141.078C377.589 140.417 377.445 139.638 377.445 138.742V138.727C377.445 137.82 377.586 137.039 377.867 136.383C378.154 135.721 378.557 135.214 379.078 134.859C379.604 134.5 380.227 134.32 380.945 134.32C381.336 134.32 381.701 134.383 382.039 134.508C382.378 134.628 382.674 134.799 382.93 135.023C383.19 135.247 383.393 135.513 383.539 135.82H383.68V131.156H385.617V143H383.68V141.664H383.539C383.383 141.971 383.177 142.237 382.922 142.461C382.672 142.68 382.38 142.849 382.047 142.969C381.714 143.083 381.346 143.141 380.945 143.141ZM381.555 141.5C381.997 141.5 382.378 141.391 382.695 141.172C383.018 140.948 383.266 140.63 383.438 140.219C383.615 139.802 383.703 139.31 383.703 138.742V138.727C383.703 138.154 383.615 137.661 383.438 137.25C383.266 136.839 383.018 136.521 382.695 136.297C382.378 136.073 381.997 135.961 381.555 135.961C381.117 135.961 380.737 136.073 380.414 136.297C380.096 136.516 379.852 136.833 379.68 137.25C379.508 137.661 379.422 138.154 379.422 138.727V138.742C379.422 139.315 379.508 139.807 379.68 140.219C379.852 140.63 380.096 140.948 380.414 141.172C380.732 141.391 381.112 141.5 381.555 141.5ZM390.398 143.141C389.862 143.141 389.38 143.036 388.953 142.828C388.531 142.62 388.198 142.326 387.953 141.945C387.714 141.56 387.594 141.107 387.594 140.586V140.57C387.594 140.065 387.719 139.63 387.969 139.266C388.219 138.896 388.586 138.607 389.07 138.398C389.555 138.19 390.143 138.068 390.836 138.031L393.992 137.836V139.117L391.109 139.305C390.562 139.336 390.159 139.451 389.898 139.648C389.638 139.846 389.508 140.122 389.508 140.477V140.492C389.508 140.857 389.646 141.141 389.922 141.344C390.203 141.547 390.56 141.648 390.992 141.648C391.383 141.648 391.732 141.57 392.039 141.414C392.346 141.258 392.589 141.047 392.766 140.781C392.943 140.51 393.031 140.206 393.031 139.867V137.164C393.031 136.737 392.896 136.411 392.625 136.188C392.354 135.958 391.953 135.844 391.422 135.844C390.979 135.844 390.617 135.922 390.336 136.078C390.055 136.229 389.865 136.445 389.766 136.727L389.758 136.758H387.922L387.93 136.688C387.992 136.208 388.18 135.789 388.492 135.43C388.805 135.07 389.219 134.792 389.734 134.594C390.25 134.396 390.844 134.297 391.516 134.297C392.255 134.297 392.88 134.411 393.391 134.641C393.901 134.865 394.289 135.193 394.555 135.625C394.82 136.052 394.953 136.565 394.953 137.164V143H393.031V141.828H392.898C392.742 142.099 392.539 142.333 392.289 142.531C392.044 142.729 391.763 142.88 391.445 142.984C391.128 143.089 390.779 143.141 390.398 143.141ZM397.289 143V134.461H399.234V135.773H399.367C399.513 135.315 399.773 134.958 400.148 134.703C400.529 134.448 401 134.32 401.562 134.32C401.708 134.32 401.852 134.331 401.992 134.352C402.138 134.367 402.258 134.388 402.352 134.414V136.156C402.195 136.12 402.036 136.094 401.875 136.078C401.719 136.057 401.555 136.047 401.383 136.047C400.951 136.047 400.573 136.128 400.25 136.289C399.927 136.451 399.677 136.682 399.5 136.984C399.323 137.281 399.234 137.633 399.234 138.039V143H397.289ZM404.969 146C404.849 146 404.724 145.997 404.594 145.992C404.469 145.987 404.346 145.979 404.227 145.969V144.477C404.305 144.487 404.396 144.492 404.5 144.492C404.604 144.497 404.706 144.5 404.805 144.5C405.206 144.5 405.526 144.411 405.766 144.234C406.01 144.062 406.185 143.784 406.289 143.398L406.391 143.008L403.336 134.461H405.461L407.711 142.023L407.18 141.133H407.852L407.336 142.023L409.586 134.461H411.633L408.57 143.188C408.326 143.896 408.044 144.456 407.727 144.867C407.409 145.279 407.026 145.57 406.578 145.742C406.135 145.914 405.599 146 404.969 146Z" fill="#111111"/>
</g>
<defs>
<clipPath id="clip0_101_153">
<rect width="740" height="275" rx="24" fill="white"/>
</clipPath>
</defs>
</svg>
