<svg width="740" height="275" viewBox="0 0 740 275" fill="none" xmlns="http://www.w3.org/2000/svg">
<g clip-path="url(#clip0_101_153)">
<rect width="740" height="275" rx="24" fill="white"/>
<rect x="274" y="112" width="192" height="51" rx="8" fill="url(#paint0_linear_101_153)"/>
<path d="M343.102 143L347.102 131.727H348.773V133.82H348.172L345.211 143H343.102ZM345.117 140.086L345.641 138.531H350.812L351.336 140.086H345.117ZM351.266 143L348.305 133.82V131.727H349.367L353.375 143H351.266ZM358.305 143.172C357.445 143.172 356.711 142.995 356.102 142.641C355.492 142.286 355.026 141.776 354.703 141.109C354.38 140.443 354.219 139.646 354.219 138.719V138.703C354.219 137.781 354.38 136.992 354.703 136.336C355.026 135.68 355.492 135.177 356.102 134.828C356.711 134.474 357.443 134.297 358.297 134.297C359.031 134.297 359.661 134.424 360.188 134.68C360.719 134.93 361.138 135.279 361.445 135.727C361.758 136.169 361.951 136.688 362.023 137.281V137.312H360.188L360.18 137.289C360.091 136.872 359.888 136.531 359.57 136.266C359.258 136 358.836 135.867 358.305 135.867C357.862 135.867 357.482 135.979 357.164 136.203C356.852 136.427 356.612 136.75 356.445 137.172C356.279 137.594 356.195 138.104 356.195 138.703V138.719C356.195 139.323 356.279 139.841 356.445 140.273C356.617 140.701 356.859 141.029 357.172 141.258C357.484 141.482 357.862 141.594 358.305 141.594C358.81 141.594 359.216 141.479 359.523 141.25C359.836 141.021 360.052 140.682 360.172 140.234L360.188 140.203L362.016 140.195L362.008 140.266C361.914 140.844 361.711 141.352 361.398 141.789C361.091 142.227 360.68 142.568 360.164 142.812C359.648 143.052 359.029 143.172 358.305 143.172ZM367.539 143.172C366.68 143.172 365.945 142.995 365.336 142.641C364.727 142.286 364.26 141.776 363.938 141.109C363.615 140.443 363.453 139.646 363.453 138.719V138.703C363.453 137.781 363.615 136.992 363.938 136.336C364.26 135.68 364.727 135.177 365.336 134.828C365.945 134.474 366.677 134.297 367.531 134.297C368.266 134.297 368.896 134.424 369.422 134.68C369.953 134.93 370.372 135.279 370.68 135.727C370.992 136.169 371.185 136.688 371.258 137.281V137.312H369.422L369.414 137.289C369.326 136.872 369.122 136.531 368.805 136.266C368.492 136 368.07 135.867 367.539 135.867C367.096 135.867 366.716 135.979 366.398 136.203C366.086 136.427 365.846 136.75 365.68 137.172C365.513 137.594 365.43 138.104 365.43 138.703V138.719C365.43 139.323 365.513 139.841 365.68 140.273C365.852 140.701 366.094 141.029 366.406 141.258C366.719 141.482 367.096 141.594 367.539 141.594C368.044 141.594 368.451 141.479 368.758 141.25C369.07 141.021 369.286 140.682 369.406 140.234L369.422 140.203L371.25 140.195L371.242 140.266C371.148 140.844 370.945 141.352 370.633 141.789C370.326 142.227 369.914 142.568 369.398 142.812C368.883 143.052 368.263 143.172 367.539 143.172ZM376.766 143.172C375.917 143.172 375.188 142.992 374.578 142.633C373.974 142.273 373.508 141.763 373.18 141.102C372.852 140.44 372.688 139.656 372.688 138.75V138.742C372.688 137.846 372.849 137.065 373.172 136.398C373.5 135.732 373.964 135.216 374.562 134.852C375.161 134.482 375.865 134.297 376.672 134.297C377.484 134.297 378.182 134.477 378.766 134.836C379.354 135.19 379.807 135.688 380.125 136.328C380.443 136.969 380.602 137.719 380.602 138.578V139.219H373.664V137.914H379.648L378.727 139.133V138.359C378.727 137.792 378.641 137.32 378.469 136.945C378.297 136.57 378.057 136.289 377.75 136.102C377.448 135.914 377.096 135.82 376.695 135.82C376.294 135.82 375.938 135.919 375.625 136.117C375.318 136.31 375.073 136.596 374.891 136.977C374.714 137.352 374.625 137.812 374.625 138.359V139.141C374.625 139.667 374.714 140.117 374.891 140.492C375.068 140.862 375.318 141.148 375.641 141.352C375.969 141.549 376.357 141.648 376.805 141.648C377.154 141.648 377.453 141.599 377.703 141.5C377.958 141.396 378.164 141.273 378.32 141.133C378.477 140.987 378.586 140.849 378.648 140.719L378.672 140.664H380.516L380.5 140.734C380.432 141.01 380.307 141.292 380.125 141.578C379.948 141.859 379.706 142.122 379.398 142.367C379.096 142.607 378.727 142.802 378.289 142.953C377.852 143.099 377.344 143.172 376.766 143.172ZM382.547 143V134.461H384.492V135.773H384.625C384.828 135.31 385.135 134.948 385.547 134.688C385.958 134.427 386.471 134.297 387.086 134.297C388.039 134.297 388.768 134.573 389.273 135.125C389.779 135.677 390.031 136.461 390.031 137.477V143H388.086V137.93C388.086 137.263 387.945 136.763 387.664 136.43C387.388 136.096 386.956 135.93 386.367 135.93C385.982 135.93 385.648 136.016 385.367 136.188C385.086 136.359 384.87 136.602 384.719 136.914C384.568 137.227 384.492 137.596 384.492 138.023V143H382.547ZM395.688 143.039C394.708 143.039 394.003 142.859 393.57 142.5C393.138 142.141 392.922 141.552 392.922 140.734V135.969H391.594V134.461H392.922V132.367H394.898V134.461H396.695V135.969H394.898V140.273C394.898 140.695 394.987 141.005 395.164 141.203C395.346 141.396 395.638 141.492 396.039 141.492C396.18 141.492 396.294 141.49 396.383 141.484C396.477 141.474 396.581 141.464 396.695 141.453V142.953C396.56 142.979 396.404 143 396.227 143.016C396.055 143.031 395.875 143.039 395.688 143.039Z" fill="white"/>
</g>
<defs>
<linearGradient id="paint0_linear_101_153" x1="327" y1="138" x2="414.5" y2="138" gradientUnits="userSpaceOnUse">
<stop stop-color="#E6431F"/>
<stop offset="1" stop-color="#DB250B"/>
</linearGradient>
<clipPath id="clip0_101_153">
<rect width="740" height="275" rx="24" fill="white"/>
</clipPath>
</defs>
</svg>
