<svg width="740" height="275" viewBox="0 0 740 275" fill="none" xmlns="http://www.w3.org/2000/svg">
<g clip-path="url(#clip0_102_186)">
<mask id="mask0_102_186" style="mask-type:luminance" maskUnits="userSpaceOnUse" x="0" y="0" width="740" height="275">
<path d="M716 0H24C10.7452 0 0 10.7452 0 24V251C0 264.255 10.7452 275 24 275H716C729.255 275 740 264.255 740 251V24C740 10.7452 729.255 0 716 0Z" fill="white"/>
</mask>
<g mask="url(#mask0_102_186)">
<path d="M716 0H24C10.7452 0 0 10.7452 0 24V251C0 264.255 10.7452 275 24 275H716C729.255 275 740 264.255 740 251V24C740 10.7452 729.255 0 716 0Z" fill="white"/>
<path d="M417 116H323C318.582 116 315 119.582 315 124V151C315 155.418 318.582 159 323 159H417C421.418 159 425 155.418 425 151V124C425 119.582 421.418 116 417 116Z" fill="#1F1F1F"/>
<path d="M341.734 139.273V137.648H344.734C345.458 137.648 346.021 137.464 346.422 137.094C346.823 136.719 347.023 136.193 347.023 135.516V135.5C347.023 134.818 346.823 134.292 346.422 133.922C346.021 133.552 345.458 133.367 344.734 133.367H341.734V131.727H345.227C345.992 131.727 346.661 131.883 347.234 132.195C347.807 132.508 348.255 132.948 348.578 133.516C348.901 134.078 349.062 134.737 349.062 135.492V135.508C349.062 136.258 348.901 136.917 348.578 137.484C348.255 138.047 347.807 138.487 347.234 138.805C346.661 139.117 345.992 139.273 345.227 139.273H341.734ZM340.727 143V131.727H342.742V143H340.727ZM351.086 143V134.461H353.031V135.773H353.164C353.31 135.315 353.57 134.958 353.945 134.703C354.326 134.448 354.797 134.32 355.359 134.32C355.505 134.32 355.648 134.331 355.789 134.352C355.935 134.367 356.055 134.388 356.148 134.414V136.156C355.992 136.12 355.833 136.094 355.672 136.078C355.516 136.057 355.352 136.047 355.18 136.047C354.747 136.047 354.37 136.128 354.047 136.289C353.724 136.451 353.474 136.682 353.297 136.984C353.12 137.281 353.031 137.633 353.031 138.039V143H351.086ZM357.75 143V134.461H359.688V143H357.75ZM358.727 133.031C358.409 133.031 358.135 132.919 357.906 132.695C357.677 132.471 357.562 132.203 357.562 131.891C357.562 131.568 357.677 131.297 357.906 131.078C358.135 130.854 358.409 130.742 358.727 130.742C359.044 130.742 359.315 130.854 359.539 131.078C359.768 131.297 359.883 131.568 359.883 131.891C359.883 132.203 359.768 132.471 359.539 132.695C359.315 132.919 359.044 133.031 358.727 133.031ZM362.086 143V134.461H364.031V135.789H364.164C364.346 135.315 364.641 134.948 365.047 134.688C365.458 134.427 365.945 134.297 366.508 134.297C366.893 134.297 367.24 134.359 367.547 134.484C367.859 134.609 368.128 134.786 368.352 135.016C368.576 135.245 368.747 135.518 368.867 135.836H369.008C369.148 135.529 369.344 135.26 369.594 135.031C369.849 134.797 370.146 134.617 370.484 134.492C370.828 134.362 371.198 134.297 371.594 134.297C372.167 134.297 372.656 134.411 373.062 134.641C373.474 134.865 373.789 135.188 374.008 135.609C374.232 136.031 374.344 136.536 374.344 137.125V143H372.398V137.602C372.398 137.227 372.341 136.917 372.227 136.672C372.117 136.427 371.948 136.242 371.719 136.117C371.49 135.992 371.201 135.93 370.852 135.93C370.513 135.93 370.219 136.008 369.969 136.164C369.719 136.315 369.523 136.521 369.383 136.781C369.247 137.042 369.18 137.336 369.18 137.664V143H367.234V137.461C367.234 137.143 367.172 136.87 367.047 136.641C366.927 136.411 366.75 136.237 366.516 136.117C366.286 135.992 366.013 135.93 365.695 135.93C365.378 135.93 365.091 136.013 364.836 136.18C364.586 136.341 364.388 136.565 364.242 136.852C364.102 137.133 364.031 137.451 364.031 137.805V143H362.086ZM378.961 143.141C378.424 143.141 377.943 143.036 377.516 142.828C377.094 142.62 376.76 142.326 376.516 141.945C376.276 141.56 376.156 141.107 376.156 140.586V140.57C376.156 140.065 376.281 139.63 376.531 139.266C376.781 138.896 377.148 138.607 377.633 138.398C378.117 138.19 378.706 138.068 379.398 138.031L382.555 137.836V139.117L379.672 139.305C379.125 139.336 378.721 139.451 378.461 139.648C378.201 139.846 378.07 140.122 378.07 140.477V140.492C378.07 140.857 378.208 141.141 378.484 141.344C378.766 141.547 379.122 141.648 379.555 141.648C379.945 141.648 380.294 141.57 380.602 141.414C380.909 141.258 381.151 141.047 381.328 140.781C381.505 140.51 381.594 140.206 381.594 139.867V137.164C381.594 136.737 381.458 136.411 381.188 136.188C380.917 135.958 380.516 135.844 379.984 135.844C379.542 135.844 379.18 135.922 378.898 136.078C378.617 136.229 378.427 136.445 378.328 136.727L378.32 136.758H376.484L376.492 136.688C376.555 136.208 376.742 135.789 377.055 135.43C377.367 135.07 377.781 134.792 378.297 134.594C378.812 134.396 379.406 134.297 380.078 134.297C380.818 134.297 381.443 134.411 381.953 134.641C382.464 134.865 382.852 135.193 383.117 135.625C383.383 136.052 383.516 136.565 383.516 137.164V143H381.594V141.828H381.461C381.305 142.099 381.102 142.333 380.852 142.531C380.607 142.729 380.326 142.88 380.008 142.984C379.69 143.089 379.341 143.141 378.961 143.141ZM385.852 143V134.461H387.797V135.773H387.93C388.076 135.315 388.336 134.958 388.711 134.703C389.091 134.448 389.562 134.32 390.125 134.32C390.271 134.32 390.414 134.331 390.555 134.352C390.701 134.367 390.82 134.388 390.914 134.414V136.156C390.758 136.12 390.599 136.094 390.438 136.078C390.281 136.057 390.117 136.047 389.945 136.047C389.513 136.047 389.135 136.128 388.812 136.289C388.49 136.451 388.24 136.682 388.062 136.984C387.885 137.281 387.797 137.633 387.797 138.039V143H385.852ZM393.531 146C393.411 146 393.286 145.997 393.156 145.992C393.031 145.987 392.909 145.979 392.789 145.969V144.477C392.867 144.487 392.958 144.492 393.062 144.492C393.167 144.497 393.268 144.5 393.367 144.5C393.768 144.5 394.089 144.411 394.328 144.234C394.573 144.062 394.747 143.784 394.852 143.398L394.953 143.008L391.898 134.461H394.023L396.273 142.023L395.742 141.133H396.414L395.898 142.023L398.148 134.461H400.195L397.133 143.188C396.888 143.896 396.607 144.456 396.289 144.867C395.971 145.279 395.589 145.57 395.141 145.742C394.698 145.914 394.161 146 393.531 146Z" fill="white"/>
</g>
</g>
<defs>
<clipPath id="clip0_102_186">
<rect width="740" height="275" fill="white"/>
</clipPath>
</defs>
</svg>
