<svg width="1024" height="426" viewBox="0 0 1024 426" fill="none" xmlns="http://www.w3.org/2000/svg">
<g clip-path="url(#clip0_29_1297)">
<rect width="1024" height="426" rx="24" fill="white"/>
<g filter="url(#filter0_d_29_1297)">
<rect width="622" height="525" rx="12" transform="matrix(0.965926 0.258819 -0.707107 0.707107 423.231 37)" fill="#FEFEFE" shape-rendering="crispEdges"/>
<rect x="0.12941" y="0.482963" width="621" height="524" rx="11.5" transform="matrix(0.965926 0.258819 -0.707107 0.707107 423.577 37.108)" stroke="#E5E5E5" shape-rendering="crispEdges"/>
<rect width="32" height="32" rx="5" transform="matrix(0.965926 0.258819 -0.707107 0.707107 939.59 204.048)" fill="#F2F2F2"/>
<rect x="0.12941" y="0.482963" width="31" height="31" rx="4.5" transform="matrix(0.965926 0.258819 -0.707107 0.707107 939.936 204.156)" stroke="#F2F2F2" stroke-opacity="0.866667"/>
<path d="M942.122 213.903L942.223 213.872C942.567 213.78 942.892 213.85 942.993 214.028L943.016 214.085L944.312 218.922L952.692 216.677C953.071 216.576 953.426 216.671 953.485 216.89C953.544 217.109 953.284 217.369 952.904 217.47L944.525 219.716L945.821 224.554C945.874 224.753 945.664 224.986 945.341 225.103L945.24 225.135C944.895 225.227 944.571 225.157 944.47 224.979L944.447 224.922L943.151 220.084L934.771 222.329C934.392 222.431 934.036 222.336 933.978 222.117C933.919 221.898 934.179 221.638 934.558 221.536L942.938 219.291L941.642 214.453C941.589 214.254 941.799 214.021 942.122 213.903L942.223 213.872L942.122 213.903Z" fill="#484848"/>
</g>
<rect x="923.5" y="378.5" width="1" height="100" transform="rotate(-90 923.5 378.5)" fill="#484848"/>
<path d="M665.746 387.316C664.137 387.316 662.738 386.961 661.551 386.25C660.371 385.539 659.457 384.527 658.809 383.215C658.168 381.902 657.848 380.344 657.848 378.539V378.527C657.848 376.723 658.168 375.168 658.809 373.863C659.457 372.551 660.371 371.543 661.551 370.84C662.738 370.129 664.137 369.773 665.746 369.773C667.043 369.773 668.203 370.023 669.227 370.523C670.258 371.023 671.098 371.715 671.746 372.598C672.395 373.48 672.793 374.496 672.941 375.645L672.953 375.762H669.988L669.93 375.562C669.773 374.914 669.504 374.355 669.121 373.887C668.746 373.41 668.273 373.043 667.703 372.785C667.133 372.52 666.48 372.387 665.746 372.387C664.77 372.387 663.918 372.637 663.191 373.137C662.473 373.637 661.914 374.348 661.516 375.27C661.125 376.184 660.93 377.27 660.93 378.527V378.539C660.93 379.797 661.125 380.887 661.516 381.809C661.914 382.73 662.477 383.445 663.203 383.953C663.93 384.453 664.781 384.703 665.758 384.703C666.477 384.703 667.117 384.578 667.68 384.328C668.25 384.07 668.73 383.703 669.121 383.227C669.512 382.742 669.793 382.16 669.965 381.48L669.988 381.375H672.953L672.941 381.492C672.801 382.641 672.406 383.652 671.758 384.527C671.109 385.402 670.27 386.086 669.238 386.578C668.215 387.07 667.051 387.316 665.746 387.316ZM690.867 387.316C689.219 387.316 687.793 386.961 686.59 386.25C685.395 385.531 684.469 384.52 683.812 383.215C683.164 381.902 682.84 380.348 682.84 378.551V378.527C682.84 376.73 683.168 375.18 683.824 373.875C684.48 372.562 685.406 371.551 686.602 370.84C687.805 370.129 689.227 369.773 690.867 369.773C692.508 369.773 693.926 370.133 695.121 370.852C696.324 371.562 697.25 372.57 697.898 373.875C698.555 375.18 698.883 376.73 698.883 378.527V378.551C698.883 380.348 698.555 381.902 697.898 383.215C697.25 384.52 696.328 385.531 695.133 386.25C693.938 386.961 692.516 387.316 690.867 387.316ZM690.867 384.703C691.883 384.703 692.758 384.449 693.492 383.941C694.234 383.434 694.805 382.723 695.203 381.809C695.602 380.887 695.801 379.801 695.801 378.551V378.527C695.801 377.27 695.598 376.184 695.191 375.27C694.793 374.348 694.223 373.637 693.48 373.137C692.746 372.637 691.875 372.387 690.867 372.387C689.859 372.387 688.984 372.637 688.242 373.137C687.5 373.637 686.926 374.344 686.52 375.258C686.121 376.172 685.922 377.262 685.922 378.527V378.551C685.922 379.801 686.121 380.887 686.52 381.809C686.926 382.73 687.496 383.445 688.23 383.953C688.973 384.453 689.852 384.703 690.867 384.703ZM709.496 387V370.09H712.977L718.145 383.027H718.238L723.406 370.09H726.887V387H724.168V374.965H722.762L725.832 370.559L719.223 387H717.16L710.551 370.559L713.609 374.965H712.215V387H709.496ZM739.598 381.41V378.973H743.898C744.992 378.973 745.836 378.695 746.43 378.141C747.031 377.578 747.332 376.789 747.332 375.773V375.75C747.332 374.727 747.031 373.938 746.43 373.383C745.836 372.828 744.992 372.551 743.898 372.551H739.598V370.09H744.648C745.789 370.09 746.789 370.324 747.648 370.793C748.516 371.262 749.191 371.922 749.676 372.773C750.16 373.617 750.402 374.605 750.402 375.738V375.762C750.402 376.887 750.16 377.875 749.676 378.727C749.191 379.57 748.516 380.23 747.648 380.707C746.789 381.176 745.789 381.41 744.648 381.41H739.598ZM738.098 387V370.09H741.109V387H738.098ZM768.234 387.316C766.586 387.316 765.16 386.961 763.957 386.25C762.762 385.531 761.836 384.52 761.18 383.215C760.531 381.902 760.207 380.348 760.207 378.551V378.527C760.207 376.73 760.535 375.18 761.191 373.875C761.848 372.562 762.773 371.551 763.969 370.84C765.172 370.129 766.594 369.773 768.234 369.773C769.875 369.773 771.293 370.133 772.488 370.852C773.691 371.562 774.617 372.57 775.266 373.875C775.922 375.18 776.25 376.73 776.25 378.527V378.551C776.25 380.348 775.922 381.902 775.266 383.215C774.617 384.52 773.695 385.531 772.5 386.25C771.305 386.961 769.883 387.316 768.234 387.316ZM768.234 384.703C769.25 384.703 770.125 384.449 770.859 383.941C771.602 383.434 772.172 382.723 772.57 381.809C772.969 380.887 773.168 379.801 773.168 378.551V378.527C773.168 377.27 772.965 376.184 772.559 375.27C772.16 374.348 771.59 373.637 770.848 373.137C770.113 372.637 769.242 372.387 768.234 372.387C767.227 372.387 766.352 372.637 765.609 373.137C764.867 373.637 764.293 374.344 763.887 375.258C763.488 376.172 763.289 377.262 763.289 378.527V378.551C763.289 379.801 763.488 380.887 763.887 381.809C764.293 382.73 764.863 383.445 765.598 383.953C766.34 384.453 767.219 384.703 768.234 384.703ZM786.863 387V370.09H789.559L799.297 384.035L796.578 381.914H797.902V370.09H800.891V387H798.207L788.457 373.008L791.164 375.141H789.84V387H786.863ZM812.09 387V370.09H823.023V372.633H815.102V377.203H822.59V379.629H815.102V384.457H823.023V387H812.09ZM833.871 387V370.09H836.566L846.305 384.035L843.586 381.914H844.91V370.09H847.898V387H845.215L835.465 373.008L838.172 375.141H836.848V387H833.871ZM863.234 387V372.633H858.148V370.09H871.332V372.633H866.246V387H863.234Z" fill="#484848"/>
</g>
<defs>
<filter id="filter0_d_29_1297" x="24" y="23" width="1028.04" height="588.217" filterUnits="userSpaceOnUse" color-interpolation-filters="sRGB">
<feFlood flood-opacity="0" result="BackgroundImageFix"/>
<feColorMatrix in="SourceAlpha" type="matrix" values="0 0 0 0 0 0 0 0 0 0 0 0 0 0 0 0 0 0 127 0" result="hardAlpha"/>
<feOffset dy="14"/>
<feGaussianBlur stdDeviation="14"/>
<feComposite in2="hardAlpha" operator="out"/>
<feColorMatrix type="matrix" values="0 0 0 0 0 0 0 0 0 0 0 0 0 0 0 0 0 0 0.24 0"/>
<feBlend mode="normal" in2="BackgroundImageFix" result="effect1_dropShadow_29_1297"/>
<feBlend mode="normal" in="SourceGraphic" in2="effect1_dropShadow_29_1297" result="shape"/>
</filter>
<clipPath id="clip0_29_1297">
<rect width="1024" height="426" rx="24" fill="white"/>
</clipPath>
</defs>
</svg>
