<svg width="1024" height="426" viewBox="0 0 1024 426" fill="none" xmlns="http://www.w3.org/2000/svg">
<g clip-path="url(#clip0_107_990)">
<rect width="1024" height="426" rx="24" fill="white"/>
<path d="M303.5 232.75H-497.5C-501.228 232.75 -504.25 235.772 -504.25 239.5V296.5C-504.25 300.228 -501.228 303.25 -497.5 303.25H303.5C307.228 303.25 310.25 300.228 310.25 296.5V239.5C310.25 235.772 307.228 232.75 303.5 232.75Z" stroke="#DDDDDD"/>
<mask id="mask0_107_990" style="mask-type:luminance" maskUnits="userSpaceOnUse" x="219" y="251" width="74" height="34">
<path d="M293 251.5H219.5V284.5H293V251.5Z" fill="white"/>
</mask>
<g mask="url(#mask0_107_990)">
<path d="M224 252H288.5C290.709 252 292.5 253.791 292.5 256V280C292.5 282.209 290.709 284 288.5 284H224C221.791 284 220 282.209 220 280V256C220 253.791 221.791 252 224 252Z" stroke="#DDDDDD"/>
<path d="M230.215 260.286C231.28 260.286 232.143 261.149 232.143 262.214V264.143H230.215C229.15 264.143 228.285 263.279 228.285 262.214C228.285 261.149 229.15 260.286 230.215 260.286ZM233.429 264.143V262.214C233.429 260.439 231.989 259 230.215 259C228.439 259 227 260.439 227 262.214C227 263.989 228.439 265.429 230.215 265.429H232.143V270.571H230.215C228.439 270.571 227 272.011 227 273.786C227 275.561 228.439 277 230.215 277C231.989 277 233.429 275.561 233.429 273.786V271.857H238.571V273.786C238.571 275.561 240.011 277 241.785 277C243.561 277 245 275.561 245 273.786C245 272.011 243.561 270.571 241.785 270.571H239.857V265.429H241.785C243.561 265.429 245 263.989 245 262.214C245 260.439 243.561 259 241.785 259C240.011 259 238.571 260.439 238.571 262.214V264.143H233.429ZM233.429 265.429H238.571V270.571H233.429V265.429ZM239.857 264.143V262.214C239.857 261.149 240.72 260.286 241.785 260.286C242.85 260.286 243.715 261.149 243.715 262.214C243.715 263.279 242.85 264.143 241.785 264.143H239.857ZM239.857 271.857H241.785C242.85 271.857 243.715 272.721 243.715 273.786C243.715 274.851 242.85 275.714 241.785 275.714C240.72 275.714 239.857 274.851 239.857 273.786V271.857ZM232.143 271.857V273.786C232.143 274.851 231.28 275.714 230.215 275.714C229.15 275.714 228.285 274.851 228.285 273.786C228.285 272.721 229.15 271.857 230.215 271.857H232.143Z" fill="#DDDDDD"/>
<path d="M257.786 273.112H256.094V269.44H252.44V267.874H256.094V264.238H257.786V267.874H261.44V269.44H257.786V273.112Z" fill="#DDDDDD"/>
<path d="M276.146 274.75H274.166V261.826H276.146V267.802L281.618 261.826H283.904L278.144 268.162L284.048 274.75H281.564L276.146 268.756V274.75Z" fill="#DDDDDD"/>
</g>
<rect x="923.5" y="378.5" width="1" height="100" transform="rotate(-90 923.5 378.5)" fill="#484848"/>
<path d="M665.746 387.316C664.137 387.316 662.738 386.961 661.551 386.25C660.371 385.539 659.457 384.527 658.809 383.215C658.168 381.902 657.848 380.344 657.848 378.539V378.527C657.848 376.723 658.168 375.168 658.809 373.863C659.457 372.551 660.371 371.543 661.551 370.84C662.738 370.129 664.137 369.773 665.746 369.773C667.043 369.773 668.203 370.023 669.227 370.523C670.258 371.023 671.098 371.715 671.746 372.598C672.395 373.48 672.793 374.496 672.941 375.645L672.953 375.762H669.988L669.93 375.562C669.773 374.914 669.504 374.355 669.121 373.887C668.746 373.41 668.273 373.043 667.703 372.785C667.133 372.52 666.48 372.387 665.746 372.387C664.77 372.387 663.918 372.637 663.191 373.137C662.473 373.637 661.914 374.348 661.516 375.27C661.125 376.184 660.93 377.27 660.93 378.527V378.539C660.93 379.797 661.125 380.887 661.516 381.809C661.914 382.73 662.477 383.445 663.203 383.953C663.93 384.453 664.781 384.703 665.758 384.703C666.477 384.703 667.117 384.578 667.68 384.328C668.25 384.07 668.73 383.703 669.121 383.227C669.512 382.742 669.793 382.16 669.965 381.48L669.988 381.375H672.953L672.941 381.492C672.801 382.641 672.406 383.652 671.758 384.527C671.109 385.402 670.27 386.086 669.238 386.578C668.215 387.07 667.051 387.316 665.746 387.316ZM690.867 387.316C689.219 387.316 687.793 386.961 686.59 386.25C685.395 385.531 684.469 384.52 683.812 383.215C683.164 381.902 682.84 380.348 682.84 378.551V378.527C682.84 376.73 683.168 375.18 683.824 373.875C684.48 372.562 685.406 371.551 686.602 370.84C687.805 370.129 689.227 369.773 690.867 369.773C692.508 369.773 693.926 370.133 695.121 370.852C696.324 371.562 697.25 372.57 697.898 373.875C698.555 375.18 698.883 376.73 698.883 378.527V378.551C698.883 380.348 698.555 381.902 697.898 383.215C697.25 384.52 696.328 385.531 695.133 386.25C693.938 386.961 692.516 387.316 690.867 387.316ZM690.867 384.703C691.883 384.703 692.758 384.449 693.492 383.941C694.234 383.434 694.805 382.723 695.203 381.809C695.602 380.887 695.801 379.801 695.801 378.551V378.527C695.801 377.27 695.598 376.184 695.191 375.27C694.793 374.348 694.223 373.637 693.48 373.137C692.746 372.637 691.875 372.387 690.867 372.387C689.859 372.387 688.984 372.637 688.242 373.137C687.5 373.637 686.926 374.344 686.52 375.258C686.121 376.172 685.922 377.262 685.922 378.527V378.551C685.922 379.801 686.121 380.887 686.52 381.809C686.926 382.73 687.496 383.445 688.23 383.953C688.973 384.453 689.852 384.703 690.867 384.703ZM709.496 387V370.09H712.977L718.145 383.027H718.238L723.406 370.09H726.887V387H724.168V374.965H722.762L725.832 370.559L719.223 387H717.16L710.551 370.559L713.609 374.965H712.215V387H709.496ZM739.598 381.41V378.973H743.898C744.992 378.973 745.836 378.695 746.43 378.141C747.031 377.578 747.332 376.789 747.332 375.773V375.75C747.332 374.727 747.031 373.938 746.43 373.383C745.836 372.828 744.992 372.551 743.898 372.551H739.598V370.09H744.648C745.789 370.09 746.789 370.324 747.648 370.793C748.516 371.262 749.191 371.922 749.676 372.773C750.16 373.617 750.402 374.605 750.402 375.738V375.762C750.402 376.887 750.16 377.875 749.676 378.727C749.191 379.57 748.516 380.23 747.648 380.707C746.789 381.176 745.789 381.41 744.648 381.41H739.598ZM738.098 387V370.09H741.109V387H738.098ZM768.234 387.316C766.586 387.316 765.16 386.961 763.957 386.25C762.762 385.531 761.836 384.52 761.18 383.215C760.531 381.902 760.207 380.348 760.207 378.551V378.527C760.207 376.73 760.535 375.18 761.191 373.875C761.848 372.562 762.773 371.551 763.969 370.84C765.172 370.129 766.594 369.773 768.234 369.773C769.875 369.773 771.293 370.133 772.488 370.852C773.691 371.562 774.617 372.57 775.266 373.875C775.922 375.18 776.25 376.73 776.25 378.527V378.551C776.25 380.348 775.922 381.902 775.266 383.215C774.617 384.52 773.695 385.531 772.5 386.25C771.305 386.961 769.883 387.316 768.234 387.316ZM768.234 384.703C769.25 384.703 770.125 384.449 770.859 383.941C771.602 383.434 772.172 382.723 772.57 381.809C772.969 380.887 773.168 379.801 773.168 378.551V378.527C773.168 377.27 772.965 376.184 772.559 375.27C772.16 374.348 771.59 373.637 770.848 373.137C770.113 372.637 769.242 372.387 768.234 372.387C767.227 372.387 766.352 372.637 765.609 373.137C764.867 373.637 764.293 374.344 763.887 375.258C763.488 376.172 763.289 377.262 763.289 378.527V378.551C763.289 379.801 763.488 380.887 763.887 381.809C764.293 382.73 764.863 383.445 765.598 383.953C766.34 384.453 767.219 384.703 768.234 384.703ZM786.863 387V370.09H789.559L799.297 384.035L796.578 381.914H797.902V370.09H800.891V387H798.207L788.457 373.008L791.164 375.141H789.84V387H786.863ZM812.09 387V370.09H823.023V372.633H815.102V377.203H822.59V379.629H815.102V384.457H823.023V387H812.09ZM833.871 387V370.09H836.566L846.305 384.035L843.586 381.914H844.91V370.09H847.898V387H845.215L835.465 373.008L838.172 375.141H836.848V387H833.871ZM863.234 387V372.633H858.148V370.09H871.332V372.633H866.246V387H863.234Z" fill="#484848"/>
<path d="M44.6484 245.465C36.4062 245.465 29.2578 243.707 23.2031 240.191C17.1875 236.676 12.5391 231.656 9.25781 225.133C6.01562 218.57 4.39453 210.758 4.39453 201.695V201.637C4.39453 192.535 6.03516 184.742 9.31641 178.258C12.5977 171.734 17.2461 166.734 23.2617 163.258C29.2773 159.742 36.4062 157.984 44.6484 157.984C51.4844 157.984 57.5781 159.312 62.9297 161.969C68.2812 164.625 72.5781 168.277 75.8203 172.926C79.0625 177.535 80.957 182.848 81.5039 188.863L81.5625 189.391H64.3359L64.1016 188.395C63.4375 185.27 62.2461 182.555 60.5273 180.25C58.8086 177.945 56.6016 176.168 53.9062 174.918C51.25 173.629 48.1641 172.984 44.6484 172.984C40.1172 172.984 36.1914 174.137 32.8711 176.441C29.5508 178.746 26.9727 182.047 25.1367 186.344C23.3398 190.602 22.4414 195.68 22.4414 201.578V201.637C22.4414 207.574 23.3398 212.711 25.1367 217.047C26.9727 221.344 29.5508 224.664 32.8711 227.008C36.2305 229.312 40.1562 230.465 44.6484 230.465C48.0469 230.465 51.0742 229.84 53.7305 228.59C56.4258 227.34 58.6719 225.543 60.4688 223.199C62.2656 220.816 63.5352 217.945 64.2773 214.586L64.3945 214H81.6211L81.5625 214.645C81.0156 220.621 79.1016 225.934 75.8203 230.582C72.5781 235.23 68.2812 238.883 62.9297 241.539C57.5781 244.156 51.4844 245.465 44.6484 245.465ZM115.656 245.289C109.289 245.289 103.781 243.98 99.1323 241.363C94.4838 238.746 90.8901 234.996 88.351 230.113C85.8119 225.23 84.5424 219.391 84.5424 212.594V212.477C84.5424 205.719 85.8315 199.918 88.4096 195.074C90.9877 190.191 94.601 186.441 99.2494 183.824C103.898 181.207 109.347 179.898 115.597 179.898C121.886 179.898 127.355 181.207 132.003 183.824C136.691 186.402 140.324 190.133 142.902 195.016C145.48 199.859 146.769 205.68 146.769 212.477V212.594C146.769 219.43 145.48 225.289 142.902 230.172C140.363 235.055 136.769 238.805 132.121 241.422C127.472 244 121.984 245.289 115.656 245.289ZM115.714 231.871C118.488 231.871 120.89 231.129 122.921 229.645C124.992 228.121 126.574 225.934 127.667 223.082C128.8 220.191 129.367 216.695 129.367 212.594V212.477C129.367 208.414 128.8 204.957 127.667 202.105C126.535 199.254 124.933 197.086 122.863 195.602C120.792 194.078 118.371 193.316 115.597 193.316C112.863 193.316 110.46 194.078 108.39 195.602C106.359 197.086 104.777 199.254 103.644 202.105C102.511 204.957 101.945 208.414 101.945 212.477V212.594C101.945 216.695 102.492 220.191 103.585 223.082C104.718 225.934 106.32 228.121 108.39 229.645C110.46 231.129 112.902 231.871 115.714 231.871ZM151.331 244V181.188H168.44V192.145H168.792C169.729 188.277 171.429 185.27 173.89 183.121C176.35 180.973 179.417 179.898 183.089 179.898C184.026 179.898 184.925 179.957 185.784 180.074C186.643 180.191 187.386 180.348 188.011 180.543V195.602C187.307 195.328 186.409 195.113 185.315 194.957C184.222 194.762 183.05 194.664 181.8 194.664C178.987 194.664 176.585 195.211 174.593 196.305C172.6 197.398 171.077 199 170.022 201.109C168.968 203.219 168.44 205.797 168.44 208.844V244H151.331ZM217.358 245.289C210.951 245.289 205.444 243.98 200.834 241.363C196.225 238.707 192.67 234.938 190.17 230.055C187.709 225.172 186.479 219.391 186.479 212.711V212.652C186.479 205.973 187.709 200.191 190.17 195.309C192.67 190.387 196.166 186.598 200.658 183.941C205.19 181.246 210.522 179.898 216.655 179.898C222.787 179.898 228.08 181.207 232.533 183.824C237.026 186.402 240.483 190.055 242.905 194.781C245.366 199.508 246.596 205.035 246.596 211.363V216.637H194.858V205.855H238.51L230.366 215.934V209.371C230.366 205.699 229.799 202.633 228.666 200.172C227.533 197.672 225.951 195.797 223.92 194.547C221.928 193.297 219.604 192.672 216.948 192.672C214.291 192.672 211.928 193.316 209.858 194.605C207.826 195.895 206.225 197.789 205.053 200.289C203.92 202.75 203.354 205.777 203.354 209.371V215.992C203.354 219.469 203.92 222.438 205.053 224.898C206.225 227.359 207.885 229.254 210.033 230.582C212.182 231.871 214.741 232.516 217.709 232.516C220.053 232.516 222.084 232.145 223.803 231.402C225.522 230.66 226.928 229.723 228.022 228.59C229.116 227.457 229.858 226.305 230.248 225.133L230.366 224.781H246.069L245.893 225.426C245.424 227.73 244.506 230.055 243.139 232.398C241.772 234.742 239.916 236.891 237.573 238.844C235.268 240.797 232.436 242.359 229.076 243.531C225.756 244.703 221.85 245.289 217.358 245.289Z" fill="#EEEFF4"/>
<rect width="594" height="41" rx="8" transform="matrix(0.965926 0.258819 -0.707107 0.707107 239.991 126)" fill="#DDDDDD"/>
<path d="M342.298 175.827L349.273 168.852L350.752 169.249L350.618 175.863L349.883 175.108L350.734 175.336L355.539 170.531L357.177 170.97L350.202 177.945L348.729 177.551L348.868 170.932L349.603 171.687L348.752 171.458L343.942 176.268L342.298 175.827ZM355.371 179.465C354.654 179.273 354.149 178.997 353.856 178.636C353.568 178.277 353.489 177.856 353.621 177.372C353.753 176.889 354.1 176.366 354.66 175.806L354.665 175.801C355.219 175.247 355.839 174.8 356.525 174.46C357.214 174.122 357.925 173.908 358.657 173.818C359.392 173.725 360.101 173.77 360.783 173.953C361.47 174.137 361.948 174.406 362.219 174.761C362.497 175.113 362.573 175.523 362.445 175.992C362.317 176.46 361.987 176.96 361.455 177.492L361.059 177.888L355.196 176.317L356.003 175.51L361.061 176.865L359.528 177.41L360.006 176.932C360.357 176.58 360.576 176.269 360.663 175.998C360.75 175.727 360.721 175.499 360.578 175.314C360.438 175.129 360.199 174.992 359.86 174.901C359.521 174.81 359.159 174.79 358.772 174.842C358.393 174.892 358.009 175.013 357.62 175.207C357.238 175.399 356.878 175.664 356.54 176.003L356.056 176.486C355.731 176.812 355.527 177.11 355.444 177.383C355.365 177.651 355.399 177.885 355.547 178.084C355.701 178.281 355.968 178.43 356.347 178.531C356.642 178.61 356.925 178.648 357.198 178.643C357.478 178.636 357.728 178.607 357.947 178.556C358.169 178.501 358.347 178.44 358.48 178.374L358.534 178.345L360.092 178.763L360.036 178.803C359.807 178.958 359.528 179.104 359.197 179.24C358.873 179.374 358.505 179.482 358.094 179.564C357.691 179.643 357.257 179.68 356.794 179.675C356.334 179.666 355.86 179.596 355.371 179.465ZM362.244 181.282C361.791 181.161 361.448 180.987 361.216 180.762C360.989 180.537 360.889 180.28 360.917 179.989C360.953 179.696 361.132 179.389 361.455 179.067L361.464 179.057C361.777 178.744 362.152 178.504 362.588 178.335C363.029 178.162 363.518 178.067 364.056 178.048C364.594 178.028 365.167 178.086 365.775 178.22L368.564 178.814L367.771 179.607L365.219 179.07C364.737 178.965 364.325 178.945 363.982 179.008C363.64 179.072 363.359 179.213 363.14 179.432L363.13 179.442C362.905 179.668 362.846 179.874 362.953 180.063C363.065 180.252 363.304 180.396 363.669 180.494C364 180.582 364.343 180.613 364.699 180.586C365.056 180.559 365.391 180.483 365.705 180.359C366.022 180.231 366.285 180.063 366.495 179.853L368.167 178.181C368.432 177.917 368.519 177.684 368.428 177.485C368.341 177.281 368.073 177.12 367.624 176.999C367.25 176.899 366.896 176.866 366.561 176.899C366.23 176.928 365.936 177.019 365.678 177.171L365.652 177.188L364.1 176.772L364.151 176.731C364.5 176.448 364.918 176.231 365.404 176.08C365.891 175.928 366.413 175.85 366.971 175.844C367.53 175.838 368.093 175.911 368.66 176.064C369.286 176.231 369.743 176.444 370.032 176.701C370.325 176.955 370.45 177.246 370.407 177.574C370.368 177.898 370.162 178.245 369.792 178.616L366.181 182.227L364.557 181.792L365.282 181.067L365.169 181.036C364.87 181.169 364.553 181.268 364.219 181.333C363.89 181.401 363.559 181.43 363.226 181.423C362.893 181.415 362.566 181.368 362.244 181.282ZM368.155 182.756L373.439 177.473L375.083 177.913L374.271 178.725L374.383 178.755C374.79 178.505 375.231 178.343 375.705 178.27C376.185 178.198 376.662 178.226 377.137 178.353C377.261 178.386 377.375 178.425 377.481 178.47C377.595 178.513 377.683 178.553 377.746 178.59L376.668 179.668C376.559 179.61 376.441 179.558 376.314 179.512C376.195 179.463 376.063 179.42 375.917 179.381C375.552 179.283 375.183 179.247 374.81 179.274C374.437 179.301 374.082 179.388 373.746 179.535C373.413 179.678 373.12 179.876 372.869 180.127L369.799 183.196L368.155 182.756ZM376.58 185.148C375.862 184.956 375.357 184.68 375.065 184.319C374.776 183.96 374.698 183.539 374.83 183.055C374.962 182.571 375.308 182.049 375.869 181.489L375.874 181.484C376.428 180.93 377.048 180.483 377.733 180.143C378.423 179.805 379.134 179.591 379.866 179.501C380.601 179.408 381.31 179.453 381.992 179.636C382.679 179.82 383.157 180.089 383.428 180.443C383.706 180.796 383.782 181.206 383.654 181.675C383.526 182.143 383.196 182.643 382.664 183.175L382.268 183.571L376.404 182L377.212 181.193L382.27 182.548L380.736 183.093L381.215 182.615C381.566 182.263 381.785 181.952 381.872 181.681C381.959 181.41 381.93 181.182 381.787 180.996C381.647 180.812 381.408 180.674 381.069 180.584C380.73 180.493 380.367 180.473 379.981 180.525C379.602 180.575 379.218 180.696 378.828 180.89C378.447 181.082 378.087 181.347 377.748 181.686L377.265 182.169C376.94 182.495 376.736 182.793 376.653 183.065C376.574 183.334 376.608 183.568 376.755 183.767C376.91 183.964 377.177 184.113 377.556 184.214C377.851 184.293 378.134 184.331 378.407 184.326C378.687 184.319 378.937 184.29 379.156 184.239C379.378 184.184 379.556 184.123 379.689 184.057L379.743 184.028L381.301 184.446L381.244 184.486C381.016 184.641 380.737 184.787 380.405 184.923C380.082 185.057 379.714 185.165 379.303 185.246C378.9 185.326 378.466 185.363 378.003 185.358C377.543 185.349 377.069 185.279 376.58 185.148ZM384.193 187.188C383.581 187.024 383.116 186.82 382.797 186.575C382.486 186.328 382.315 186.058 382.286 185.764C382.259 185.466 382.371 185.162 382.623 184.849L382.632 184.839L384.263 185.276L384.26 185.288C384.165 185.495 384.18 185.689 384.306 185.87C384.432 186.051 384.7 186.196 385.109 186.306C385.382 186.379 385.649 186.416 385.911 186.416C386.176 186.414 386.418 186.379 386.636 186.31C386.855 186.242 387.031 186.142 387.163 186.01L387.172 186.001C387.327 185.846 387.37 185.694 387.302 185.545C387.236 185.393 387.038 185.231 386.706 185.06L385.731 184.554C385.347 184.357 385.072 184.153 384.904 183.94C384.737 183.728 384.675 183.505 384.719 183.272C384.767 183.039 384.92 182.794 385.178 182.536L385.183 182.532C385.502 182.213 385.903 181.965 386.387 181.788C386.875 181.612 387.405 181.515 387.976 181.497C388.547 181.478 389.117 181.545 389.684 181.697C390.27 181.854 390.709 182.053 391.003 182.295C391.297 182.538 391.45 182.803 391.462 183.093C391.474 183.382 391.354 183.675 391.103 183.971L391.093 183.98L389.548 183.566L389.556 183.55C389.662 183.366 389.656 183.185 389.539 183.006C389.429 182.826 389.181 182.684 388.793 182.58C388.551 182.515 388.306 182.484 388.057 182.487C387.813 182.491 387.586 182.528 387.376 182.598C387.174 182.667 387.007 182.767 386.875 182.899L386.87 182.904C386.767 183.007 386.712 183.107 386.705 183.203C386.702 183.3 386.751 183.399 386.852 183.5C386.952 183.6 387.11 183.708 387.324 183.823L388.305 184.324C388.897 184.63 389.249 184.943 389.359 185.263C389.469 185.582 389.331 185.935 388.944 186.322L388.934 186.332C388.599 186.667 388.174 186.925 387.658 187.105C387.143 187.286 386.583 187.385 385.979 187.403C385.378 187.418 384.783 187.346 384.193 187.188ZM391.796 189.121C390.969 188.899 390.483 188.628 390.34 188.308C390.197 187.988 390.379 187.575 390.885 187.069L393.833 184.12L392.711 183.819L393.644 182.887L394.766 183.187L396.062 181.892L397.732 182.34L396.437 183.635L397.956 184.042L397.023 184.975L395.504 184.568L392.841 187.231C392.58 187.492 392.463 187.704 392.49 187.867C392.525 188.027 392.712 188.153 393.051 188.244C393.169 188.275 393.268 188.3 393.346 188.317C393.432 188.331 393.526 188.349 393.629 188.368L392.701 189.296C392.571 189.282 392.426 189.259 392.266 189.229C392.111 189.199 391.955 189.164 391.796 189.121Z" fill="#222222"/>
<g filter="url(#filter0_d_107_990)">
<rect width="293" height="33" rx="5" transform="matrix(0.965926 0.258819 -0.707107 0.707107 524.043 205.698)" fill="white" shape-rendering="crispEdges"/>
<path d="M634.727 254.404C633.987 254.206 633.428 253.95 633.05 253.636C632.676 253.324 632.483 252.975 632.47 252.592C632.457 252.209 632.631 251.812 632.991 251.402L633.052 251.332L634.703 251.774L634.661 251.825C634.491 252.028 634.426 252.227 634.465 252.422C634.51 252.618 634.646 252.799 634.875 252.967C635.107 253.131 635.423 253.267 635.824 253.374C636.207 253.477 636.589 253.524 636.971 253.516C637.353 253.508 637.703 253.451 638.022 253.344C638.344 253.234 638.605 253.08 638.805 252.88L638.81 252.875C639.061 252.624 639.131 252.383 639.021 252.153C638.913 251.92 638.6 251.673 638.08 251.411L637.211 250.982C636.386 250.569 635.916 250.136 635.804 249.685C635.699 249.232 635.906 248.746 636.424 248.227L636.429 248.223C636.845 247.807 637.359 247.483 637.971 247.251C638.587 247.019 639.246 246.888 639.949 246.855C640.658 246.821 641.357 246.895 642.043 247.079C642.748 247.268 643.27 247.518 643.611 247.83C643.956 248.139 644.127 248.481 644.125 248.857C644.124 249.232 643.954 249.612 643.615 249.995L643.559 250.06L641.935 249.624L641.98 249.563C642.124 249.368 642.18 249.181 642.148 249.001C642.123 248.819 642.015 248.651 641.823 248.497C641.63 248.344 641.351 248.218 640.986 248.12C640.638 248.027 640.288 247.984 639.934 247.991C639.584 247.995 639.259 248.047 638.958 248.147C638.663 248.247 638.415 248.397 638.215 248.597L638.21 248.602C637.965 248.847 637.892 249.085 637.991 249.315C638.094 249.547 638.397 249.788 638.901 250.037L639.765 250.471C640.331 250.753 640.738 251.036 640.985 251.319C641.233 251.602 641.326 251.896 641.265 252.203C641.212 252.507 641.008 252.837 640.653 253.191L640.649 253.196C640.197 253.647 639.656 253.996 639.023 254.244C638.395 254.492 637.711 254.632 636.972 254.662C636.237 254.694 635.488 254.608 634.727 254.404ZM642.176 256.29C641.723 256.168 641.38 255.995 641.148 255.769C640.92 255.545 640.821 255.287 640.849 254.997C640.885 254.704 641.064 254.396 641.386 254.074L641.396 254.064C641.709 253.752 642.083 253.511 642.52 253.342C642.96 253.17 643.45 253.074 643.988 253.055C644.526 253.036 645.099 253.093 645.707 253.228L648.496 253.822L647.703 254.614L645.151 254.078C644.669 253.973 644.257 253.953 643.914 254.016C643.572 254.079 643.291 254.221 643.072 254.44L643.062 254.45C642.837 254.675 642.778 254.882 642.885 255.07C642.997 255.26 643.236 255.403 643.601 255.501C643.931 255.59 644.275 255.62 644.631 255.593C644.988 255.566 645.323 255.49 645.637 255.366C645.954 255.239 646.217 255.07 646.427 254.861L648.099 253.188C648.364 252.924 648.45 252.692 648.36 252.492C648.273 252.289 648.005 252.127 647.556 252.007C647.182 251.907 646.828 251.873 646.493 251.906C646.162 251.936 645.868 252.026 645.61 252.178L645.584 252.196L644.032 251.78L644.082 251.738C644.432 251.456 644.85 251.239 645.336 251.087C645.823 250.936 646.345 250.857 646.903 250.851C647.461 250.846 648.024 250.919 648.592 251.071C649.217 251.239 649.675 251.451 649.964 251.708C650.257 251.963 650.382 252.253 650.339 252.581C650.299 252.905 650.094 253.253 649.724 253.624L646.113 257.234L644.488 256.799L645.214 256.074L645.101 256.044C644.802 256.176 644.485 256.275 644.151 256.341C643.822 256.408 643.491 256.438 643.158 256.43C642.825 256.423 642.498 256.376 642.176 256.29ZM649.804 258.223L652.519 252.252L654.275 252.722L651.83 257.277L651.949 257.309L657.715 253.644L659.445 254.108L651.6 258.705L649.804 258.223ZM658.242 260.619C657.524 260.427 657.019 260.151 656.727 259.79C656.438 259.431 656.36 259.01 656.492 258.526C656.624 258.043 656.97 257.52 657.531 256.96L657.536 256.955C658.09 256.401 658.71 255.954 659.395 255.614C660.085 255.276 660.796 255.062 661.528 254.972C662.263 254.879 662.971 254.924 663.654 255.107C664.34 255.291 664.819 255.56 665.09 255.915C665.368 256.267 665.443 256.677 665.316 257.146C665.188 257.614 664.858 258.114 664.326 258.646L663.93 259.042L658.066 257.471L658.874 256.664L663.931 258.019L662.398 258.564L662.877 258.086C663.228 257.734 663.447 257.423 663.534 257.152C663.621 256.881 663.592 256.653 663.448 256.468C663.309 256.283 663.07 256.146 662.731 256.055C662.392 255.964 662.029 255.944 661.643 255.996C661.264 256.046 660.88 256.167 660.49 256.361C660.109 256.553 659.749 256.818 659.41 257.157L658.927 257.64C658.601 257.966 658.397 258.264 658.315 258.537C658.236 258.805 658.27 259.039 658.417 259.238C658.572 259.435 658.839 259.584 659.217 259.685C659.512 259.764 659.796 259.802 660.069 259.797C660.349 259.79 660.598 259.761 660.817 259.71C661.04 259.655 661.218 259.594 661.351 259.528L661.405 259.499L662.963 259.917L662.906 259.957C662.678 260.112 662.399 260.258 662.067 260.394C661.744 260.528 661.376 260.636 660.965 260.718C660.561 260.797 660.128 260.834 659.665 260.829C659.205 260.82 658.73 260.75 658.242 260.619ZM665.749 262.606C665.15 262.446 664.738 262.196 664.513 261.858C664.291 261.517 664.263 261.109 664.43 260.635C664.597 260.161 664.958 259.646 665.512 259.092L665.522 259.082C666.083 258.522 666.685 258.07 667.329 257.728C667.98 257.384 668.635 257.161 669.295 257.06C669.962 256.956 670.599 256.986 671.206 257.149C671.536 257.237 671.806 257.359 672.015 257.513C672.227 257.663 672.371 257.837 672.448 258.033C672.53 258.231 672.537 258.441 672.47 258.664L672.589 258.696L675.475 255.81L677.113 256.249L669.785 263.577L668.147 263.138L668.974 262.312L668.855 262.28C668.533 262.435 668.194 262.553 667.84 262.633C667.493 262.712 667.142 262.751 666.786 262.749C666.434 262.745 666.088 262.697 665.749 262.606ZM667.279 261.729C667.653 261.829 668.042 261.848 668.446 261.784C668.858 261.719 669.263 261.578 669.663 261.363C670.071 261.145 670.45 260.861 670.801 260.509L670.811 260.5C671.165 260.145 671.395 259.821 671.5 259.526C671.609 259.232 671.597 258.98 671.462 258.768C671.332 258.558 671.08 258.402 670.706 258.302C670.336 258.203 669.946 258.186 669.534 258.252C669.13 258.315 668.727 258.456 668.324 258.675C667.924 258.891 667.547 259.176 667.192 259.53L667.183 259.54C666.828 259.894 666.596 260.218 666.487 260.512C666.378 260.805 666.388 261.057 666.518 261.268C666.651 261.475 666.905 261.629 667.279 261.729Z" fill="#222222"/>
</g>
<rect width="594" height="41" rx="8" transform="matrix(0.965926 0.258819 -0.707107 0.707107 251.991 63)" fill="#DDDDDD"/>
<g filter="url(#filter1_d_107_990)">
<rect width="293" height="33" rx="5" transform="matrix(0.965926 0.258819 -0.707107 0.707107 253.027 66.8638)" fill="white" shape-rendering="crispEdges"/>
<path d="M354.298 112.827L361.273 105.852L362.752 106.249L362.618 112.863L361.883 112.108L362.734 112.336L367.539 107.531L369.177 107.97L362.202 114.945L360.729 114.551L360.868 107.932L361.603 108.687L360.752 108.458L355.942 113.268L354.298 112.827ZM367.371 116.465C366.654 116.273 366.149 115.997 365.856 115.636C365.568 115.277 365.489 114.856 365.621 114.372C365.753 113.889 366.1 113.366 366.66 112.806L366.665 112.801C367.219 112.247 367.839 111.8 368.525 111.46C369.214 111.122 369.925 110.908 370.657 110.818C371.392 110.725 372.101 110.77 372.783 110.953C373.47 111.137 373.948 111.406 374.219 111.761C374.497 112.113 374.573 112.523 374.445 112.992C374.317 113.46 373.987 113.96 373.455 114.492L373.059 114.888L367.196 113.317L368.003 112.51L373.061 113.865L371.528 114.41L372.006 113.932C372.357 113.58 372.576 113.269 372.663 112.998C372.75 112.727 372.721 112.499 372.578 112.314C372.438 112.129 372.199 111.992 371.86 111.901C371.521 111.81 371.159 111.79 370.772 111.842C370.393 111.892 370.009 112.013 369.62 112.207C369.238 112.399 368.878 112.664 368.54 113.003L368.056 113.486C367.731 113.812 367.527 114.11 367.444 114.383C367.365 114.651 367.399 114.885 367.547 115.084C367.701 115.281 367.968 115.43 368.347 115.531C368.642 115.61 368.925 115.648 369.198 115.643C369.478 115.636 369.728 115.607 369.947 115.556C370.169 115.501 370.347 115.44 370.48 115.374L370.534 115.345L372.092 115.763L372.036 115.803C371.807 115.958 371.528 116.104 371.197 116.24C370.873 116.374 370.505 116.482 370.094 116.564C369.691 116.643 369.257 116.68 368.794 116.675C368.334 116.666 367.86 116.596 367.371 116.465ZM374.244 118.282C373.791 118.161 373.448 117.987 373.216 117.762C372.989 117.537 372.889 117.28 372.917 116.989C372.953 116.696 373.132 116.389 373.455 116.067L373.464 116.057C373.777 115.744 374.152 115.504 374.588 115.335C375.029 115.162 375.518 115.067 376.056 115.048C376.594 115.028 377.167 115.086 377.775 115.22L380.564 115.814L379.771 116.607L377.219 116.07C376.737 115.965 376.325 115.945 375.982 116.008C375.64 116.072 375.359 116.213 375.14 116.432L375.13 116.442C374.905 116.668 374.846 116.874 374.953 117.063C375.065 117.252 375.304 117.396 375.669 117.494C376 117.582 376.343 117.613 376.699 117.586C377.056 117.559 377.391 117.483 377.705 117.359C378.022 117.231 378.285 117.063 378.495 116.853L380.167 115.181C380.432 114.917 380.519 114.684 380.428 114.485C380.341 114.281 380.073 114.12 379.624 113.999C379.25 113.899 378.896 113.866 378.561 113.899C378.23 113.928 377.936 114.019 377.678 114.171L377.652 114.188L376.1 113.772L376.151 113.731C376.5 113.448 376.918 113.231 377.404 113.08C377.891 112.928 378.413 112.85 378.971 112.844C379.53 112.838 380.093 112.911 380.66 113.064C381.286 113.231 381.743 113.444 382.032 113.701C382.325 113.955 382.45 114.246 382.407 114.574C382.368 114.898 382.162 115.245 381.792 115.616L378.181 119.227L376.557 118.792L377.282 118.067L377.169 118.036C376.87 118.169 376.553 118.268 376.219 118.333C375.89 118.401 375.559 118.43 375.226 118.423C374.893 118.415 374.566 118.368 374.244 118.282ZM380.155 119.756L385.439 114.473L387.083 114.913L386.271 115.725L386.383 115.755C386.79 115.505 387.231 115.343 387.705 115.27C388.185 115.198 388.662 115.226 389.137 115.353C389.261 115.386 389.375 115.425 389.481 115.47C389.595 115.513 389.683 115.553 389.746 115.59L388.668 116.668C388.559 116.61 388.441 116.558 388.314 116.512C388.195 116.463 388.063 116.42 387.917 116.381C387.552 116.283 387.183 116.247 386.81 116.274C386.437 116.301 386.082 116.388 385.746 116.535C385.413 116.678 385.12 116.876 384.869 117.127L381.799 120.196L380.155 119.756ZM388.58 122.148C387.862 121.956 387.357 121.68 387.065 121.319C386.776 120.96 386.698 120.539 386.83 120.055C386.962 119.571 387.308 119.049 387.869 118.489L387.874 118.484C388.428 117.93 389.048 117.483 389.733 117.143C390.423 116.805 391.134 116.591 391.866 116.501C392.601 116.408 393.31 116.453 393.992 116.636C394.679 116.82 395.157 117.089 395.428 117.443C395.706 117.796 395.782 118.206 395.654 118.675C395.526 119.143 395.196 119.643 394.664 120.175L394.268 120.571L388.404 119L389.212 118.193L394.27 119.548L392.736 120.093L393.215 119.615C393.566 119.263 393.785 118.952 393.872 118.681C393.959 118.41 393.93 118.182 393.787 117.996C393.647 117.812 393.408 117.674 393.069 117.584C392.73 117.493 392.367 117.473 391.981 117.525C391.602 117.575 391.218 117.696 390.828 117.89C390.447 118.082 390.087 118.347 389.748 118.686L389.265 119.169C388.94 119.495 388.736 119.793 388.653 120.065C388.574 120.334 388.608 120.568 388.755 120.767C388.91 120.964 389.177 121.113 389.556 121.214C389.851 121.293 390.134 121.331 390.407 121.326C390.687 121.319 390.937 121.29 391.156 121.239C391.378 121.184 391.556 121.123 391.689 121.057L391.743 121.028L393.301 121.446L393.244 121.486C393.016 121.641 392.737 121.787 392.405 121.923C392.082 122.057 391.714 122.165 391.303 122.246C390.9 122.326 390.466 122.363 390.003 122.358C389.543 122.349 389.069 122.279 388.58 122.148ZM396.193 124.188C395.581 124.024 395.116 123.82 394.797 123.575C394.486 123.328 394.315 123.058 394.286 122.764C394.259 122.466 394.371 122.162 394.623 121.849L394.632 121.839L396.263 122.276L396.26 122.288C396.165 122.495 396.18 122.689 396.306 122.87C396.432 123.051 396.7 123.196 397.109 123.306C397.382 123.379 397.649 123.416 397.911 123.416C398.176 123.414 398.418 123.379 398.636 123.31C398.855 123.242 399.031 123.142 399.163 123.01L399.172 123.001C399.327 122.846 399.37 122.694 399.302 122.545C399.236 122.393 399.038 122.231 398.706 122.06L397.731 121.554C397.347 121.357 397.072 121.153 396.904 120.94C396.737 120.728 396.675 120.505 396.719 120.272C396.767 120.039 396.92 119.794 397.178 119.536L397.183 119.532C397.502 119.213 397.903 118.965 398.387 118.788C398.875 118.612 399.405 118.515 399.976 118.497C400.547 118.478 401.117 118.545 401.684 118.697C402.27 118.854 402.709 119.053 403.003 119.295C403.297 119.538 403.45 119.803 403.462 120.093C403.474 120.382 403.354 120.675 403.103 120.971L403.093 120.98L401.548 120.566L401.556 120.55C401.662 120.366 401.656 120.185 401.539 120.006C401.429 119.826 401.181 119.684 400.793 119.58C400.551 119.515 400.306 119.484 400.057 119.487C399.813 119.491 399.586 119.528 399.376 119.598C399.174 119.667 399.007 119.767 398.875 119.899L398.87 119.904C398.767 120.007 398.712 120.107 398.705 120.203C398.702 120.3 398.751 120.399 398.852 120.5C398.952 120.6 399.11 120.708 399.324 120.823L400.305 121.324C400.897 121.63 401.249 121.943 401.359 122.263C401.469 122.582 401.331 122.935 400.944 123.322L400.934 123.332C400.599 123.667 400.174 123.925 399.658 124.105C399.143 124.286 398.583 124.385 397.979 124.403C397.378 124.418 396.783 124.346 396.193 124.188ZM403.796 126.121C402.969 125.899 402.483 125.628 402.34 125.308C402.197 124.988 402.379 124.575 402.885 124.069L405.833 121.12L404.711 120.819L405.644 119.887L406.766 120.187L408.062 118.892L409.732 119.34L408.437 120.635L409.956 121.042L409.023 121.975L407.504 121.568L404.841 124.231C404.58 124.492 404.463 124.704 404.49 124.867C404.525 125.027 404.712 125.153 405.051 125.244C405.169 125.275 405.268 125.3 405.346 125.317C405.432 125.331 405.526 125.349 405.629 125.368L404.701 126.296C404.571 126.282 404.426 126.259 404.266 126.229C404.111 126.199 403.955 126.164 403.796 126.121Z" fill="#222222"/>
</g>
<path d="M646.727 191.404C645.987 191.206 645.428 190.95 645.05 190.636C644.676 190.324 644.483 189.975 644.47 189.592C644.457 189.209 644.631 188.812 644.991 188.402L645.052 188.332L646.703 188.774L646.661 188.825C646.491 189.028 646.426 189.227 646.465 189.422C646.51 189.618 646.646 189.799 646.875 189.967C647.107 190.131 647.423 190.267 647.824 190.374C648.207 190.477 648.589 190.524 648.971 190.516C649.353 190.508 649.703 190.451 650.022 190.344C650.344 190.234 650.605 190.08 650.805 189.88L650.81 189.875C651.061 189.624 651.131 189.383 651.021 189.153C650.913 188.92 650.6 188.673 650.08 188.411L649.211 187.982C648.386 187.569 647.916 187.136 647.804 186.685C647.699 186.232 647.906 185.746 648.424 185.227L648.429 185.223C648.845 184.807 649.359 184.483 649.971 184.251C650.587 184.019 651.246 183.888 651.949 183.855C652.658 183.821 653.357 183.895 654.043 184.079C654.748 184.268 655.27 184.518 655.611 184.83C655.956 185.139 656.127 185.481 656.125 185.857C656.124 186.232 655.954 186.612 655.615 186.995L655.559 187.06L653.935 186.624L653.98 186.563C654.124 186.368 654.18 186.181 654.148 186.001C654.123 185.819 654.015 185.651 653.823 185.497C653.63 185.344 653.351 185.218 652.986 185.12C652.638 185.027 652.288 184.984 651.934 184.991C651.584 184.995 651.259 185.047 650.958 185.147C650.663 185.247 650.415 185.397 650.215 185.597L650.21 185.602C649.965 185.847 649.892 186.085 649.991 186.315C650.094 186.547 650.397 186.788 650.901 187.037L651.765 187.471C652.331 187.753 652.738 188.036 652.985 188.319C653.233 188.602 653.326 188.896 653.265 189.203C653.212 189.507 653.008 189.837 652.653 190.191L652.649 190.196C652.197 190.647 651.656 190.996 651.023 191.244C650.395 191.492 649.711 191.632 648.972 191.662C648.237 191.694 647.488 191.608 646.727 191.404ZM654.176 193.29C653.723 193.168 653.38 192.995 653.148 192.769C652.92 192.545 652.821 192.287 652.849 191.997C652.885 191.704 653.064 191.396 653.386 191.074L653.396 191.064C653.709 190.752 654.083 190.511 654.52 190.342C654.96 190.17 655.45 190.074 655.988 190.055C656.526 190.036 657.099 190.093 657.707 190.228L660.496 190.822L659.703 191.614L657.151 191.078C656.669 190.973 656.257 190.953 655.914 191.016C655.572 191.079 655.291 191.221 655.072 191.44L655.062 191.45C654.837 191.675 654.778 191.882 654.885 192.07C654.997 192.26 655.236 192.403 655.601 192.501C655.931 192.59 656.275 192.62 656.631 192.593C656.988 192.566 657.323 192.49 657.637 192.366C657.954 192.239 658.217 192.07 658.427 191.861L660.099 190.188C660.364 189.924 660.45 189.692 660.36 189.492C660.273 189.289 660.005 189.127 659.556 189.007C659.182 188.907 658.828 188.873 658.493 188.906C658.162 188.936 657.868 189.026 657.61 189.178L657.584 189.196L656.032 188.78L656.082 188.738C656.432 188.456 656.85 188.239 657.336 188.087C657.823 187.936 658.345 187.857 658.903 187.851C659.461 187.846 660.024 187.919 660.592 188.071C661.217 188.239 661.675 188.451 661.964 188.708C662.257 188.963 662.382 189.253 662.339 189.581C662.299 189.905 662.094 190.253 661.724 190.624L658.113 194.234L656.488 193.799L657.214 193.074L657.101 193.044C656.802 193.176 656.485 193.275 656.151 193.341C655.822 193.408 655.491 193.438 655.158 193.43C654.825 193.423 654.498 193.376 654.176 193.29ZM661.804 195.223L664.519 189.252L666.275 189.722L663.83 194.277L663.949 194.309L669.715 190.644L671.445 191.108L663.6 195.705L661.804 195.223ZM670.242 197.619C669.524 197.427 669.019 197.151 668.727 196.79C668.438 196.431 668.36 196.01 668.492 195.526C668.624 195.043 668.97 194.52 669.531 193.96L669.536 193.955C670.09 193.401 670.71 192.954 671.395 192.614C672.085 192.276 672.796 192.062 673.528 191.972C674.263 191.879 674.971 191.924 675.654 192.107C676.34 192.291 676.819 192.56 677.09 192.915C677.368 193.267 677.443 193.677 677.316 194.146C677.188 194.614 676.858 195.114 676.326 195.646L675.93 196.042L670.066 194.471L670.874 193.664L675.931 195.019L674.398 195.564L674.877 195.086C675.228 194.734 675.447 194.423 675.534 194.152C675.621 193.881 675.592 193.653 675.448 193.468C675.309 193.283 675.07 193.146 674.731 193.055C674.392 192.964 674.029 192.944 673.643 192.996C673.264 193.046 672.88 193.167 672.49 193.361C672.109 193.553 671.749 193.818 671.41 194.157L670.927 194.64C670.601 194.966 670.397 195.264 670.315 195.537C670.236 195.805 670.27 196.039 670.417 196.238C670.572 196.435 670.839 196.584 671.217 196.685C671.512 196.764 671.796 196.802 672.069 196.797C672.349 196.79 672.598 196.761 672.817 196.71C673.04 196.655 673.218 196.594 673.351 196.528L673.405 196.499L674.963 196.917L674.906 196.957C674.678 197.112 674.399 197.258 674.067 197.394C673.744 197.528 673.376 197.636 672.965 197.718C672.561 197.797 672.128 197.834 671.665 197.829C671.205 197.82 670.73 197.75 670.242 197.619ZM677.749 199.606C677.15 199.446 676.738 199.196 676.513 198.858C676.291 198.517 676.263 198.109 676.43 197.635C676.597 197.161 676.958 196.646 677.512 196.092L677.522 196.082C678.083 195.522 678.685 195.07 679.329 194.728C679.98 194.384 680.635 194.161 681.295 194.06C681.962 193.956 682.599 193.986 683.206 194.149C683.536 194.237 683.806 194.359 684.015 194.513C684.227 194.663 684.371 194.837 684.448 195.033C684.53 195.231 684.537 195.441 684.47 195.664L684.589 195.696L687.475 192.81L689.113 193.249L681.785 200.577L680.147 200.138L680.974 199.312L680.855 199.28C680.533 199.435 680.194 199.553 679.84 199.633C679.493 199.712 679.142 199.751 678.786 199.749C678.434 199.745 678.088 199.697 677.749 199.606ZM679.279 198.729C679.653 198.829 680.042 198.848 680.446 198.784C680.858 198.719 681.263 198.578 681.663 198.363C682.071 198.145 682.45 197.861 682.801 197.509L682.811 197.5C683.165 197.145 683.395 196.821 683.5 196.526C683.609 196.232 683.597 195.98 683.462 195.768C683.332 195.558 683.08 195.402 682.706 195.302C682.336 195.203 681.946 195.186 681.534 195.252C681.13 195.315 680.727 195.456 680.324 195.675C679.924 195.891 679.547 196.176 679.192 196.53L679.183 196.54C678.828 196.894 678.596 197.218 678.487 197.512C678.378 197.805 678.388 198.057 678.518 198.268C678.651 198.475 678.905 198.629 679.279 198.729Z" fill="#222222"/>
</g>
<defs>
<filter id="filter0_d_107_990" x="483.708" y="194.698" width="340.351" height="133.168" filterUnits="userSpaceOnUse" color-interpolation-filters="sRGB">
<feFlood flood-opacity="0" result="BackgroundImageFix"/>
<feColorMatrix in="SourceAlpha" type="matrix" values="0 0 0 0 0 0 0 0 0 0 0 0 0 0 0 0 0 0 127 0" result="hardAlpha"/>
<feOffset dy="6"/>
<feGaussianBlur stdDeviation="8.5"/>
<feComposite in2="hardAlpha" operator="out"/>
<feColorMatrix type="matrix" values="0 0 0 0 0 0 0 0 0 0 0 0 0 0 0 0 0 0 0.08 0"/>
<feBlend mode="normal" in2="BackgroundImageFix" result="effect1_dropShadow_107_990"/>
<feBlend mode="normal" in="SourceGraphic" in2="effect1_dropShadow_107_990" result="shape"/>
</filter>
<filter id="filter1_d_107_990" x="212.692" y="55.8638" width="340.351" height="133.168" filterUnits="userSpaceOnUse" color-interpolation-filters="sRGB">
<feFlood flood-opacity="0" result="BackgroundImageFix"/>
<feColorMatrix in="SourceAlpha" type="matrix" values="0 0 0 0 0 0 0 0 0 0 0 0 0 0 0 0 0 0 127 0" result="hardAlpha"/>
<feOffset dy="6"/>
<feGaussianBlur stdDeviation="8.5"/>
<feComposite in2="hardAlpha" operator="out"/>
<feColorMatrix type="matrix" values="0 0 0 0 0 0 0 0 0 0 0 0 0 0 0 0 0 0 0.08 0"/>
<feBlend mode="normal" in2="BackgroundImageFix" result="effect1_dropShadow_107_990"/>
<feBlend mode="normal" in="SourceGraphic" in2="effect1_dropShadow_107_990" result="shape"/>
</filter>
<clipPath id="clip0_107_990">
<rect width="1024" height="426" rx="24" fill="white"/>
</clipPath>
</defs>
</svg>
