<svg width="953" height="150" viewBox="0 0 953 150" fill="none" xmlns="http://www.w3.org/2000/svg">
<rect width="953" height="150" rx="24" fill="#F5F5F5"/>
<rect x="191" y="54.5" width="571" height="41" rx="8" fill="#DDDDDD"/>
<g filter="url(#filter0_d_101_153)">
<rect x="195" y="58.5" width="281.5" height="33" rx="5" fill="white" shape-rendering="crispEdges"/>
<path d="M321.723 79.5V71.1191H318.688V69.6357H326.521V71.1191H323.486V79.5H321.723ZM328.88 79.623C328.41 79.623 327.989 79.5319 327.615 79.3496C327.246 79.1673 326.954 78.9098 326.74 78.5771C326.531 78.2399 326.426 77.8434 326.426 77.3877V77.374C326.426 76.932 326.535 76.5514 326.754 76.2324C326.973 75.9089 327.294 75.6559 327.718 75.4736C328.142 75.2913 328.657 75.1842 329.263 75.1523L332.024 74.9814V76.1025L329.502 76.2666C329.023 76.2939 328.67 76.3942 328.442 76.5674C328.215 76.7406 328.101 76.9821 328.101 77.292V77.3057C328.101 77.6247 328.221 77.873 328.463 78.0508C328.709 78.2285 329.021 78.3174 329.399 78.3174C329.741 78.3174 330.047 78.249 330.315 78.1123C330.584 77.9756 330.796 77.791 330.951 77.5586C331.106 77.3216 331.184 77.055 331.184 76.7588V74.3936C331.184 74.0199 331.065 73.735 330.828 73.5391C330.591 73.3385 330.24 73.2383 329.775 73.2383C329.388 73.2383 329.071 73.3066 328.825 73.4434C328.579 73.5755 328.413 73.7646 328.326 74.0107L328.319 74.0381H326.713L326.72 73.9766C326.774 73.5573 326.938 73.1904 327.212 72.876C327.485 72.5615 327.848 72.3177 328.299 72.1445C328.75 71.9714 329.27 71.8848 329.857 71.8848C330.505 71.8848 331.051 71.985 331.498 72.1855C331.945 72.3815 332.284 72.6686 332.517 73.0469C332.749 73.4206 332.865 73.8695 332.865 74.3936V79.5H331.184V78.4746H331.067C330.931 78.7116 330.753 78.9167 330.534 79.0898C330.32 79.263 330.074 79.3952 329.796 79.4863C329.518 79.5775 329.213 79.623 328.88 79.623ZM339.065 79.623C338.715 79.623 338.393 79.5729 338.102 79.4727C337.81 79.3678 337.552 79.2197 337.329 79.0283C337.11 78.8324 336.933 78.5999 336.796 78.3311H336.68V79.5H334.978V69.1367H336.68V73.2178H336.796C336.928 72.9489 337.106 72.7165 337.329 72.5205C337.552 72.3245 337.812 72.1742 338.108 72.0693C338.405 71.96 338.724 71.9053 339.065 71.9053C339.694 71.9053 340.237 72.0625 340.692 72.377C341.153 72.6868 341.508 73.1312 341.759 73.71C342.009 74.2842 342.135 74.9678 342.135 75.7607V75.7744C342.135 76.5583 342.007 77.2396 341.752 77.8184C341.501 78.3971 341.146 78.8438 340.686 79.1582C340.23 79.4681 339.69 79.623 339.065 79.623ZM338.532 78.1875C338.92 78.1875 339.252 78.0918 339.53 77.9004C339.808 77.7044 340.022 77.4264 340.173 77.0664C340.323 76.7064 340.398 76.2757 340.398 75.7744V75.7607C340.398 75.2594 340.323 74.8288 340.173 74.4688C340.022 74.1042 339.808 73.8262 339.53 73.6348C339.252 73.4388 338.92 73.3408 338.532 73.3408C338.149 73.3408 337.817 73.4388 337.534 73.6348C337.252 73.8307 337.033 74.1087 336.878 74.4688C336.728 74.8288 336.652 75.2594 336.652 75.7607V75.7744C336.652 76.2712 336.728 76.7018 336.878 77.0664C337.033 77.4264 337.249 77.7044 337.527 77.9004C337.81 78.0918 338.145 78.1875 338.532 78.1875ZM349.982 79.5V71.3721H349.859L347.405 73.1016V71.4473L349.982 69.6357H351.739V79.5H349.982Z" fill="#222222"/>
</g>
<path d="M601.921 79.5V71.1191H598.886V69.6357H606.72V71.1191H603.685V79.5H601.921ZM609.078 79.623C608.609 79.623 608.187 79.5319 607.813 79.3496C607.444 79.1673 607.153 78.9098 606.938 78.5771C606.729 78.2399 606.624 77.8434 606.624 77.3877V77.374C606.624 76.932 606.733 76.5514 606.952 76.2324C607.171 75.9089 607.492 75.6559 607.916 75.4736C608.34 75.2913 608.855 75.1842 609.461 75.1523L612.223 74.9814V76.1025L609.7 76.2666C609.222 76.2939 608.868 76.3942 608.641 76.5674C608.413 76.7406 608.299 76.9821 608.299 77.292V77.3057C608.299 77.6247 608.42 77.873 608.661 78.0508C608.907 78.2285 609.219 78.3174 609.598 78.3174C609.939 78.3174 610.245 78.249 610.514 78.1123C610.783 77.9756 610.994 77.791 611.149 77.5586C611.304 77.3216 611.382 77.055 611.382 76.7588V74.3936C611.382 74.0199 611.263 73.735 611.026 73.5391C610.789 73.3385 610.438 73.2383 609.974 73.2383C609.586 73.2383 609.27 73.3066 609.023 73.4434C608.777 73.5755 608.611 73.7646 608.524 74.0107L608.518 74.0381H606.911L606.918 73.9766C606.973 73.5573 607.137 73.1904 607.41 72.876C607.684 72.5615 608.046 72.3177 608.497 72.1445C608.948 71.9714 609.468 71.8848 610.056 71.8848C610.703 71.8848 611.25 71.985 611.696 72.1855C612.143 72.3815 612.482 72.6686 612.715 73.0469C612.947 73.4206 613.063 73.8695 613.063 74.3936V79.5H611.382V78.4746H611.266C611.129 78.7116 610.951 78.9167 610.732 79.0898C610.518 79.263 610.272 79.3952 609.994 79.4863C609.716 79.5775 609.411 79.623 609.078 79.623ZM619.264 79.623C618.913 79.623 618.591 79.5729 618.3 79.4727C618.008 79.3678 617.751 79.2197 617.527 79.0283C617.309 78.8324 617.131 78.5999 616.994 78.3311H616.878V79.5H615.176V69.1367H616.878V73.2178H616.994C617.126 72.9489 617.304 72.7165 617.527 72.5205C617.751 72.3245 618.01 72.1742 618.307 72.0693C618.603 71.96 618.922 71.9053 619.264 71.9053C619.893 71.9053 620.435 72.0625 620.891 72.377C621.351 72.6868 621.706 73.1312 621.957 73.71C622.208 74.2842 622.333 74.9678 622.333 75.7607V75.7744C622.333 76.5583 622.205 77.2396 621.95 77.8184C621.7 78.3971 621.344 78.8438 620.884 79.1582C620.428 79.4681 619.888 79.623 619.264 79.623ZM618.73 78.1875C619.118 78.1875 619.451 78.0918 619.729 77.9004C620.007 77.7044 620.221 77.4264 620.371 77.0664C620.521 76.7064 620.597 76.2757 620.597 75.7744V75.7607C620.597 75.2594 620.521 74.8288 620.371 74.4688C620.221 74.1042 620.007 73.8262 619.729 73.6348C619.451 73.4388 619.118 73.3408 618.73 73.3408C618.348 73.3408 618.015 73.4388 617.732 73.6348C617.45 73.8307 617.231 74.1087 617.076 74.4688C616.926 74.8288 616.851 75.2594 616.851 75.7607V75.7744C616.851 76.2712 616.926 76.7018 617.076 77.0664C617.231 77.4264 617.448 77.7044 617.726 77.9004C618.008 78.0918 618.343 78.1875 618.73 78.1875ZM627.768 79.5V78.3105L631.001 75.002C631.448 74.5508 631.794 74.1794 632.04 73.8877C632.291 73.5915 632.466 73.3317 632.566 73.1084C632.667 72.8805 632.717 72.6413 632.717 72.3906V72.3701C632.717 72.0693 632.651 71.8005 632.519 71.5635C632.386 71.3265 632.197 71.1419 631.951 71.0098C631.705 70.873 631.411 70.8047 631.069 70.8047C630.723 70.8047 630.418 70.8776 630.153 71.0234C629.889 71.1647 629.684 71.363 629.538 71.6182C629.392 71.8734 629.319 72.1719 629.319 72.5137L629.312 72.541L627.672 72.5342L627.665 72.5137C627.665 71.8984 627.813 71.3561 628.109 70.8867C628.406 70.4173 628.816 70.0505 629.34 69.7861C629.864 69.5218 630.47 69.3896 631.158 69.3896C631.796 69.3896 632.364 69.5104 632.86 69.752C633.362 69.9935 633.754 70.3262 634.036 70.75C634.319 71.1738 634.46 71.6637 634.46 72.2197V72.2402C634.46 72.6094 634.389 72.9717 634.248 73.3271C634.107 73.6781 633.865 74.0632 633.523 74.4824C633.186 74.9017 632.719 75.4007 632.122 75.9795L629.682 78.3516L630.146 77.5723V78.3516L629.682 78.0439H634.61V79.5H627.768Z" fill="#222222"/>
<defs>
<filter id="filter0_d_101_153" x="178" y="47.5" width="315.5" height="67" filterUnits="userSpaceOnUse" color-interpolation-filters="sRGB">
<feFlood flood-opacity="0" result="BackgroundImageFix"/>
<feColorMatrix in="SourceAlpha" type="matrix" values="0 0 0 0 0 0 0 0 0 0 0 0 0 0 0 0 0 0 127 0" result="hardAlpha"/>
<feOffset dy="6"/>
<feGaussianBlur stdDeviation="8.5"/>
<feComposite in2="hardAlpha" operator="out"/>
<feColorMatrix type="matrix" values="0 0 0 0 0 0 0 0 0 0 0 0 0 0 0 0 0 0 0.08 0"/>
<feBlend mode="normal" in2="BackgroundImageFix" result="effect1_dropShadow_101_153"/>
<feBlend mode="normal" in="SourceGraphic" in2="effect1_dropShadow_101_153" result="shape"/>
</filter>
</defs>
</svg>
