<svg width="1120" height="421" viewBox="0 0 1120 421" fill="none" xmlns="http://www.w3.org/2000/svg">
<g clip-path="url(#clip0_101_153)">
<rect width="1120" height="421" rx="24" fill="white"/>
<g clip-path="url(#clip1_101_153)">
<rect x="48" y="-2.5" width="1024" height="426" rx="24" fill="white"/>
<g clip-path="url(#clip2_101_153)">
<path d="M651.009 129.285L350.283 48.7056C347.428 47.9405 343.418 49.0148 341.328 51.1051L310.419 82.0139C308.329 84.1042 308.949 86.4189 311.805 87.184L612.53 167.763C615.386 168.528 619.395 167.454 621.485 165.364L652.394 134.455C654.484 132.365 653.864 130.05 651.009 129.285Z" fill="white"/>
<path d="M651.009 129.285L350.283 48.7056C347.428 47.9405 343.418 49.0148 341.328 51.1051L310.419 82.0139C308.329 84.1042 308.949 86.4189 311.805 87.184L612.53 167.763C615.386 168.528 619.395 167.454 621.485 165.364L652.394 134.455C654.484 132.365 653.864 130.05 651.009 129.285Z" stroke="#DDDDDD"/>
<path d="M333.627 73.436L340.738 66.325L342.475 66.7904L336.433 72.8321L340.883 74.0244L339.814 75.0936L333.627 73.436ZM343.434 76.1765C342.972 76.0526 342.623 75.8752 342.386 75.6453C342.154 75.4167 342.052 75.1543 342.082 74.8575C342.118 74.5593 342.3 74.2459 342.629 73.9172L342.639 73.9071C342.958 73.5886 343.34 73.3431 343.785 73.1712C344.234 72.9955 344.732 72.898 345.282 72.878C345.83 72.8586 346.414 72.9175 347.035 73.0541L349.877 73.6599L349.069 74.4679L346.466 73.9209C345.976 73.8142 345.555 73.7935 345.207 73.8577C344.857 73.9225 344.571 74.0665 344.347 74.2904L344.338 74.2999C344.108 74.5301 344.047 74.7411 344.157 74.9329C344.271 75.1259 344.515 75.272 344.888 75.3718C345.224 75.462 345.574 75.4933 345.937 75.4659C346.3 75.4384 346.642 75.3613 346.963 75.2344C347.286 75.1043 347.554 74.933 347.768 74.7191L349.473 73.0141C349.742 72.7448 349.831 72.5079 349.739 72.3047C349.65 72.097 349.377 71.9325 348.919 71.8099C348.537 71.7077 348.176 71.6733 347.836 71.7068C347.498 71.7371 347.198 71.8294 346.935 71.9845L346.909 72.0022L345.327 71.5783L345.377 71.536C345.734 71.2476 346.16 71.0266 346.656 70.8723C347.152 70.7174 347.684 70.6376 348.253 70.6318C348.823 70.6259 349.397 70.7006 349.976 70.8557C350.613 71.0265 351.08 71.2427 351.374 71.5056C351.673 71.7647 351.8 72.0612 351.757 72.3951C351.716 72.7257 351.507 73.08 351.129 73.4579L347.448 77.1392L345.792 76.6954L346.531 75.9561L346.417 75.9255C346.111 76.0603 345.788 76.161 345.448 76.2282C345.112 76.2966 344.775 76.3269 344.435 76.3192C344.095 76.312 343.762 76.2643 343.434 76.1765ZM353.465 78.8641C353.119 78.7715 352.839 78.6502 352.624 78.5013C352.412 78.3486 352.266 78.1741 352.184 77.977C352.11 77.778 352.102 77.5633 352.161 77.3336L352.047 77.3029L351.204 78.1457L349.528 77.6965L356.999 70.2254L358.675 70.6746L355.733 73.6166L355.848 73.6473C356.172 73.4885 356.514 73.3676 356.876 73.2852C357.237 73.2028 357.6 73.1635 357.968 73.166C358.338 73.1653 358.692 73.2097 359.029 73.2999C359.648 73.4659 360.069 73.7225 360.291 74.0692C360.52 74.4146 360.551 74.8282 360.38 75.312C360.213 75.7919 359.844 76.3176 359.272 76.8897L359.262 76.8992C358.697 77.4644 358.08 77.9221 357.412 78.2717C356.747 78.6232 356.075 78.8511 355.396 78.9561C354.723 79.0597 354.08 79.0289 353.465 78.8641ZM353.975 77.6883C354.356 77.7905 354.753 77.8096 355.164 77.7448C355.58 77.6768 355.991 77.5328 356.398 77.3132C356.806 77.093 357.191 76.8025 357.552 76.441L357.562 76.4316C357.923 76.0701 358.16 75.7393 358.271 75.4403C358.386 75.1376 358.375 74.8812 358.24 74.6697C358.107 74.455 357.85 74.2966 357.469 74.1943C357.092 74.0933 356.693 74.0762 356.274 74.1429C355.854 74.2097 355.438 74.3526 355.026 74.5709C354.619 74.7905 354.234 75.0816 353.873 75.4431L353.863 75.4525C353.505 75.8108 353.269 76.141 353.154 76.4437C353.047 76.7439 353.06 77.0016 353.192 77.2162C353.332 77.4289 353.593 77.5861 353.975 77.6883ZM361.294 80.9869C360.563 80.7909 360.048 80.509 359.75 80.1419C359.456 79.7753 359.376 79.346 359.51 78.8532C359.645 78.3599 359.998 77.8275 360.57 77.256L360.575 77.2509C361.14 76.6857 361.772 76.2304 362.471 75.8842C363.174 75.5398 363.899 75.3214 364.644 75.2301C365.394 75.1349 366.116 75.1806 366.812 75.367C367.512 75.5546 368 75.8293 368.276 76.1904C368.56 76.5496 368.636 76.9684 368.506 77.4454C368.376 77.9231 368.039 78.4329 367.498 78.9747L367.093 79.3791L361.115 77.7773L361.939 76.9541L367.095 78.3358L365.532 78.8919L366.02 78.4037C366.378 78.046 366.602 77.7284 366.69 77.4522C366.778 77.176 366.749 76.9434 366.602 76.7545C366.461 76.5662 366.217 76.4257 365.871 76.3331C365.526 76.2405 365.156 76.2206 364.762 76.2733C364.375 76.3241 363.984 76.448 363.587 76.6462C363.197 76.8419 362.831 77.1116 362.486 77.4567L361.993 77.95C361.661 78.2818 361.453 78.586 361.369 78.8635C361.289 79.1378 361.324 79.3759 361.473 79.5791C361.632 79.7791 361.903 79.9312 362.289 80.0346C362.59 80.1152 362.879 80.1534 363.157 80.1487C363.442 80.142 363.697 80.1119 363.92 80.0597C364.147 80.0037 364.328 79.9419 364.464 79.8743L364.519 79.845L366.108 80.2707L366.05 80.3113C365.818 80.4697 365.532 80.6188 365.195 80.7571C364.865 80.8934 364.49 81.0034 364.071 81.087C363.659 81.1686 363.218 81.2063 362.745 81.2005C362.276 81.1916 361.793 81.1204 361.294 80.9869ZM366.452 82.2313L373.923 74.7602L375.599 75.2093L368.128 82.6804L366.452 82.2313Z" fill="#484848"/>
<path d="M718.764 209.025L418.038 128.446C415.183 127.681 411.174 128.755 409.084 130.846L378.175 161.754C376.085 163.845 376.705 166.159 379.56 166.925L680.286 247.504C683.141 248.269 687.15 247.195 689.241 245.104L720.15 214.196C722.24 212.105 721.62 209.791 718.764 209.025Z" fill="white"/>
<path d="M718.764 209.025L418.038 128.446C415.183 127.681 411.174 128.755 409.084 130.846L378.175 161.754C376.085 163.845 376.705 166.159 379.56 166.925L680.286 247.504C683.141 248.269 687.15 247.195 689.241 245.104L720.15 214.196C722.24 212.105 721.62 209.791 718.764 209.025Z" stroke="#DDDDDD"/>
<path d="M411.192 143.008L416.525 137.674L417.655 137.977L413.039 142.593L416.458 143.509L415.74 144.227L411.192 143.008ZM418.482 145.045C418.134 144.952 417.871 144.821 417.691 144.651C417.517 144.479 417.441 144.282 417.463 144.06C417.484 143.838 417.615 143.606 417.857 143.364L417.864 143.357C418.106 143.115 418.391 142.931 418.719 142.804C419.051 142.677 419.416 142.606 419.815 142.591C420.22 142.575 420.649 142.614 421.103 142.711L423.217 143.165L422.651 143.73L420.689 143.317C420.296 143.233 419.958 143.218 419.679 143.271C419.401 143.322 419.174 143.437 418.994 143.617L418.986 143.625C418.804 143.807 418.755 143.977 418.841 144.135C418.929 144.289 419.121 144.406 419.413 144.485C419.686 144.558 419.968 144.583 420.258 144.561C420.555 144.537 420.832 144.474 421.088 144.371C421.348 144.265 421.563 144.126 421.736 143.954L423 142.689C423.222 142.468 423.297 142.274 423.224 142.108C423.157 141.94 422.94 141.806 422.573 141.708C422.268 141.626 421.977 141.599 421.703 141.625C421.432 141.652 421.193 141.729 420.987 141.855L420.965 141.863L419.909 141.581L419.94 141.556C420.206 141.346 420.518 141.186 420.875 141.076C421.24 140.964 421.627 140.905 422.038 140.899C422.452 140.895 422.866 140.948 423.28 141.059C423.741 141.183 424.077 141.342 424.289 141.535C424.506 141.728 424.596 141.948 424.559 142.194C424.528 142.438 424.372 142.701 424.091 142.982L421.345 145.728L420.254 145.436L420.823 144.867L420.742 144.845C420.499 144.951 420.249 145.031 419.992 145.084C419.736 145.135 419.481 145.157 419.227 145.151C418.972 145.145 418.724 145.11 418.482 145.045ZM425.741 146.99C425.486 146.922 425.277 146.832 425.115 146.72C424.957 146.606 424.845 146.474 424.78 146.326C424.721 146.176 424.713 146.014 424.753 145.84L424.668 145.817L424.036 146.449L422.94 146.156L428.528 140.567L429.624 140.861L427.414 143.071L427.499 143.094C427.743 142.975 428 142.886 428.271 142.828C428.546 142.767 428.821 142.737 429.096 142.739C429.374 142.739 429.639 142.772 429.892 142.84C430.356 142.964 430.673 143.157 430.844 143.419C431.016 143.677 431.04 143.986 430.915 144.346C430.789 144.707 430.514 145.099 430.091 145.522L430.083 145.529C429.662 145.951 429.202 146.292 428.703 146.551C428.207 146.813 427.703 146.983 427.194 147.061C426.686 147.138 426.203 147.114 425.741 146.99ZM426.115 146.22C426.422 146.302 426.74 146.316 427.069 146.264C427.399 146.212 427.725 146.097 428.046 145.921C428.371 145.746 428.676 145.515 428.962 145.229L428.97 145.222C429.258 144.933 429.445 144.672 429.532 144.436C429.624 144.197 429.617 143.994 429.509 143.825C429.403 143.653 429.198 143.526 428.891 143.443C428.589 143.362 428.269 143.349 427.934 143.403C427.6 143.454 427.272 143.567 426.947 143.743C426.622 143.918 426.317 144.148 426.031 144.434L426.024 144.442C425.74 144.725 425.553 144.988 425.461 145.228C425.372 145.467 425.383 145.671 425.494 145.842C425.606 146.013 425.813 146.138 426.115 146.22ZM431.607 148.576C431.072 148.433 430.696 148.226 430.48 147.956C430.267 147.683 430.21 147.363 430.312 146.997C430.418 146.632 430.681 146.237 431.105 145.813L431.109 145.809C431.528 145.39 431.997 145.052 432.515 144.794C433.036 144.537 433.573 144.372 434.125 144.298C434.681 144.224 435.212 144.256 435.72 144.393C436.232 144.53 436.588 144.731 436.788 144.997C436.989 145.264 437.038 145.575 436.935 145.931C436.832 146.285 436.58 146.664 436.176 147.068L435.895 147.349L431.462 146.161L432.034 145.588L435.922 146.63L434.864 147.022L435.186 146.7C435.472 146.414 435.648 146.162 435.714 145.942C435.786 145.72 435.764 145.535 435.65 145.385C435.534 145.236 435.341 145.125 435.067 145.052C434.795 144.979 434.502 144.963 434.188 145.003C433.88 145.042 433.568 145.14 433.254 145.297C432.944 145.454 432.65 145.671 432.374 145.947L432.053 146.268C431.789 146.532 431.624 146.773 431.558 146.993C431.491 147.213 431.52 147.402 431.644 147.56C431.771 147.719 431.988 147.84 432.294 147.921C432.529 147.985 432.755 148.015 432.97 148.014C433.19 148.011 433.391 147.988 433.57 147.945C433.753 147.903 433.899 147.853 434.008 147.795L434.058 147.771L435.118 148.055L435.074 148.086C434.895 148.206 434.679 148.317 434.428 148.418C434.18 148.518 433.904 148.595 433.6 148.651C433.3 148.708 432.98 148.733 432.641 148.727C432.305 148.721 431.961 148.671 431.607 148.576ZM435.451 149.508L441.039 143.92L442.135 144.213L436.546 149.802L435.451 149.508Z" fill="#484848"/>
<path d="M400.817 154.843L401.842 153.818L404.427 154.51C405.051 154.678 405.652 154.692 406.231 154.551C406.813 154.407 407.318 154.121 407.745 153.694L407.755 153.684C408.186 153.254 408.344 152.876 408.232 152.55C408.12 152.224 407.751 151.977 407.128 151.81L404.543 151.117L405.577 150.083L408.587 150.889C409.246 151.066 409.725 151.319 410.021 151.648C410.317 151.978 410.426 152.359 410.346 152.792C410.27 153.221 409.994 153.674 409.517 154.15L409.507 154.16C409.034 154.633 408.479 155.011 407.843 155.295C407.21 155.575 406.546 155.749 405.852 155.818C405.162 155.882 404.486 155.826 403.827 155.649L400.817 154.843ZM397.598 156.961L404.709 149.85L406.446 150.316L399.335 157.427L397.598 156.961ZM406.592 159.371L414.063 151.9L415.739 152.349L408.268 159.82L406.592 159.371ZM412.292 161.011C411.83 160.887 411.482 160.71 411.245 160.48C411.012 160.252 410.91 159.989 410.94 159.692C410.976 159.394 411.159 159.081 411.487 158.752L411.497 158.742C411.816 158.423 412.198 158.178 412.643 158.006C413.092 157.83 413.59 157.733 414.14 157.713C414.688 157.693 415.273 157.752 415.892 157.889L418.736 158.495L417.928 159.303L415.325 158.756C414.834 158.649 414.413 158.628 414.065 158.693C413.715 158.757 413.429 158.901 413.205 159.125L413.196 159.135C412.965 159.365 412.905 159.576 413.015 159.768C413.13 159.961 413.373 160.107 413.746 160.207C414.082 160.297 414.432 160.328 414.796 160.301C415.159 160.273 415.5 160.196 415.821 160.069C416.144 159.939 416.413 159.768 416.626 159.554L418.332 157.849C418.601 157.58 418.689 157.343 418.596 157.139C418.509 156.932 418.235 156.767 417.777 156.645C417.396 156.543 417.035 156.508 416.693 156.542C416.356 156.572 416.056 156.664 415.793 156.819L415.767 156.837L414.184 156.413L414.236 156.371C414.593 156.083 415.018 155.861 415.514 155.707C416.01 155.552 416.542 155.472 417.112 155.467C417.68 155.461 418.255 155.535 418.834 155.691C419.471 155.861 419.938 156.078 420.232 156.34C420.531 156.599 420.659 156.896 420.615 157.23C420.575 157.561 420.366 157.915 419.988 158.293L416.306 161.974L414.65 161.53L415.39 160.791L415.275 160.76C414.97 160.895 414.647 160.996 414.307 161.063C413.971 161.132 413.632 161.162 413.294 161.154C412.953 161.147 412.62 161.099 412.292 161.011ZM421.368 163.468C420.627 163.269 420.106 162.988 419.804 162.624C419.503 162.26 419.423 161.83 419.566 161.335C419.707 160.84 420.071 160.3 420.656 159.716L420.666 159.706C421.248 159.124 421.884 158.663 422.576 158.324C423.268 157.985 423.987 157.775 424.732 157.696C425.481 157.613 426.223 157.671 426.959 157.868C427.592 158.037 428.055 158.263 428.346 158.546C428.647 158.826 428.788 159.143 428.77 159.497C428.761 159.848 428.599 160.219 428.288 160.61L428.268 160.63L426.686 160.206L426.695 160.19C426.881 159.906 426.921 159.644 426.814 159.404C426.713 159.164 426.433 158.983 425.976 158.86C425.594 158.758 425.196 158.741 424.781 158.808C424.37 158.878 423.96 159.026 423.55 159.254C423.141 159.482 422.747 159.784 422.369 160.162L422.359 160.172C421.978 160.553 421.723 160.899 421.594 161.21C421.472 161.519 421.474 161.782 421.599 161.999C421.727 162.212 421.982 162.37 422.363 162.473C422.798 162.589 423.221 162.61 423.63 162.537C424.044 162.465 424.444 162.301 424.83 162.046L424.862 162.03L426.443 162.447L426.392 162.49C425.946 162.833 425.451 163.106 424.906 163.31C424.365 163.515 423.795 163.635 423.197 163.67C422.601 163.702 421.992 163.635 421.368 163.468ZM429.318 165.598C428.586 165.402 428.072 165.12 427.773 164.753C427.479 164.386 427.399 163.957 427.534 163.464C427.669 162.971 428.022 162.439 428.593 161.867L428.598 161.862C429.163 161.297 429.795 160.841 430.494 160.495C431.197 160.151 431.922 159.933 432.668 159.841C433.417 159.746 434.14 159.792 434.835 159.978C435.536 160.166 436.024 160.44 436.299 160.802C436.584 161.161 436.66 161.58 436.53 162.057C436.399 162.534 436.063 163.044 435.521 163.586L435.117 163.99L429.139 162.389L429.962 161.565L435.119 162.947L433.555 163.503L434.044 163.015C434.401 162.657 434.625 162.34 434.713 162.063C434.802 161.787 434.773 161.555 434.625 161.366C434.484 161.177 434.241 161.037 433.895 160.944C433.55 160.852 433.179 160.832 432.786 160.885C432.399 160.935 432.007 161.059 431.61 161.257C431.221 161.453 430.855 161.723 430.51 162.068L430.017 162.561C429.685 162.893 429.477 163.197 429.393 163.475C429.312 163.749 429.347 163.987 429.496 164.19C429.655 164.39 429.927 164.542 430.313 164.646C430.613 164.726 430.903 164.765 431.181 164.76C431.466 164.753 431.721 164.723 431.944 164.671C432.17 164.615 432.351 164.553 432.488 164.485L432.542 164.456L434.131 164.882L434.073 164.922C433.841 165.081 433.556 165.23 433.219 165.368C432.888 165.505 432.513 165.615 432.094 165.698C431.683 165.78 431.241 165.817 430.769 165.812C430.3 165.803 429.816 165.732 429.318 165.598ZM434.476 166.843L441.947 159.371L443.623 159.821L440.71 162.733L440.825 162.764C441.292 162.518 441.785 162.361 442.304 162.292C442.823 162.222 443.347 162.259 443.877 162.401C444.424 162.547 444.807 162.75 445.027 163.009C445.249 163.264 445.307 163.567 445.201 163.918C445.1 164.27 444.836 164.659 444.408 165.087L440.925 168.571L439.249 168.121L442.447 164.923C442.867 164.503 443.061 164.155 443.029 163.88C443.002 163.605 442.734 163.401 442.227 163.265C441.894 163.176 441.553 163.153 441.203 163.197C440.853 163.24 440.512 163.343 440.185 163.505C439.858 163.667 439.56 163.883 439.291 164.152L436.152 167.292L434.476 166.843ZM445.972 170.061C445.241 169.865 444.723 169.584 444.416 169.219C444.113 168.85 444.026 168.419 444.157 167.924C444.291 167.432 444.65 166.894 445.231 166.312L445.241 166.303C445.816 165.728 446.456 165.27 447.16 164.93C447.867 164.587 448.596 164.373 449.344 164.291C450.097 164.209 450.839 164.266 451.571 164.462C452.302 164.658 452.819 164.938 453.121 165.302C453.427 165.668 453.515 166.097 453.385 166.592C453.255 167.086 452.901 167.622 452.323 168.201L452.313 168.21C451.732 168.792 451.088 169.253 450.384 169.593C449.684 169.935 448.956 170.147 448.2 170.233C447.451 170.315 446.708 170.258 445.972 170.061ZM446.968 169.065C447.354 169.169 447.752 169.186 448.163 169.117C448.581 169.046 448.995 168.896 449.405 168.668C449.818 168.437 450.213 168.133 450.591 167.755L450.6 167.746C450.982 167.364 451.234 167.021 451.356 166.717C451.483 166.409 451.479 166.148 451.346 165.933C451.221 165.716 450.966 165.556 450.58 165.453C450.194 165.349 449.793 165.334 449.374 165.405C448.959 165.473 448.545 165.622 448.131 165.853C447.723 166.08 447.327 166.385 446.945 166.766L446.936 166.776C446.558 167.153 446.307 167.496 446.18 167.804C446.055 168.112 446.056 168.373 446.184 168.586C446.316 168.801 446.577 168.961 446.968 169.065ZM451.372 171.37L458.843 163.899L460.519 164.348L453.048 171.819L451.372 171.37ZM457.719 173.183C457.108 173.02 456.688 172.766 456.459 172.42C456.232 172.072 456.204 171.657 456.374 171.173C456.545 170.69 456.913 170.166 457.478 169.6L457.488 169.591C458.06 169.019 458.673 168.559 459.33 168.21C459.994 167.858 460.662 167.632 461.334 167.528C462.014 167.423 462.664 167.453 463.284 167.619C463.62 167.709 463.894 167.833 464.107 167.99C464.323 168.144 464.471 168.321 464.55 168.521C464.632 168.722 464.64 168.937 464.572 169.164L464.693 169.197L467.635 166.255L469.305 166.702L461.834 174.173L460.164 173.726L461.007 172.883L460.885 172.85C460.557 173.008 460.212 173.128 459.851 173.211C459.497 173.291 459.14 173.331 458.777 173.329C458.418 173.324 458.065 173.276 457.719 173.183ZM459.279 172.289C459.661 172.391 460.057 172.41 460.469 172.345C460.889 172.279 461.302 172.135 461.71 171.916C462.125 171.693 462.512 171.403 462.87 171.045L462.879 171.036C463.241 170.674 463.476 170.343 463.583 170.043C463.694 169.744 463.681 169.486 463.544 169.27C463.412 169.056 463.155 168.897 462.773 168.795C462.397 168.694 461.998 168.677 461.578 168.743C461.167 168.808 460.756 168.952 460.344 169.175C459.937 169.395 459.552 169.686 459.19 170.047L459.181 170.057C458.82 170.418 458.583 170.748 458.472 171.048C458.361 171.347 458.371 171.604 458.503 171.819C458.639 172.03 458.897 172.187 459.279 172.289ZM466.99 175.692C466.258 175.496 465.743 175.214 465.444 174.847C465.151 174.48 465.071 174.051 465.205 173.558C465.34 173.065 465.693 172.533 466.265 171.961L466.27 171.956C466.835 171.391 467.467 170.936 468.166 170.589C468.868 170.245 469.594 170.027 470.339 169.935C471.089 169.84 471.811 169.886 472.507 170.072C473.207 170.26 473.695 170.535 473.971 170.896C474.255 171.255 474.332 171.674 474.201 172.151C474.071 172.628 473.735 173.138 473.193 173.68L472.788 174.084L466.81 172.482L467.633 171.659L472.79 173.041L471.227 173.597L471.715 173.109C472.073 172.751 472.297 172.434 472.385 172.157C472.473 171.881 472.445 171.649 472.297 171.46C472.155 171.271 471.912 171.131 471.567 171.038C471.221 170.946 470.851 170.926 470.457 170.978C470.07 171.029 469.679 171.153 469.282 171.352C468.893 171.547 468.526 171.817 468.181 172.162L467.687 172.655C467.356 172.987 467.148 173.291 467.064 173.569C466.984 173.843 467.019 174.081 467.168 174.284C467.327 174.484 467.598 174.636 467.984 174.74C468.285 174.82 468.574 174.859 468.852 174.854C469.138 174.847 469.392 174.817 469.616 174.765C469.842 174.709 470.023 174.647 470.159 174.58L470.214 174.55L471.803 174.976L471.745 175.016C471.513 175.175 471.227 175.324 470.889 175.462C470.56 175.599 470.185 175.709 469.766 175.792C469.354 175.874 468.913 175.912 468.44 175.906C467.971 175.897 467.488 175.826 466.99 175.692ZM472.079 176.918L477.466 171.532L479.142 171.981L478.314 172.809L478.429 172.839C478.843 172.584 479.293 172.419 479.777 172.345C480.266 172.272 480.752 172.3 481.237 172.43C481.362 172.463 481.48 172.504 481.587 172.549C481.703 172.592 481.793 172.633 481.858 172.671L480.759 173.77C480.647 173.711 480.527 173.658 480.397 173.611C480.276 173.562 480.141 173.517 479.993 173.478C479.621 173.378 479.244 173.342 478.864 173.369C478.484 173.396 478.122 173.484 477.779 173.634C477.44 173.781 477.141 173.982 476.885 174.238L473.755 177.368L472.079 176.918ZM484.069 180.131L490.111 174.089L487.121 173.288L488.191 172.219L495.906 174.286L494.837 175.356L491.848 174.555L485.806 180.596L484.069 180.131ZM492.18 182.442C491.448 182.246 490.934 181.964 490.635 181.597C490.342 181.23 490.261 180.801 490.396 180.308C490.531 179.815 490.884 179.282 491.455 178.711L491.46 178.706C492.025 178.141 492.658 177.685 493.357 177.339C494.06 176.995 494.784 176.776 495.53 176.685C496.279 176.59 497.002 176.636 497.698 176.822C498.398 177.01 498.886 177.284 499.161 177.645C499.446 178.005 499.522 178.423 499.392 178.901C499.261 179.378 498.925 179.888 498.383 180.43L497.979 180.834L492.001 179.232L492.824 178.409L497.981 179.791L496.417 180.347L496.906 179.859C497.263 179.501 497.487 179.183 497.575 178.907C497.664 178.631 497.635 178.398 497.488 178.21C497.347 178.021 497.103 177.881 496.757 177.788C496.412 177.696 496.041 177.676 495.648 177.728C495.261 177.779 494.87 177.903 494.472 178.101C494.083 178.297 493.717 178.567 493.372 178.912L492.879 179.405C492.547 179.737 492.339 180.041 492.255 180.318C492.174 180.593 492.209 180.831 492.358 181.034C492.517 181.234 492.789 181.386 493.175 181.49C493.475 181.57 493.765 181.609 494.043 181.604C494.328 181.597 494.583 181.567 494.806 181.515C495.032 181.459 495.214 181.397 495.35 181.329L495.405 181.3L496.993 181.726L496.936 181.766C496.703 181.925 496.418 182.074 496.081 182.212C495.751 182.349 495.375 182.458 494.956 182.542C494.545 182.624 494.103 182.661 493.631 182.656C493.162 182.647 492.678 182.575 492.18 182.442ZM496.415 183.439L501.469 181.407L501.781 178.047L503.713 178.565L503.313 180.826L503.428 180.857L506.749 179.379L508.587 179.871L503.543 181.894L503.228 185.265L501.343 184.76L501.708 182.483L501.593 182.452L498.212 183.921L496.415 183.439ZM507.572 186.46C506.729 186.234 506.234 185.957 506.088 185.631C505.941 185.305 506.127 184.883 506.643 184.367L509.649 181.362L508.504 181.055L509.456 180.104L510.6 180.41L511.921 179.089L513.624 179.546L512.303 180.867L513.852 181.282L512.901 182.233L511.352 181.818L508.637 184.533C508.371 184.799 508.251 185.015 508.279 185.181C508.315 185.345 508.505 185.473 508.851 185.565C508.972 185.598 509.072 185.623 509.152 185.64C509.239 185.655 509.335 185.673 509.441 185.692L508.495 186.638C508.362 186.623 508.214 186.601 508.051 186.57C507.894 186.54 507.733 186.503 507.572 186.46Z" fill="#888888"/>
<path d="M808.062 294.538L507.336 213.959C504.481 213.194 500.472 214.268 498.381 216.358L467.472 247.267C465.382 249.358 466.002 251.672 468.858 252.437L769.584 333.017C772.439 333.782 776.448 332.707 778.538 330.617L809.447 299.708C811.537 297.618 810.917 295.303 808.062 294.538Z" fill="white"/>
<path d="M808.062 294.538L507.336 213.959C504.481 213.194 500.472 214.268 498.381 216.358L467.472 247.267C465.382 249.358 466.002 251.672 468.858 252.437L769.584 333.017C772.439 333.782 776.448 332.707 778.538 330.617L809.447 299.708C811.537 297.618 810.917 295.303 808.062 294.538Z" stroke="#DDDDDD"/>
<path d="M500.489 228.521L505.822 223.187L506.953 223.49L502.337 228.106L505.755 229.022L505.038 229.739L500.489 228.521ZM507.779 230.558C507.432 230.465 507.169 230.334 506.989 230.164C506.814 229.992 506.738 229.795 506.76 229.573C506.781 229.351 506.913 229.119 507.154 228.877L507.162 228.87C507.403 228.628 507.688 228.444 508.017 228.316C508.348 228.189 508.714 228.119 509.112 228.104C509.517 228.088 509.946 228.127 510.4 228.224L512.514 228.678L511.949 229.243L509.987 228.83C509.593 228.746 509.255 228.731 508.976 228.784C508.699 228.835 508.471 228.95 508.291 229.13L508.284 229.137C508.102 229.32 508.053 229.49 508.139 229.647C508.227 229.802 508.418 229.919 508.711 229.997C508.983 230.07 509.265 230.095 509.556 230.073C509.853 230.05 510.129 229.987 510.386 229.884C510.645 229.778 510.861 229.639 511.034 229.466L512.298 228.202C512.519 227.981 512.594 227.787 512.521 227.621C512.454 227.452 512.238 227.319 511.871 227.221C511.565 227.139 511.275 227.112 511 227.138C510.729 227.165 510.491 227.242 510.284 227.368L510.262 227.376L509.207 227.093L509.238 227.069C509.504 226.859 509.815 226.699 510.173 226.588C510.537 226.476 510.925 226.418 511.336 226.412C511.75 226.408 512.163 226.461 512.578 226.572C513.039 226.696 513.375 226.854 513.587 227.048C513.804 227.241 513.893 227.46 513.857 227.707C513.825 227.951 513.669 228.214 513.389 228.495L510.642 231.241L509.551 230.949L510.12 230.38L510.039 230.358C509.797 230.464 509.546 230.544 509.289 230.597C509.033 230.648 508.778 230.67 508.524 230.664C508.27 230.658 508.021 230.623 507.779 230.558ZM515.039 232.503C514.784 232.435 514.575 232.344 514.413 232.233C514.254 232.119 514.142 231.987 514.078 231.838C514.019 231.688 514.01 231.527 514.051 231.353L513.965 231.33L513.333 231.962L512.237 231.668L517.825 226.08L518.921 226.374L516.711 228.584L516.796 228.607C517.04 228.488 517.297 228.399 517.569 228.341C517.844 228.28 518.118 228.25 518.394 228.252C518.672 228.251 518.937 228.285 519.189 228.352C519.654 228.477 519.971 228.67 520.141 228.931C520.313 229.19 520.337 229.499 520.212 229.859C520.086 230.22 519.811 230.611 519.388 231.035L519.381 231.042C518.959 231.464 518.499 231.804 518 232.064C517.504 232.325 517.001 232.495 516.492 232.574C515.984 232.651 515.5 232.627 515.039 232.503ZM515.413 231.732C515.72 231.815 516.037 231.829 516.367 231.777C516.697 231.724 517.022 231.61 517.344 231.434C517.668 231.259 517.974 231.028 518.259 230.742L518.267 230.734C518.555 230.446 518.743 230.184 518.829 229.948C518.922 229.71 518.914 229.507 518.806 229.338C518.701 229.165 518.496 229.038 518.189 228.956C517.886 228.875 517.567 228.862 517.231 228.916C516.898 228.967 516.57 229.08 516.244 229.256C515.92 229.431 515.614 229.661 515.329 229.947L515.321 229.955C515.038 230.238 514.851 230.5 514.758 230.741C514.67 230.98 514.68 231.184 514.792 231.355C514.903 231.525 515.11 231.651 515.413 231.732ZM520.905 234.089C520.37 233.946 519.993 233.739 519.777 233.469C519.564 233.196 519.508 232.876 519.61 232.51C519.715 232.144 519.979 231.75 520.403 231.326L520.406 231.322C520.825 230.903 521.295 230.565 521.813 230.307C522.334 230.05 522.871 229.884 523.422 229.811C523.978 229.737 524.509 229.769 525.018 229.905C525.53 230.043 525.886 230.244 526.085 230.51C526.287 230.777 526.336 231.088 526.232 231.444C526.13 231.798 525.877 232.177 525.473 232.581L525.192 232.862L520.759 231.674L521.332 231.101L525.22 232.143L524.162 232.535L524.483 232.213C524.769 231.927 524.945 231.674 525.011 231.455C525.084 231.233 525.062 231.048 524.947 230.898C524.832 230.749 524.638 230.638 524.365 230.565C524.093 230.492 523.8 230.476 523.486 230.516C523.177 230.555 522.866 230.653 522.552 230.81C522.241 230.967 521.947 231.184 521.672 231.459L521.35 231.781C521.086 232.045 520.922 232.286 520.856 232.506C520.789 232.726 520.817 232.915 520.941 233.073C521.069 233.232 521.286 233.352 521.591 233.434C521.827 233.497 522.053 233.528 522.267 233.527C522.488 233.523 522.689 233.5 522.867 233.458C523.05 233.416 523.196 233.366 523.305 233.308L523.356 233.284L524.415 233.568L524.372 233.599C524.192 233.719 523.976 233.83 523.726 233.931C523.477 234.031 523.201 234.108 522.897 234.164C522.597 234.221 522.278 234.246 521.939 234.24C521.603 234.234 521.258 234.184 520.905 234.089ZM524.749 235.021L530.337 229.433L531.432 229.726L525.844 235.314L524.749 235.021Z" fill="#484848"/>
<path d="M486.896 242.474L494.007 235.363L495.743 235.829L488.632 242.94L486.896 242.474ZM490.854 243.535L496.24 238.148L497.917 238.598L497.089 239.425L497.203 239.456C497.671 239.211 498.164 239.053 498.682 238.984C499.202 238.915 499.726 238.951 500.255 239.093C501.077 239.313 501.531 239.656 501.618 240.12C501.705 240.585 501.428 241.138 500.787 241.779L497.303 245.263L495.627 244.814L498.825 241.615C499.245 241.195 499.44 240.847 499.408 240.572C499.381 240.298 499.113 240.093 498.606 239.957C498.273 239.868 497.932 239.845 497.581 239.889C497.231 239.932 496.891 240.035 496.564 240.197C496.237 240.36 495.939 240.575 495.67 240.845L492.53 243.984L490.854 243.535ZM497.494 247.582L504.669 240.407L506.345 240.856L505.502 241.699L505.617 241.729C505.945 241.572 506.286 241.453 506.639 241.372C506.997 241.293 507.358 241.255 507.721 241.256C508.083 241.257 508.437 241.304 508.784 241.397C509.398 241.561 509.816 241.817 510.039 242.164C510.265 242.513 510.293 242.928 510.123 243.412C509.96 243.893 509.594 244.418 509.026 244.986L509.016 244.996C508.445 245.567 507.828 246.028 507.168 246.375C506.507 246.723 505.837 246.95 505.157 247.055C504.484 247.158 503.838 247.127 503.219 246.961C502.882 246.871 502.606 246.749 502.39 246.595C502.177 246.438 502.032 246.259 501.952 246.059C501.874 245.859 501.867 245.644 501.93 245.416L501.816 245.385L499.17 248.031L497.494 247.582ZM503.729 245.785C504.111 245.887 504.507 245.906 504.919 245.841C505.333 245.773 505.745 245.629 506.153 245.41C506.564 245.186 506.948 244.896 507.307 244.538L507.316 244.528C507.681 244.163 507.919 243.832 508.03 243.532C508.142 243.233 508.129 242.978 507.994 242.766C507.861 242.552 507.605 242.393 507.223 242.291C506.841 242.189 506.441 242.171 506.022 242.238C505.61 242.303 505.198 242.444 504.786 242.663C504.378 242.883 503.994 243.173 503.632 243.535L503.623 243.544C503.261 243.906 503.023 244.238 502.908 244.541C502.802 244.841 502.816 245.099 502.954 245.315C503.093 245.527 503.352 245.684 503.729 245.785ZM510.348 248.896C509.801 248.749 509.419 248.548 509.2 248.295C508.986 248.037 508.933 247.734 509.043 247.384C509.158 247.032 509.428 246.641 509.855 246.214L513.339 242.73L515.015 243.179L511.812 246.382C511.394 246.8 511.194 247.144 511.208 247.414C511.221 247.684 511.483 247.887 511.99 248.023C512.259 248.095 512.526 248.129 512.792 248.126C513.065 248.12 513.329 248.078 513.583 248.001C513.837 247.922 514.08 247.813 514.313 247.671C514.55 247.526 514.769 247.352 514.973 247.148L518.112 244.009L519.788 244.458L514.402 249.844L512.726 249.395L513.544 248.577L513.429 248.546C513.127 248.707 512.804 248.831 512.461 248.918C512.12 249.002 511.772 249.044 511.413 249.044C511.058 249.04 510.703 248.991 510.348 248.896ZM519.319 251.193C518.475 250.967 517.98 250.691 517.835 250.364C517.688 250.038 517.873 249.617 518.389 249.101L521.395 246.095L520.251 245.788L521.202 244.837L522.346 245.144L523.667 243.823L525.371 244.279L524.05 245.6L525.598 246.015L524.647 246.966L523.099 246.551L520.384 249.266C520.117 249.532 519.998 249.748 520.025 249.914C520.061 250.078 520.251 250.206 520.597 250.298C520.719 250.331 520.819 250.356 520.898 250.373C520.986 250.388 521.082 250.406 521.188 250.425L520.242 251.372C520.108 251.357 519.96 251.334 519.798 251.303C519.64 251.273 519.48 251.236 519.319 251.193ZM528.377 253.589L532.129 245.578L534.041 246.091L530.802 252.377L530.916 252.407L538.968 247.411L540.88 247.923L530.404 254.132L528.377 253.589ZM536.407 255.853C535.945 255.73 535.596 255.552 535.359 255.322C535.127 255.094 535.025 254.831 535.055 254.535C535.091 254.236 535.273 253.923 535.602 253.594L535.612 253.584C535.93 253.266 536.312 253.02 536.757 252.848C537.206 252.672 537.706 252.575 538.254 252.555C538.803 252.536 539.387 252.595 540.008 252.731L542.85 253.337L542.042 254.145L539.439 253.598C538.948 253.491 538.529 253.471 538.179 253.535C537.831 253.6 537.544 253.743 537.32 253.967L537.31 253.977C537.08 254.207 537.021 254.418 537.13 254.61C537.244 254.803 537.488 254.949 537.861 255.049C538.197 255.139 538.547 255.17 538.91 255.143C539.273 255.115 539.615 255.038 539.935 254.911C540.259 254.781 540.527 254.61 540.741 254.396L542.446 252.691C542.715 252.422 542.805 252.185 542.712 251.982C542.623 251.774 542.35 251.61 541.892 251.487C541.51 251.385 541.149 251.35 540.809 251.384C540.471 251.414 540.171 251.506 539.907 251.661L539.881 251.679L538.3 251.255L538.35 251.213C538.707 250.925 539.132 250.704 539.629 250.549C540.125 250.394 540.657 250.315 541.226 250.309C541.796 250.303 542.369 250.377 542.948 250.533C543.586 250.704 544.052 250.92 544.347 251.183C544.646 251.442 544.773 251.738 544.729 252.072C544.689 252.403 544.48 252.757 544.102 253.135L540.421 256.816L538.765 256.372L539.504 255.633L539.389 255.602C539.084 255.737 538.761 255.838 538.421 255.905C538.085 255.974 537.748 256.004 537.408 255.996C537.068 255.989 536.734 255.941 536.407 255.853ZM542.501 257.374L549.972 249.902L551.648 250.352L544.177 257.823L542.501 257.374ZM548.613 259.149C548.065 259.002 547.682 258.801 547.464 258.547C547.249 258.29 547.197 257.986 547.307 257.637C547.421 257.284 547.692 256.894 548.119 256.467L551.603 252.983L553.28 253.432L550.076 256.635C549.659 257.053 549.457 257.396 549.471 257.666C549.486 257.937 549.746 258.14 550.254 258.276C550.523 258.348 550.79 258.382 551.056 258.379C551.329 258.373 551.593 258.331 551.847 258.253C552.102 258.175 552.344 258.066 552.577 257.924C552.814 257.779 553.033 257.604 553.236 257.401L556.376 254.262L558.052 254.711L552.666 260.097L550.989 259.648L551.807 258.83L551.694 258.799C551.39 258.96 551.068 259.084 550.725 259.171C550.384 259.255 550.035 259.296 549.677 259.296C549.322 259.293 548.967 259.244 548.613 259.149ZM557.754 261.598C557.023 261.402 556.508 261.12 556.209 260.753C555.916 260.387 555.836 259.957 555.97 259.465C556.105 258.971 556.458 258.439 557.03 257.867L557.035 257.862C557.6 257.297 558.231 256.842 558.931 256.496C559.633 256.151 560.359 255.933 561.104 255.841C561.854 255.746 562.576 255.792 563.272 255.978C563.972 256.166 564.46 256.441 564.736 256.802C565.02 257.161 565.097 257.58 564.966 258.057C564.836 258.534 564.5 259.044 563.958 259.586L563.553 259.99L557.575 258.389L558.398 257.565L563.555 258.947L561.992 259.503L562.48 259.015C562.838 258.657 563.061 258.34 563.15 258.064C563.238 257.787 563.209 257.555 563.062 257.366C562.92 257.177 562.677 257.037 562.332 256.945C561.986 256.852 561.616 256.832 561.222 256.885C560.835 256.936 560.444 257.059 560.047 257.258C559.657 257.453 559.291 257.723 558.946 258.068L558.452 258.561C558.121 258.893 557.913 259.197 557.829 259.475C557.748 259.749 557.783 259.987 557.933 260.191C558.091 260.391 558.363 260.543 558.749 260.646C559.05 260.727 559.34 260.765 559.617 260.76C559.903 260.753 560.157 260.723 560.381 260.671C560.607 260.615 560.788 260.553 560.924 260.486L560.979 260.456L562.568 260.882L562.51 260.923C562.278 261.081 561.992 261.23 561.654 261.368C561.325 261.505 560.95 261.615 560.531 261.698C560.119 261.78 559.678 261.818 559.205 261.812C558.736 261.803 558.252 261.732 557.754 261.598Z" fill="#111111"/>
</g>
<rect x="971.5" y="376" width="1" height="100" transform="rotate(-90 971.5 376)" fill="#484848"/>
<path d="M655.969 384.816C654.539 384.816 653.305 384.555 652.266 384.031C651.227 383.508 650.422 382.777 649.852 381.84C649.289 380.902 649.008 379.812 649.008 378.57V367.59H652.031V378.312C652.031 379.094 652.184 379.777 652.488 380.363C652.801 380.941 653.25 381.395 653.836 381.723C654.422 382.043 655.133 382.203 655.969 382.203C656.805 382.203 657.516 382.043 658.102 381.723C658.688 381.395 659.133 380.941 659.438 380.363C659.742 379.777 659.895 379.094 659.895 378.312V367.59H662.906V378.57C662.906 379.805 662.625 380.895 662.062 381.84C661.508 382.777 660.711 383.508 659.672 384.031C658.633 384.555 657.398 384.816 655.969 384.816ZM678.266 384.5V370.133H673.18V367.59H686.363V370.133H681.277V384.5H678.266ZM696.637 384.5V367.59H699.648V384.5H696.637ZM710.848 384.5V367.59H713.859V381.957H721.547V384.5H710.848ZM731.926 384.5V367.59H734.938V384.5H731.926ZM750.273 384.5V370.133H745.188V367.59H758.371V370.133H753.285V384.5H750.273ZM773.379 384.5V377.832L767.449 367.59H770.754L774.832 374.926H774.938L779.016 367.59H782.32L776.391 377.832V384.5H773.379ZM812.723 384.816C811.113 384.816 809.715 384.461 808.527 383.75C807.348 383.039 806.434 382.027 805.785 380.715C805.145 379.402 804.824 377.844 804.824 376.039V376.027C804.824 374.223 805.145 372.668 805.785 371.363C806.434 370.051 807.348 369.043 808.527 368.34C809.715 367.629 811.113 367.273 812.723 367.273C814.02 367.273 815.18 367.523 816.203 368.023C817.234 368.523 818.074 369.215 818.723 370.098C819.371 370.98 819.77 371.996 819.918 373.145L819.93 373.262H816.965L816.906 373.062C816.75 372.414 816.48 371.855 816.098 371.387C815.723 370.91 815.25 370.543 814.68 370.285C814.109 370.02 813.457 369.887 812.723 369.887C811.746 369.887 810.895 370.137 810.168 370.637C809.449 371.137 808.891 371.848 808.492 372.77C808.102 373.684 807.906 374.77 807.906 376.027V376.039C807.906 377.297 808.102 378.387 808.492 379.309C808.891 380.23 809.453 380.945 810.18 381.453C810.906 381.953 811.758 382.203 812.734 382.203C813.453 382.203 814.094 382.078 814.656 381.828C815.227 381.57 815.707 381.203 816.098 380.727C816.488 380.242 816.77 379.66 816.941 378.98L816.965 378.875H819.93L819.918 378.992C819.777 380.141 819.383 381.152 818.734 382.027C818.086 382.902 817.246 383.586 816.215 384.078C815.191 384.57 814.027 384.816 812.723 384.816ZM830.426 384.5V367.59H833.438V381.957H841.125V384.5H830.426ZM850.309 384.5L856.344 367.59H858.887V370.625H857.996L853.473 384.5H850.309ZM853.367 380.129L854.164 377.797H861.91L862.719 380.129H853.367ZM862.613 384.5L858.09 370.625V367.59H859.742L865.777 384.5H862.613ZM881.523 384.816C880.227 384.816 879.094 384.621 878.125 384.23C877.156 383.84 876.391 383.281 875.828 382.555C875.273 381.828 874.961 380.965 874.891 379.965L874.879 379.777H877.773L877.797 379.918C877.875 380.402 878.082 380.82 878.418 381.172C878.754 381.523 879.195 381.797 879.742 381.992C880.289 382.18 880.918 382.273 881.629 382.273C882.332 382.273 882.941 382.176 883.457 381.98C883.98 381.777 884.383 381.496 884.664 381.137C884.953 380.77 885.098 380.344 885.098 379.859V379.848C885.098 379.223 884.859 378.723 884.383 378.348C883.914 377.973 883.133 377.672 882.039 377.445L880.223 377.07C878.551 376.719 877.305 376.148 876.484 375.359C875.664 374.57 875.254 373.547 875.254 372.289V372.277C875.262 371.277 875.531 370.406 876.062 369.664C876.602 368.914 877.344 368.328 878.289 367.906C879.234 367.484 880.312 367.273 881.523 367.273C882.758 367.273 883.832 367.477 884.746 367.883C885.668 368.289 886.391 368.855 886.914 369.582C887.445 370.309 887.738 371.148 887.793 372.102L887.805 372.289H884.922L884.898 372.148C884.828 371.664 884.645 371.25 884.348 370.906C884.059 370.555 883.672 370.285 883.188 370.098C882.703 369.91 882.141 369.816 881.5 369.816C880.852 369.816 880.285 369.914 879.801 370.109C879.324 370.297 878.953 370.562 878.688 370.906C878.422 371.25 878.289 371.652 878.289 372.113V372.125C878.289 372.719 878.527 373.203 879.004 373.578C879.48 373.945 880.23 374.238 881.254 374.457L883.082 374.832C884.254 375.074 885.211 375.402 885.953 375.816C886.695 376.23 887.242 376.75 887.594 377.375C887.953 377.992 888.133 378.738 888.133 379.613V379.625C888.133 380.68 887.867 381.598 887.336 382.379C886.805 383.16 886.047 383.762 885.062 384.184C884.078 384.605 882.898 384.816 881.523 384.816ZM904.523 384.816C903.227 384.816 902.094 384.621 901.125 384.23C900.156 383.84 899.391 383.281 898.828 382.555C898.273 381.828 897.961 380.965 897.891 379.965L897.879 379.777H900.773L900.797 379.918C900.875 380.402 901.082 380.82 901.418 381.172C901.754 381.523 902.195 381.797 902.742 381.992C903.289 382.18 903.918 382.273 904.629 382.273C905.332 382.273 905.941 382.176 906.457 381.98C906.98 381.777 907.383 381.496 907.664 381.137C907.953 380.77 908.098 380.344 908.098 379.859V379.848C908.098 379.223 907.859 378.723 907.383 378.348C906.914 377.973 906.133 377.672 905.039 377.445L903.223 377.07C901.551 376.719 900.305 376.148 899.484 375.359C898.664 374.57 898.254 373.547 898.254 372.289V372.277C898.262 371.277 898.531 370.406 899.062 369.664C899.602 368.914 900.344 368.328 901.289 367.906C902.234 367.484 903.312 367.273 904.523 367.273C905.758 367.273 906.832 367.477 907.746 367.883C908.668 368.289 909.391 368.855 909.914 369.582C910.445 370.309 910.738 371.148 910.793 372.102L910.805 372.289H907.922L907.898 372.148C907.828 371.664 907.645 371.25 907.348 370.906C907.059 370.555 906.672 370.285 906.188 370.098C905.703 369.91 905.141 369.816 904.5 369.816C903.852 369.816 903.285 369.914 902.801 370.109C902.324 370.297 901.953 370.562 901.688 370.906C901.422 371.25 901.289 371.652 901.289 372.113V372.125C901.289 372.719 901.527 373.203 902.004 373.578C902.48 373.945 903.23 374.238 904.254 374.457L906.082 374.832C907.254 375.074 908.211 375.402 908.953 375.816C909.695 376.23 910.242 376.75 910.594 377.375C910.953 377.992 911.133 378.738 911.133 379.613V379.625C911.133 380.68 910.867 381.598 910.336 382.379C909.805 383.16 909.047 383.762 908.062 384.184C907.078 384.605 905.898 384.816 904.523 384.816Z" fill="#484848"/>
</g>
</g>
<defs>
<clipPath id="clip0_101_153">
<rect width="1120" height="421" rx="24" fill="white"/>
</clipPath>
<clipPath id="clip1_101_153">
<rect x="48" y="-2.5" width="1024" height="426" rx="24" fill="white"/>
</clipPath>
<clipPath id="clip2_101_153">
<rect width="587.878" height="193.522" fill="white" transform="matrix(0.965926 0.258819 -0.707107 0.707107 344.841 46.5)"/>
</clipPath>
</defs>
</svg>
